<?xml version="1.0" encoding="utf-8"?>
<!-- Generator: Adobe Illustrator 18.0.0, SVG Export Plug-In . SVG Version: 6.00 Build 0)  -->
<!DOCTYPE svg PUBLIC "-//W3C//DTD SVG 1.1//EN" "http://www.w3.org/Graphics/SVG/1.1/DTD/svg11.dtd">
<svg version="1.1" id="Layer_1" xmlns="http://www.w3.org/2000/svg" xmlns:xlink="http://www.w3.org/1999/xlink" x="0px" y="0px"
	 viewBox="0.1 0 1599.9 1199.9" enable-background="new 0.1 0 1599.9 1199.9" xml:space="preserve">
<rect x="0.1" y="0" fill="none" width="1599.9" height="1199.9"/>
<g>
	<path fill="#FFFFFF" d="M986.9,597c0,27.9,22.6,50.4,50.4,50.4c27.8,0,50.4-22.6,50.4-50.4c0-27.9-22.6-50.4-50.4-50.4
		c-13.9,0-27.7,10.3-36.8,19.4h-1c1.5,0.5-17.6-222.9-16-223.2c17.8-3.8,35.8-5.8,53.7-5.8c143.3,0,260,116.7,260,260
		s-116.7,260-260,260c-120.6,0-223.9-81.3-252.4-198.2L677.9,252.4l259.4-250C937.5,2.3,988,598.4,986.9,597z"/>
	<path fill="#FFFFFF" d="M867.8,813c-23.6-18.6-43.9-40.8-60.3-66.1c-16.8-25.9-29-54.3-36.4-84.5l-11-41.8l-457.3,577.1
		l470.7-176.9l108.1-197.7C876.9,820,872.4,816.5,867.8,813z"/>
</g>
</svg>
