<?xml version="1.0" encoding="utf-8"?>
<!-- Generator: Adobe Illustrator 18.0.0, SVG Export Plug-In . SVG Version: 6.00 Build 0)  -->
<!DOCTYPE svg PUBLIC "-//W3C//DTD SVG 1.1//EN" "http://www.w3.org/Graphics/SVG/1.1/DTD/svg11.dtd">
<svg version="1.1" id="Layer_1" xmlns="http://www.w3.org/2000/svg" xmlns:xlink="http://www.w3.org/1999/xlink" x="0px" y="0px"
	 viewBox="0.1 0 1599.9 1199.9" enable-background="new 0.1 0 1599.9 1199.9" xml:space="preserve">
<rect x="0.1" y="0" fill="none" width="1599.9" height="1199.9"/>
<g>
	<path fill="#FFFFFF" d="M670.2,773.2c-7.9-15.7-15.9-30.7-22.9-46.3c-2-4.4-3.7-12,5.8-12.7c-12.2-27.9-23.7-56-26.8-86.7
		c1-0.5,1.9-0.9,2.9-1.4c3.6,4.7,7.3,9.4,10.2,13.2c-10.2-22.9-20.7-46.6-31.3-70c1.3,5.8,2.7,12.5,4.4,19.1
		c3.5,13.1,3.6,13-8.8,17.6c3.1-0.3,6.2-0.9,9.3-0.9c1.6,0,3.6,0.8,4.6,2c0.5,0.6-0.4,3.3-1.4,4.3c-7.6,8.4-29.4,5.6-33.5-4.5
		c-2.5-6.3-3.7-13.2-6.1-21.8c-1.5,3.1-2.1,3.7-2,4.1c5.7,19.9,5.1,21.1-14.9,20.6c-13.9-0.4-27.7-1.9-41.5-3.3
		c-5.4-0.5-10.5-3.1-8.5-9.7c4.3-14.5,0-29.1,2.6-43.9c2.5-14.7,2.4-29.9,4-44.8c1.6-15,2.7-29.8-1.7-44.5c-0.4-1.2-0.6-3.2,0-4
		c8.7-11.2,2.6-23.4,2.5-35.3c-0.1-8.4-4.1-17.8,4.1-24.9c0.5-0.4,0.4-1.9,0.1-2.8c-7.9-22.3,0.8-39.7,17.6-52.4
		c21.5-16.3,44.5-30.5,66.9-45.6c1.1-0.7,2.3-1.3,3.4-2.1c8-6.2,15.9-11.1,23.8,1.9c-4.6-7.7-10.5-13.4-1.5-21.5
		c7.5-6.9,10.2,2.1,14.4,2.5c2.7-1.7,4.9-4.5,7.2-4.5c38.7,0,75.3-8.1,110.9-30.7c-1.1,7.1-1.8,11.6-2.6,16.1c0.3,0.2,0.6,0.3,1,0.5
		c1.7-4,3.7-8,5.1-12.2c4-11.5,9.7-14.2,18.8-6.6c4.9,4,9,4,14.3,4.2c10.9,0.6,21.5,3,32.5,3.8c20,1.6,40.2,2.7,60.2,4
		c2.9,0.2,5.8,0.7,11.3,1.5c-24.5,39.7-13,79.4-2,119.4c-3.2,0.3-4.8,0.9-6.2,0.5c-24.9-7.2-44.9,2.6-61.6,20.2
		c-16.2,17.1-31.3,35.1-46.9,52.8c-1.6,1.7-3,3.6-4.7,5.2c-14.5,13.8-20.4,12.9-29.5-4.3c-1,0.1-1.9,0.2-2.9,0.3
		c1,6,0.5,12.8,3.2,17.8c4,7.6,12.6,11,19.6,7.6c11.1-5.5,22.3-12.3,30.8-21.1c19-19.9,36.1-41.5,54.3-62.2
		c10.3-11.9,23.3-15.1,37.8-9.9c2.8,1,5.6,4.9,6.4,8c1.2,4.5,0.9,9.5,1,14.2c0.1,21.6,0,43.3,0,66c-43-0.5-76.6,26.3-112.4,49.1
		c26-1.6,51-3.3,78.8-5c-19.3-6.3-36.2-6.3-54.2-4.4c6-3.3,11.8-7.2,18.2-9.6c18.1-7.1,36.2-14.4,54.9-19.7
		c11.6-3.3,23.9-2,31.5,10.6c0.2,0.3,0.4,0.6,0.7,0.7c19.3,9.7,15.8,26.8,13.6,43.7c-1,8-1.2,16.1,0.1,24.2c0.9-3.2,1.7-6.3,2.6-9.5
		c1-0.2,1.9-0.4,2.9-0.6c2.1,7.1,3.9,14.3,6.4,21.2c1.9,5.2,4.7,10.1,6.9,15.2c1.4,3.3,2.6,6.7,3.6,10.2c2.6,9.3,3.8,19.3,7.8,27.7
		c5.5,11.6,8.1,22.9,5.6,35.5c-1.9,9.4-0.4,17.9,4.1,26.5c2.7,5.4,2.8,12.3,3.9,18.5c2.3,13.4,4.6,26.8,6.6,40.2
		c1.6,10.1,2.9,20.1,4.1,30.3c1,7.8-1.1,12.2-9.9,14.1c-27.7,5.9-52.8,19-78,31.8c-44.5,22.7-91.9,28.1-140.9,21.5
		c-26.1-3.6-52.5-5.3-78.7-8.3c-2.7-0.3-6.8-3.2-7.3-5.5c-3.1-15.3-5.7-30.7-7.7-46.1C666.9,779,669.6,775,670.2,773.2z M669,659.5
		c11.1-6.1,11.5-6.6,21.3,2c10.5,9.3,21.3,18.6,29.8,29.8c11.4,15.2,20.5,32.1,30.8,48.4c14,22.3,36.5,28.3,58,13.6
		c9.9-6.9,19.1-16.1,25.9-26.1c25.1-36.6,36.2-79.2,43.9-122.5c1.9-10.8,3.9-18.1,16.4-15.1c0.2,0,0.6-0.9,0.9-1.4
		c-7.4-6.3-14.8-12.6-22.9-19.4c-0.5,7.3,7.4,13.9-1.7,19.8c-16.4,10.8-31.4,23.9-48.3,33.7c-35.2,20.2-73.1,29.2-113.4,22.2
		c-9.8-1.7-19.1-6.4-28.8-9.8C677.9,641.1,673.6,650.1,669,659.5z M706.5,546.2c-0.7-5.4-1.6-10.7-1.8-16.1c-0.1-3.4,1-6.7,1.2-10.1
		c3.6-46-13.7-83-46.2-113.3c-22.7-21.1-51-13.8-62.3,15.3c-7.6,19.4-5.2,38.9-1.5,58.4c5.7,30.5,18.5,57.5,42.1,77.6
		c-1.4,3.3-2.5,5.8-3.6,8.5C657.4,550.7,681.7,542.5,706.5,546.2z M612.4,356.4c0.3,0.4,0.6,0.8,0.9,1.2c1.7-1,3.5-1.8,5.1-3.1
		c14.4-10.6,18.8-11,32.1,0.9c9.9,8.9,18.4,19.4,27.8,28.9c4.4,4.6,8.7,10.3,17,6.9c-3.5-16.7-9.2-31.7-19.8-44.3
		c-19-22.2-36.8-22.1-55.7-0.1C617.1,350,614.8,353.2,612.4,356.4z M885.5,777.2c0.5,0.7,0.9,1.4,1.4,2.1
		c30.7-16.8,57.5-39.1,82.9-63.4C941.7,736.3,913.7,756.7,885.5,777.2z M813.8,764.9c-8.1,2.2-15.5,5.5-23.1,6.2
		c-7.7,0.7-15.6-1-23.6-1.7C784.3,784.7,804.2,782.8,813.8,764.9z M919.7,639.3c1,0.3,2,0.5,3,0.8c2.7-14.2,5.3-28.2,8-42.4
		c-0.8-0.2-1.6-0.3-2.4-0.5C925.4,611.3,922.5,625.3,919.7,639.3z M533.6,410.1c-0.7,0.7-1.4,1.5-2,2.2c5.9,5,11.8,10.1,18.4,15.7
		C552.7,412.7,537.6,417.3,533.6,410.1z M760.4,267c-0.6-0.4-1.1-0.8-1.7-1.2c-4.7,3.5-9.3,7-14.3,10.7c2.2,1.6,4.3,3.3,7.1,5.3
		C754.7,276.4,757.5,271.7,760.4,267z M663,289.5c8.9,10.1,13.8,11,18.3,3.1C675.2,291.6,669.3,290.6,663,289.5z"/>
	<path fill="#FFFFFF" d="M951.8,397.5c25.5,18.2,54.2,14.1,82.3,11.6c16.7-1.5,33.2-5.6,49.8-8.9c2.8-0.5,5.4-2.5,8.1-3.7
		c-0.2-1.1-0.5-2.1-0.7-3.3c-4.3,0.3-8.6,0.4-12.8,0.9c-28.2,3.1-56.3,6.7-84.6,8.9c-8.3,0.6-17-2.2-25.2-4.5
		c-21.3-5.6-29.2-31.2-29.7-53.8c0-1,0.1-2,0.2-3.1c1.1-23.6,1.8-25.1,23.6-22c45,6.2,89,2.2,132.4-10.6c7.5-2.2,14.5-6,21.6-9
		c-0.5-1.7-0.9-3.5-1.4-5.1c-4.4,0.7-9,0.9-13.2,2.2c-44.3,14-88.9,23.6-135.6,16c-20.1-3.4-22.6-5.2-21.6-26.6
		c1.3-28.3,9.9-52.4,38.2-63.4c10.8-4.3,22-6.5,33.5,0.5c-6.4,1-12.8,2-19.9,3.3c9.3,7.5,68.1-1.3,98.9-15.2
		c-2.5,0.2-5.1,0.2-7.6,0.7c-15.6,2.9-31.1,6.6-46.9,8.3c-7.5,0.8-15.4-3.1-23.1-3.7c-12.4-1-25.1-3-37.2-1.4
		c-20.2,2.6-35.2,20.4-39.7,44.3c-1.1,5.7-2.3,11.6-2.1,17.3c0.6,21.8-4,42.9-6.7,64.1c-1.7,13.5,5.5,28,8.3,42.2
		c0.9,4.5,1.7,9.9,0.2,14c-5.9,15.6-5.1,31.1-2,47.1c2.9,15,4,30.4,5.8,45.6c-1.3,0.7-2.6,1.4-3.9,2.1c-4.4-4-9.3-7.4-13-12
		c-12-15-13.3-33.1-12-51.4c2.3-31.4-3.8-61.6-10.4-92c-6.1-28.2-5.9-55.4,11.3-81.1c18.7-27.8,22.3-60.3,22.5-93.7
		c0.2-28-12-53-16.8-79.6c-2.4-13.6-2.8-27.7-1.9-41.5c0.8-12.7,7.5-22.8,18.3-30.1c23-15.6,50.9-17.6,70-2.9
		c19.1,14.8,28.6,36.2,33.8,59.7c8.5,38.5,0.4,75.2-11.4,111.4c-4.4,13.5-3,16.3,11.2,16.9c34.7,1.3,69.3,2.5,103.9,3.1
		c21,0.3,42.7,23.6,40.1,45.4c-1.3,10.4-4.3,20.5-7,30.7c-2.7,10.3-3.7,20.6,3.4,29.1c9.6,11.6,9.4,23.9,3.3,36.2
		c-6,12.1-14.2,22.8-20.8,34.6c-2.3,4.1-5.1,9.8-4,13.7c7.4,26.7-5.1,46.8-19.3,66.7c-1.7,2.4-4.1,5-4.4,7.7
		c-3.7,39.2-27,60.8-61.1,71.9c-35.3,11.5-70.3,9.4-104.7-4.7c-17.2-7-23.7-20.5-23.8-38.5c0-8.4,0-16.8,0-27.4
		c40.2,22,78.6,17.4,117.1,8.1c0-1.1,0.1-2.4,0.1-3.5c-4.3,0.2-8.6,0.4-12.9,0.6c-20.9,1.2-42.1,3.7-63,3.1
		c-10-0.3-20.8-4.6-29.5-10.1C941.6,451.4,938.1,415.2,951.8,397.5z"/>
	<path fill="#FFFFFF" d="M613.8,923.3c22.4,0,43.1-0.2,63.8,0.3c2.1,0,5.2,3.7,6,6.3c11.5,36.9,22.6,73.9,33.9,110.9
		c0.6,1.8,1.5,3.6,3.5,8.2c3.5-13.9,6.3-25.2,9.2-36.4c6.9-27.3,13.7-54.7,20.9-81.9c0.8-2.9,4.4-7,6.8-7.1
		c19.6-0.6,39.5-0.3,61.3-0.3c-5,14.2-9.4,26.7-14,39.3c-17,45.8-33.2,91.8-51.3,137.1c-12,29.9-25.8,59.9-52.6,79
		c-13.8,9.8-30.6,15.2-46.2,22.1c-6.4,2.9-10.5,0.1-12.1-7.2c-2.5-11.7-5.1-23.2-8.3-34.7c-1.9-6.7,0.5-9,6.3-10.8
		c16.5-5.2,30.6-14.1,41.1-28.6c4.7-6.5,5.4-12.7,2.4-19.9c-22.9-55.8-45.6-111.6-68.3-167.5C615.4,929.9,615,927.7,613.8,923.3z"/>
	<path fill="#FFFFFF" d="M333.1,985.5c-0.3-12.3-5.8-19.3-18.2-22c-18.6-4.1-36.8-1.3-54.4,5.7c-4.6,1.8-9.1,3.7-15.4,6.1
		c-3.5-12.2-7.1-23.6-9.9-35.4c-0.4-1.8,2.3-5.8,4.4-6.6c38-15.1,76.7-21.1,115.9-5.5c23.8,9.5,35.8,29.5,39.2,54.8
		c1.4,10.7,0.9,21.7,1.1,32.6c0.8,30.6,1.2,61.3,2.4,91.9c0.3,7.8-2,9.5-8.8,9.2c-9.9-0.4-19.7,0-29.8-0.1
		c-19.7-0.2-14.6,1.8-19.8-14.8c-12.3,5.6-24.2,12.9-37.1,16.7c-32.3,9.5-66.6-6-78.1-33.9c-12.5-30.1-0.3-64.1,28.5-80.2
		c21.7-12.3,45.6-15.4,69.9-16.9c2.6-0.2,5.3-0.2,7.9-0.5C331.4,986.6,331.9,986.1,333.1,985.5z M335.9,1040.9
		c0.1-16-0.7-17-16.3-14.5c-8.1,1.3-16.3,3.2-23.9,6.2c-11.8,4.9-17.2,18.6-13.1,30.5c3.2,9.5,15.9,15.6,27.3,13.2
		C327.2,1072.5,335.8,1060.8,335.9,1040.9z"/>
	<path fill="#FFFFFF" d="M63.3,1039.4c4.6,20.1,17.4,27.6,32.7,31.9c21.3,6,42.7,2,63.7-2.1c3.2-0.6,6.4-1.5,11.5-2.8
		c2.8,13.8,5.6,27.1,8.5,41.3c-32.7,12.3-65,15.5-98.2,10c-22.9-3.8-42.8-13.6-57.9-32.4c-35.8-44.7-25.6-144.1,52.2-163
		c38.9-9.4,77.1-1.5,98.8,33.1c14.7,23.3,17.4,49.5,14.5,76.6c-0.8,7.3-5.3,7.5-10.6,7.5c-33.4-0.1-66.8,0-100.1,0
		C73.8,1039.4,69.3,1039.4,63.3,1039.4z M132.2,996.7c-2.1-23.2-12.9-35.7-30.4-36.2c-21.1-0.7-34.2,11.6-38.1,36.2
		C86.4,996.7,108.9,996.7,132.2,996.7z"/>
	<path fill="#FFFFFF" d="M1072.4,1039.4c2.1,17.2,12.9,27.3,31,32c21.8,5.7,43.5,2.5,64.7-2.6c8.9-2,13-0.8,13.6,9.1
		c0.4,6,1.6,12.3,3.6,18c3.6,9.8,0.4,13.9-9.2,16.4c-28.5,7.5-57.4,11.2-86.4,5.6c-55.2-10.8-84.5-52-77.3-109.3
		c10.6-84.2,87.2-103.9,138.7-80.7c31.3,14.2,43,42.5,46.4,75.5c0.8,8.1,0,16.4,0.1,24.4c0.1,8.4-2.9,12-11.8,11.9
		c-34.1-0.5-68.1-0.2-102.1-0.2C1080.3,1039.4,1076.7,1039.4,1072.4,1039.4z M1072,996.8c23,0,45.3,0,67.5,0
		c1.4-19.8-10.7-35.1-28.4-36.3C1089.7,959.1,1073.9,973.2,1072,996.8z"/>
	<path fill="#FFFFFF" d="M1290,1039.4c1.2,15.9,12.6,27.1,30.4,31.8c21.7,5.7,43.4,3,64.6-2.4c8.7-2.1,13.9-2.1,14.2,9
		c0.1,5,1.7,10,2.8,15c3.4,16.3,3.5,16.3-12.3,20.1c-30.5,7.9-61.3,10.6-92.2,2.8c-46.3-11.8-71.8-50.3-67.5-103.4
		c6.8-83.5,83.1-109.9,139.6-84.5c29.1,13.1,41.2,40,45,71c1.2,9.7,0,19.7,0.4,29.6c0.3,8.6-3.5,11-11.4,11
		c-34.4-0.3-68.8-0.1-103-0.2C1297.1,1039.4,1293.6,1039.4,1290,1039.4z M1356.8,996.7c1.9-19.7-10.5-35.1-28.4-36.2
		c-21.2-1.3-38,14.2-38.3,36.2C1312.3,996.7,1334.5,996.7,1356.8,996.7z"/>
	<path fill="#FFFFFF" d="M1577,970.8c-13.4-3.1-25.5-6.2-37.7-8.5c-5.1-0.9-11-0.9-15.6,1c-4.6,2-9.9,6.6-11.1,11.1
		c-0.9,3.5,3.3,10.4,7,12.5c10.1,5.5,21.1,9.3,31.9,13.8c16.8,7.1,32.6,15.7,40,34.2c14.1,34.9-4.3,69.4-43.5,80.3
		c-31.2,8.6-62.1,6.2-92.6-5.1c-6.3-2.4-8.3-5.6-6.6-12.2c2.6-9.5,4.8-19.1,7.1-28.6c1.5-6,4.6-5.6,9.7-4c13.5,4.3,27.2,8.2,41,10.8
		c5.9,1.1,12.8,0.2,18.4-2.1c4.2-1.7,9.2-7,9.8-11.1c0.6-4.1-2.9-10.8-6.6-13.2c-7.1-4.6-15.8-6.6-23.6-10.4
		c-11-5.4-22.5-10.2-32.4-17.3c-32-22.9-22.6-66,0.2-84.4c22.7-18.3,48.9-20.9,76.2-17.9c10.4,1.2,20.5,4.5,30.9,6.7
		c6.3,1.4,7.7,5.2,5.9,11.4C1582.5,948.8,1579.9,959.8,1577,970.8z"/>
	<path fill="#FFFFFF" d="M449.7,1064.3c15.9,4.2,30.1,8.8,44.5,11.5c7.2,1.3,15.3,0.5,22.4-1.5c4.1-1.2,9.4-6.7,9.7-10.7
		c0.4-4.5-3-11.2-6.7-13.9c-6-4.4-13.7-6.5-20.7-9.2c-17.3-6.2-34-13.8-45.6-29.2c-12.4-16.6-11.9-44.5,0.4-61.2
		c18.5-25.1,44.9-31.6,73.1-30.8c15.3,0.4,30.5,5,45.6,8.6c2.4,0.6,5.9,5.9,5.4,8.4c-2.4,11.9-5.9,23.4-8.9,34.8
		c-13.3-3.1-25.6-6.6-38.2-8.5c-14.7-2.1-24.6,2.8-26.9,11.5c-2,7.4,4.1,13.5,19.3,19.8c12.5,5.2,25.6,9.4,37.3,16.2
		c37.1,21.4,36.7,75.4-0.5,97.2c-24.4,14.3-51.2,15.5-78.1,12c-12.3-1.6-24.4-5.8-36.3-9.7c-2.4-0.8-5.6-5.6-5.1-7.9
		C443,1088.6,446.6,1076.3,449.7,1064.3z"/>
	<path fill="#FFFFFF" d="M940.6,871.1c0,14.3,0.6,27.1-0.2,39.9c-0.7,10.2,3,13.2,12.3,12.3c7.9-0.7,15.9,0.1,23.8-0.2
		c5.3-0.1,7.9,1.4,7.7,7.6c-0.4,9.9-0.3,19.8,0,29.6c0.2,6.4-2.6,8.4-8.4,8.3c-8.9-0.2-17.9,0.2-26.8-0.1c-5.7-0.2-8.6,1.4-8.5,8
		c0.2,23.1-0.4,46.3,0.3,69.4c0.5,17.6,10.4,25.5,27.6,23.8c14-1.3,13.9-1.3,13.8,13.6c-0.1,8.2,0.3,16.5-0.4,24.4
		c-0.3,3.1-2.6,8-4.8,8.5c-20.7,4.8-41.9,7.1-62.4-1.2c-27.1-10.8-33.9-34.6-34.7-61c-0.8-24.9-0.5-49.8,0-74.6
		c0.2-8.7-2.7-11.9-10.8-10.8c-2.3,0.3-4.6-0.2-6.9,0c-6.3,0.4-9-2.4-8.8-9c0.3-9.2,0.4-18.4,0-27.5c-0.3-6.9,2.6-8.7,8.8-8.9
		c17.5-0.5,17.4-0.7,17.6-18.9c0.1-20.8-1.5-15.6,15.4-20.8C909.6,878.9,924.4,875.4,940.6,871.1z"/>
	<path fill="#FFFFFF" d="M786.3,702.9c2.3-2.9,4.6-5.7,6.8-8.7c0.3-0.4,0.1-1.3,0.2-2c3.5-26.9,15.9-34.6,40.8-24.7
		c4,1.5,8,3.3,11.7,5.4c1.3,0.7,1.7,3.1,2.4,4.7c-1.7,0.4-3.3,1.1-5,1.2c-0.9,0.1-1.8-0.8-2.7-1.2c-14.6-5.4-19.6-2.8-25.4,12.7
		c-4.9,13.3-11.9,25-24.6,32.1c-9.1,5.1-21.3,3.1-27.6-5.6c-1.4-1.9-2.2-5.1-1.7-7.4c1.9-8.9,4.4-17.8,6.9-26.5
		c3.1-10.8,10.9-16.4,18.8-12.7c2.1,1,4.1,5.6,3.6,8.1c-1.6,7.6-4.4,14.9-6.7,22.2C784.7,701.5,785.5,702.2,786.3,702.9z"/>
	<path fill="#FFFFFF" d="M873,594.9c1.8,19.3-0.7,24-15.2,32.2c-40.8,22.9-84.2,35.1-130.8,34.9c-11.5-0.1-22.7-1.8-32.6-10.2
		C765.1,669.7,819.9,635.9,873,594.9z"/>
	<path fill="#FFFFFF" d="M750.7,719.9c32.5,15.7,58.1,2.2,83.3-14.4c-6.2,24.1-37.9,49.8-66.2,38.7
		C758.2,740.5,753.9,732.3,750.7,719.9z"/>
	<path fill="#FFFFFF" d="M691,470.3c-1.5-1.2-3-2.4-4.4-3.7c-9-7.9-19.4-11.1-30.4-6.4c-11.3,4.8-16.7,14.9-18.2,27.2
		c-2.7,22.2,2,34,22,54.7c-12.7,12.9-16.1,13-27.4-0.2c-24.6-28.6-34-62.5-30.8-100.2c0.5-5.9,2.6-12.1,5.1-17.6
		c7.4-16.2,23.1-22,39.1-15.3c18.9,8.1,29.8,24.1,39.1,41.7c3.1,5.8,5.4,12.2,8,18.3C692.3,469.4,691.7,469.9,691,470.3z"/>
	<path fill="#FFFFFF" d="M689.9,508.1c0.2,9.5-5.6,17.3-13,17.4c-8.5,0.2-16-9.3-16.6-20.7c-0.5-9.3,5.4-17.2,13-17.3
		C681.9,487.4,689.6,497,689.9,508.1z"/>
</g>
</svg>
