<?xml version="1.0" encoding="utf-8"?>
<!-- Generator: Adobe Illustrator 18.0.0, SVG Export Plug-In . SVG Version: 6.00 Build 0)  -->
<!DOCTYPE svg PUBLIC "-//W3C//DTD SVG 1.1//EN" "http://www.w3.org/Graphics/SVG/1.1/DTD/svg11.dtd">
<svg version="1.1" id="Layer_1" xmlns="http://www.w3.org/2000/svg" xmlns:xlink="http://www.w3.org/1999/xlink" x="0px" y="0px"
	 viewBox="0.1 0 1599.9 1199.9" enable-background="new 0.1 0 1599.9 1199.9" xml:space="preserve">
<rect x="0.1" y="0" fill="none" width="1599.9" height="1199.9"/>
<g>
	<path fill="#FFFFFF" d="M867.1,220.2c0-73.4,0-145.8,0-218.5c-12.4,0-24.4,0-37.2,0c0,8.9,0,17.4,0,25.9c-4.3,0-7.9,0-12,0
		c0-8.9,0-17.5,0-25.8c-12.7,0-24.8,0-37.6,0c0,8.9,0,17.5,0,25.9c-4.7,0-8.6,0-13.2,0c0-8.8,0-17.4,0-25.9c-12.7,0-24.8,0-37.4,0
		c0,2.5,0,4.6,0,6.7c0,41.9,0.1,83.8,0,125.6c0,4.7,1.6,6.8,5.3,9c24.2,13.9,48.2,27.9,72.2,42C826.7,196.5,846.4,208.1,867.1,220.2
		z M651,62.3C579.5,116.4,509,169.8,438.6,223c0.3,0.6,0.5,1.2,0.8,1.8c59.3,9.9,118.5,19.9,178.1,29.8
		C628.6,190.6,639.7,127.1,651,62.3z M953.2,64.1c12.1,64.7,23.9,127.6,35.7,190.5c58.1-10.4,115.3-20.7,174-31.1
		C1092.5,170,1023.5,117.4,953.2,64.1z M345.2,522.3c27.1,85.6,53.6,169.6,80.6,255.1c26.6-54,52.5-106.8,78.7-160
		C451.8,585.9,399.2,554.5,345.2,522.3z M672.7,960.6c0.3,0.5,0.5,1,0.8,1.5c85,0,170.1,0,256.2,0c-42.2-40.3-83.6-79.8-125.4-119.7
		C760.2,882,716.5,921.3,672.7,960.6z M1103.9,618.8c22.9,52.8,45.6,105.4,68.3,157.9c0.6-0.1,1.2-0.2,1.8-0.2
		c27.2-84.9,54.3-169.7,81.6-255.1C1205,553.9,1154.7,586.2,1103.9,618.8z M453.4,397.3c54.7-44.7,108.4-88.6,163.6-133.6
		c-64.2-10.5-126.6-20.9-189.7-31.3C436,287.6,444.6,341.8,453.4,397.3z M1156.4,399.2c4.8-57.6,9.5-113.8,14.2-170.7
		c-59.2,11.4-117.5,22.7-177.7,34.2C1048,308.7,1101.7,353.5,1156.4,399.2z M585.6,827.1c-24.3-67.2-48-133.1-72.3-200.3
		c-27.8,54.6-54.8,107.9-82.1,161.7C482.8,801.5,533.6,814.2,585.6,827.1z M504.9,608.6c0.4-0.3,0.8-0.7,1.2-1
		c-19-65.6-37.9-131.3-57.2-197.6c-36.1,32.9-71.5,65.3-107.7,98.5C396.2,542.1,450.6,575.3,504.9,608.6z M1099.3,623.5
		c-27,67.1-53.4,132.7-80.3,199.6c50-11.5,98.6-22.7,147.8-34.1C1144.3,733.6,1122.1,679.4,1099.3,623.5z M1010.8,831.2
		c-66.7,2.2-131.9,4.4-197.3,6.6c-0.3,0.6-0.6,1.2-0.9,1.8c42.9,40,85.6,80,128.9,120.3C964.5,917.2,987.3,874.9,1010.8,831.2z
		 M796.7,840.1c-0.1-0.5-0.3-1-0.4-1.4c-67.1-1.6-134.2-3.1-202.3-4.7c22.2,42.4,43.8,83.7,65.8,125.3
		C705.8,919.3,751.2,879.6,796.7,840.1z M1255.9,510.9c-31.1-32.7-61.6-65-92.8-97.8c-19.9,65.3-39.5,129.5-59.2,193.7
		c0.4,0.2,0.8,0.4,1.2,0.6C1155,575.5,1205,543.6,1255.9,510.9z M867.6,239.3c-44.5,26.6-88.5,52.7-133.2,79.4
		c44.8,26.7,88.6,52.8,133.2,79.4C867.6,344.7,867.6,292.6,867.6,239.3z M862.8,407.2c-45-26.8-88.9-52.8-133-79.1
		c0,53.2,0,105.4,0,158.3C774.2,459.9,817.8,434,862.8,407.2z M729.5,309.6c44.7-26.7,88.5-52.7,133.2-79.4
		c-45-26.8-88.9-52.8-133.2-79.2C729.5,204.1,729.5,256.1,729.5,309.6z M423.1,246.1c-0.4,0-0.9-0.1-1.3-0.1
		c-26.3,83.4-52.4,166.7-79,251c1.7-1.5,2.7-2.4,3.7-3.3c32.2-29.4,64.4-59,96.8-88.3c3.9-3.4,4.8-6.5,4-11.5
		c-6.2-36.8-12-73.5-18-110.3C427.3,271.1,425.2,258.5,423.1,246.1z M1178.5,248.3c-0.5,3.9-0.9,6.2-1.2,8.5
		c-1.4,13.1-2.9,26.1-4,39.3c-3.3,34.4-6.3,68.8-9.6,103.2c-0.4,4.1,0.7,6.8,3.6,9.7c16.3,16.5,32.3,33.1,48.5,49.7
		c12.5,12.9,25.1,25.5,37.6,38.4c0.3-0.2,0.6-0.4,1-0.6C1229.3,414.4,1204.2,332.3,1178.5,248.3z M1156.4,801.1
		c-0.2-0.4-0.4-0.8-0.6-1.2c-45,9.9-90.2,19.8-135.2,29.9c-2,0.4-4.1,2.6-5.2,4.6c-10.7,19.7-21.1,39.4-31.7,59.2
		c-10,18.9-19.9,37.8-29.8,56.6c0.3,0.3,0.7,0.7,1,1C1022,901.1,1089.3,851.1,1156.4,801.1z M648,954.2c0.3-0.3,0.7-0.6,1-0.9
		c-1-2-1.9-4.1-3-6c-17.7-34.6-35.6-69.2-53.1-103.9c-2.4-4.6-5.3-6.8-10.1-8c-31.2-7.6-62.4-15.6-93.6-23.3
		c-13.5-3.4-27.2-6.6-40.7-9.9c-0.2,0.4-0.5,0.8-0.7,1.3C514.6,853.6,581.3,903.9,648,954.2z M61.5,1196.3c0.6-0.1,1.2-0.2,1.8-0.3
		c10.5-21.8,20.8-43.5,31.3-65.3c0.4,0.1,0.8,0.2,1.2,0.3c3,21.5,5.8,43,8.8,64.6c2.9,0,5.2,0,8.2,0c-4.2-30.9-8.5-61.6-12.7-92.1
		c-0.4-0.1-0.8-0.2-1.2-0.3c-11.9,25.1-23.9,50.1-36.3,76.3c-12.7-26.5-24.8-51.6-36.8-76.7c-0.5,0.1-1,0.3-1.5,0.4
		c-4.1,30.7-8.2,61.5-12.3,92.3c3.3,0,5.6,0,8.4,0c2.9-21.6,5.6-43,8.4-64.4c0.6-0.1,1.1-0.2,1.7-0.3
		C40.8,1152.9,51.1,1174.6,61.5,1196.3z M469,1118.6c-12.9-12.7-27.4-18.6-44.3-17.8c-20.1,0.9-37.4,14.2-43.7,33.6
		c-6.1,19.4,0.1,40.3,16,53.2c14.9,12.2,39.8,14.3,56.4,4.7c13.7-7.9,22.5-25.5,20.1-40.5c-12.3,0-24.7,0-37.2,0c0,2.9,0,5.4,0,8.5
		c9.5,0,18.7,0,27.8,0c0.5,0.5,1,1,1.4,1.5c-3,5.4-5.2,11.7-9.2,16.3c-8.9,10.5-20.8,12.7-33.7,10.9c-18.7-2.5-33.3-18.3-34.8-37.8
		c-1.4-17.6,10.6-34.8,28.2-40.1c15.6-4.6,29.5-0.5,42,9.7c1.4,1.2,2.9,2.3,4.4,3.6C464.7,1122.7,466.7,1120.8,469,1118.6z
		 M1587,1196.3c0.4-0.3,0.8-0.6,1.2-0.9c0-30.5,0-61.2,0-92c-2.8,0-5.3,0-8.8,0c0,23.3,0,46.4,0,70.9
		c-20.6-24.7-40.3-48.1-60.9-72.7c0,32.6,0,63.4,0,94.1c3,0,5.5,0,8.8,0c0-23.1,0-45.9,0-70.3
		C1547.8,1149.9,1567.3,1173.1,1587,1196.3z M620.2,1102.8c-0.6,0-1.2,0-1.8,0c-14,30.8-28,61.7-42.2,92.6c6.7,2,10.5,0,12.8-6.7
		c2.3-6.8,5.6-13.3,9-19.6c0.9-1.7,3.6-3.5,5.4-3.6c10.6-0.3,21.1-0.3,31.8,0c1.8,0,4.1,1.7,5,3.3c3.5,6.7,7,13.6,9.5,20.7
		c2.2,6.3,5.8,7.6,12,5.8C647.8,1164.4,634,1133.5,620.2,1102.8z M1369,1102.9c-0.6,0-1.3,0-1.9,0c-14,30.8-28,61.7-42,92.4
		c7.3,2.5,10.6-0.5,12.8-6.9c2.4-6.6,5.4-13,8.8-19.1c1-1.9,3.8-3.7,5.8-3.8c10.4-0.4,20.8-0.4,31.2,0c1.9,0.1,4.4,1.9,5.3,3.6
		c3.6,6.7,6.9,13.6,9.5,20.7c2.2,6.1,5.7,7.4,11.9,5.5C1396.7,1164.5,1382.9,1133.7,1369,1102.9z M223,1103.4c0,30.8,0,61.4,0,92.2
		c16.8,0,33.4,0,49.9,0c0-2.9,0-5.3,0-8.4c-13.9,0-27.5,0-41.2,0c0-12.7,0-24.7,0-37.4c14,0,27.6,0,41.1,0c0-3.1,0-5.5,0-8.6
		c-14,0-27.6,0-41.2,0c0-10,0-19.4,0-29.3c14.1,0,27.8,0,41.8,0c0-3.2,0-5.8,0-8.4C256.4,1103.4,239.9,1103.4,223,1103.4z
		 M1024.6,1195.8c0-14.4,0-28,0-41.7c0.7-0.5,1.4-1,2.1-1.6c1.1,1.8,1.8,3.9,3.2,5.5c9.9,11,20.2,21.8,29.8,33.2
		c4.4,5.3,9.2,5.3,15.5,4.2c-15.5-17.2-30.5-33.7-45.9-50.7c14.1-13.7,27.9-27.1,42.5-41.2c-6.8-0.9-11.8-0.6-16.3,4.4
		c-7.4,8.1-15.6,15.5-23.5,23.1c-2.1,2-4.2,4.1-7.5,7.3c0-12.8,0-23.6,0-34.8c-3.2,0-5.6,0-8.3,0c0,30.9,0,61.5,0,92.3
		C1018.8,1195.8,1021.2,1195.8,1024.6,1195.8z M1182.1,1103.4c0,31.2,0,61.8,0,92.3c14.4,0,28.3,0,42.4,0c0-2.9,0-5.5,0-8.7
		c-11.5,0-22.6,0-34.4,0c0-28.2,0-55.7,0-83.7C1187,1103.4,1184.7,1103.4,1182.1,1103.4z M893.1,1103.3c0,30.9,0,61.5,0,92.3
		c2.9,0,5.3,0,7.8,0c0-30.9,0-61.5,0-92.3C898.4,1103.3,896.1,1103.3,893.1,1103.3z"/>
	<path fill="#FFFFFF" d="M867.1,220.2c-20.6-12.1-40.4-23.7-60.1-35.3c-24.1-14.1-48.1-28.1-72.2-42c-3.8-2.1-5.3-4.3-5.3-9
		c0.2-41.9,0.1-83.8,0-125.6c0-2.1,0-4.2,0-6.7c12.6,0,24.7,0,37.4,0c0,8.5,0,17.1,0,25.9c4.6,0,8.5,0,13.2,0c0-8.4,0-17,0-25.9
		c12.8,0,24.9,0,37.6,0c0,8.3,0,16.9,0,25.8c4.2,0,7.7,0,12,0c0-8.4,0-17,0-25.9c12.8,0,24.8,0,37.2,0
		C867.1,74.4,867.1,146.8,867.1,220.2z"/>
	<path fill="#FFFFFF" d="M651,62.3c-11.3,64.8-22.4,128.3-33.6,192.3c-59.6-9.9-118.8-19.9-178.1-29.8c-0.3-0.6-0.5-1.2-0.8-1.8
		C509,169.7,579.5,116.3,651,62.3z"/>
	<path fill="#FFFFFF" d="M953.2,64.1c70.3,53.4,139.4,105.9,209.8,159.3c-58.7,10.5-115.9,20.8-174,31.1
		C977.1,191.6,965.2,128.7,953.2,64.1z"/>
	<path fill="#FFFFFF" d="M345.2,522.3c53.9,32.2,106.5,63.6,159.4,95.1c-26.2,53.2-52.1,106-78.7,160
		C398.9,691.9,372.3,607.9,345.2,522.3z"/>
	<path fill="#FFFFFF" d="M672.7,960.6c43.7-39.3,87.5-78.6,131.6-118.2c41.8,39.9,83.3,79.4,125.4,119.7c-86.1,0-171.1,0-256.2,0
		C673.2,961.6,672.9,961.1,672.7,960.6z"/>
	<path fill="#FFFFFF" d="M1103.9,618.8c50.9-32.6,101.1-65,151.7-97.4c-27.3,85.4-54.4,170.2-81.6,255.1c-0.6,0.1-1.2,0.2-1.8,0.2
		C1149.5,724.3,1126.8,671.7,1103.9,618.8z"/>
	<path fill="#FFFFFF" d="M453.4,397.3c-8.8-55.5-17.4-109.8-26.2-164.8c63.2,10.4,125.5,20.7,189.7,31.3
		C561.8,308.8,508.1,352.7,453.4,397.3z"/>
	<path fill="#FFFFFF" d="M1156.4,399.2c-54.7-45.6-108.4-90.5-163.4-136.5c60.1-11.5,118.5-22.8,177.7-34.2
		C1165.9,285.4,1161.3,341.5,1156.4,399.2z"/>
	<path fill="#FFFFFF" d="M585.6,827.1c-51.9-13-102.7-25.6-154.4-38.5c27.4-53.8,54.3-107.1,82.1-161.8
		C537.5,694,561.3,759.9,585.6,827.1z"/>
	<path fill="#FFFFFF" d="M504.9,608.6c-54.3-33.2-108.7-66.5-163.8-100.1c36.3-33.2,71.7-65.5,107.7-98.5
		c19.2,66.4,38.2,132,57.2,197.6C505.7,607.9,505.3,608.3,504.9,608.6z"/>
	<path fill="#FFFFFF" d="M1099.3,623.5c22.8,55.8,44.9,110.2,67.5,165.4c-49.3,11.3-98,22.6-147.8,34.1
		C1045.9,756.2,1072.4,690.6,1099.3,623.5z"/>
	<path fill="#FFFFFF" d="M1010.8,831.2c-23.5,43.6-46.3,85.9-69.3,128.8c-43.2-40.4-86-80.3-128.9-120.3c0.3-0.6,0.6-1.2,0.9-1.8
		C878.9,835.6,944.2,833.5,1010.8,831.2z"/>
	<path fill="#FFFFFF" d="M796.7,840.1c-45.4,39.6-91,79.1-136.9,119.2c-21.9-41.7-43.6-83-65.8-125.3c68,1.6,135.1,3.2,202.3,4.7
		C796.4,839.2,796.5,839.6,796.7,840.1z"/>
	<path fill="#FFFFFF" d="M1255.9,510.9c-50.9,32.5-100.8,64.6-150.8,96.6c-0.4-0.2-0.8-0.4-1.2-0.6c19.7-64.3,39.2-128.6,59.2-193.7
		C1194.1,446,1224.8,478.2,1255.9,510.9z"/>
	<path fill="#FFFFFF" d="M867.6,239.3c0,53.3,0,105.5,0,158.8c-44.5-26.5-88.4-52.7-133.2-79.4C779.3,292,823.1,265.9,867.6,239.3z"
		/>
	<path fill="#FFFFFF" d="M862.8,407.2c-45.1,26.8-88.7,52.8-133,79.2c0-52.9,0-105.1,0-158.3C773.9,354.3,817.8,380.4,862.8,407.2z"
		/>
	<path fill="#FFFFFF" d="M729.5,309.6c0-53.5,0-105.6,0-158.7c44.4,26.4,88.2,52.4,133.2,79.2C818,256.8,774.2,283,729.5,309.6z"/>
	<path fill="#FFFFFF" d="M423.1,246.1c2.1,12.6,4.1,25,6.2,37.6c5.9,36.8,11.9,73.5,18,110.3c0.8,5-0.2,8.1-4,11.5
		c-32.4,29.2-64.6,58.8-96.8,88.3c-1,0.9-2,1.8-3.7,3.3c26.6-84.4,52.7-167.6,79-251C422.3,246,422.8,246,423.1,246.1z"/>
	<path fill="#FFFFFF" d="M1178.5,248.3c25.6,84,50.7,166.1,75.7,248.3c-0.3,0.2-0.6,0.4-1,0.6c-12.5-12.8-25.2-25.5-37.6-38.4
		c-16.2-16.6-32.2-33.3-48.5-49.7c-2.9-2.9-4-5.7-3.6-9.7c3.3-34.4,6.4-68.8,9.6-103.2c1.2-13.1,2.7-26.2,4-39.3
		C1177.6,254.5,1178,252.2,1178.5,248.3z"/>
	<path fill="#FFFFFF" d="M1156.4,801.1c-67.2,50-134.3,100-201.6,150c-0.3-0.3-0.7-0.7-1-1c10-18.9,19.9-37.8,29.8-56.6
		c10.5-19.8,20.9-39.5,31.7-59.2c1.1-2,3.3-4.1,5.2-4.6c45-10.1,90.2-20,135.2-29.9C1156,800.3,1156.2,800.7,1156.4,801.1z"/>
	<path fill="#FFFFFF" d="M648,954.2c-66.7-50.3-133.4-100.6-200.1-150.9c0.2-0.4,0.5-0.8,0.7-1.3c13.5,3.3,27.2,6.5,40.7,9.9
		c31.2,7.7,62.4,15.7,93.6,23.3c4.7,1.2,7.7,3.4,10.1,8c17.6,34.8,35.4,69.3,53.1,103.9c1,2,2,4,3,6
		C648.7,953.7,648.3,954,648,954.2z"/>
	<path fill="#FFFFFF" d="M61.5,1196.3c-10.4-21.7-20.7-43.5-31.2-65.2c-0.6,0.1-1.1,0.2-1.7,0.3c-2.8,21.4-5.6,42.8-8.4,64.4
		c-2.8,0-5.2,0-8.4,0c4.1-30.9,8.2-61.6,12.3-92.3c0.5-0.1,1-0.3,1.5-0.4c12,25.1,24.1,50.1,36.8,76.7
		c12.4-26.2,24.4-51.2,36.3-76.3c0.4,0.1,0.8,0.2,1.2,0.3c4.2,30.5,8.5,61.1,12.7,92.1c-3,0-5.3,0-8.2,0c-3-21.6-5.8-43.1-8.8-64.6
		c-0.4-0.1-0.8-0.2-1.2-0.3c-10.5,21.8-20.8,43.5-31.3,65.3C62.8,1196.2,62.1,1196.2,61.5,1196.3z"/>
	<path fill="#FFFFFF" d="M469,1118.6c-2.4,2.3-4.2,4.1-6.4,6.3c-1.6-1.3-3-2.4-4.4-3.6c-12.5-10.2-26.4-14.4-42-9.7
		c-17.7,5.2-29.6,22.5-28.2,40.1c1.5,19.5,16.1,35.3,34.8,37.8c12.8,1.7,24.8-0.4,33.7-10.9c4-4.6,6.1-10.8,9.2-16.3
		c-0.5-0.5-1-1-1.4-1.5c-9.2,0-18.4,0-27.8,0c0-3.2,0-5.7,0-8.5c12.5,0,24.9,0,37.2,0c2.4,15-6.4,32.5-20.1,40.5
		c-16.6,9.5-41.5,7.4-56.4-4.7c-15.9-13-22.1-33.8-16-53.2c6.1-19.5,23.4-32.7,43.7-33.6C441.6,1100,456.1,1105.9,469,1118.6z"/>
	<path fill="#FFFFFF" d="M1587,1196.3c-19.6-23.2-39.1-46.4-59.7-70.9c0,24.4,0,47.2,0,70.3c-3.3,0-5.8,0-8.8,0
		c0-30.7,0-61.4,0-94.1c20.6,24.7,40.3,48.1,60.9,72.7c0-24.5,0-47.6,0-70.9c3.4,0,5.9,0,8.8,0c0,30.8,0,61.5,0,92
		C1587.8,1195.7,1587.4,1196,1587,1196.3z"/>
	<path fill="#FFFFFF" d="M620.2,1102.8c13.8,30.7,27.7,61.5,41.6,92.5c-6.2,1.8-9.9,0.5-12-5.8c-2.5-7.1-6-14-9.5-20.7
		c-0.8-1.6-3.3-3.2-5-3.3c-10.6-0.3-21.2-0.3-31.8,0c-1.9,0.1-4.4,1.9-5.4,3.6c-3.4,6.3-6.7,12.9-9,19.6c-2.3,6.7-6,8.7-12.8,6.7
		c14.1-30.9,28.1-61.8,42.2-92.6C619,1102.8,619.6,1102.8,620.2,1102.8z M619.3,1122.1c-5.4,12.1-10.3,22.7-15.4,33.9
		c10.6,0,20.2,0,30.8,0C629.5,1144.7,624.7,1134,619.3,1122.1z"/>
	<path fill="#FFFFFF" d="M1369,1102.9c13.8,30.7,27.7,61.6,41.5,92.4c-6.1,1.9-9.7,0.6-11.9-5.5c-2.6-7.1-6-14-9.5-20.7
		c-0.9-1.7-3.5-3.5-5.3-3.6c-10.4-0.3-20.8-0.4-31.2,0c-2.1,0.1-4.8,1.9-5.8,3.8c-3.4,6.1-6.4,12.5-8.8,19.1
		c-2.3,6.3-5.6,9.4-12.8,6.9c13.9-30.7,27.9-61.6,42-92.4C1367.8,1102.9,1368.4,1102.9,1369,1102.9z M1352.7,1156
		c10.6,0,20.2,0,30.7,0c-5.1-11.3-10-22-15.4-33.9C1362.6,1134.1,1357.9,1144.9,1352.7,1156z"/>
	<path fill="#FFFFFF" d="M223,1103.4c16.9,0,33.5,0,50.4,0c0,2.6,0,5.2,0,8.4c-13.9,0-27.7,0-41.8,0c0,9.9,0,19.3,0,29.3
		c13.6,0,27.2,0,41.2,0c0,3.1,0,5.5,0,8.6c-13.4,0-27.1,0-41.1,0c0,12.7,0,24.6,0,37.4c13.6,0,27.3,0,41.2,0c0,3.1,0,5.6,0,8.4
		c-16.6,0-33.1,0-49.9,0C223,1164.9,223,1134.3,223,1103.4z"/>
	<path fill="#FFFFFF" d="M1024.6,1195.8c-3.4,0-5.7,0-8.5,0c0-30.8,0-61.4,0-92.3c2.7,0,5.1,0,8.3,0c0,11.1,0,22.1,0,34.8
		c3.3-3.2,5.4-5.2,7.5-7.3c7.9-7.6,16.1-15,23.5-23.1c4.5-5,9.5-5.3,16.3-4.4c-14.5,14.1-28.3,27.5-42.5,41.2
		c15.4,17,30.4,33.5,45.9,50.7c-6.3,1.1-11.1,1.2-15.5-4.2c-9.6-11.4-19.8-22.1-29.8-33.2c-1.4-1.5-2.2-3.6-3.2-5.5
		c-0.7,0.5-1.4,1-2.1,1.6C1024.6,1167.8,1024.6,1181.4,1024.6,1195.8z"/>
	<path fill="#FFFFFF" d="M1182.1,1103.4c2.6,0,4.9,0,8,0c0,27.8,0,55.4,0,83.7c11.8,0,22.9,0,34.4,0c0,3.2,0,5.8,0,8.7
		c-14,0-27.9,0-42.4,0C1182.1,1165.2,1182.1,1134.6,1182.1,1103.4z"/>
	<path fill="#FFFFFF" d="M893.1,1103.3c3,0,5.2,0,7.8,0c0,30.7,0,61.3,0,92.3c-2.5,0-5,0-7.8,0
		C893.1,1164.9,893.1,1134.3,893.1,1103.3z"/>
	<path fill="#FFFFFF" d="M619.3,1122.1c5.4,12,10.3,22.6,15.4,33.9c-10.6,0-20.1,0-30.8,0C609,1144.8,613.8,1134.1,619.3,1122.1z"/>
</g>
</svg>
