<?xml version="1.0" encoding="utf-8"?>
<!-- Generator: Adobe Illustrator 18.0.0, SVG Export Plug-In . SVG Version: 6.00 Build 0)  -->
<!DOCTYPE svg PUBLIC "-//W3C//DTD SVG 1.1//EN" "http://www.w3.org/Graphics/SVG/1.1/DTD/svg11.dtd">
<svg version="1.1" id="Layer_1" xmlns="http://www.w3.org/2000/svg" xmlns:xlink="http://www.w3.org/1999/xlink" x="0px" y="0px"
	 viewBox="0.1 0 1599.9 1199.9" enable-background="new 0.1 0 1599.9 1199.9" xml:space="preserve">
<rect x="0.1" y="0" fill="none" width="1599.9" height="1199.9"/>
<g>
	<path fill="#FFFFFF" d="M1130.3,962.1c8.6-8.2,19.3-14.5,17.2-29.4c-0.9-6.4-2.9-9.5-8.7-11.3c-13.8-4.2-27.4-8.7-41-13.4
		c-4.9-1.8-9.3-4.7-14.8-7.5c1.4-2.1,2.1-3,2.7-4.1c8.9-15.4,8.4-17.9-5.1-29.1c-5.6-4.7-11.2-9.5-16.8-14.4c-0.8-0.7-1.3-1.5-2-2.3
		c8.7-14.3,22.5-20.2,42.9-14.6c98.2,27,195.5,56.8,284.7,107.7c11.3,6.5,21.6,14.6,32.1,22.4c3.9,3,7.2,7.1,9.9,11.2
		c8.5,12.5,6.4,22.7-6.4,30.7c-19.8,12.2-42.2,14.5-64.6,16.2c-72,5.8-143.9,3-215.6-5.3c-72.5-8.5-145.2-16-217.3-27.1
		c-127.8-19.7-254-47.2-378.4-82.6c-93.7-26.7-186.2-57-276.2-94.3c-51.1-21.1-99.3-48.3-143.8-81.5C117.9,725,107.8,715,97.9,705
		c-5-5-8.5-11.5-14.4-19.9c242.4,0.5,478.8,25.4,715.7,74.1c-7.1,1.7-12,2.7-16.6,4.1c-7.7,2.4-15.8,3.9-22.5,8
		c-5.1,3-10.3,9-11.5,14.5c-0.8,3.6,5.7,8.7,9,13.4c-1.1,0.2-3.9,0.2-6.3,1.3c-3.9,2-9.9,4-10.8,7.2c-2,7.2,2.2,13.7,9.5,15.4
		c9,2.2,18.4,2.7,29.3,4c-4.6,3-8.5,5.6-12.3,8.2c4.5,11.7,13.9,17.3,27.2,13.3c12-3.6,22.9-10.3,34.4-15.5c3-1.4,6.2-2.2,11.2-3.8
		c-0.1-1.5-0.5-5.1-0.9-9.7c-21,11.4-37,35.9-66.9,18.8c11.4-7.2,21.6-13.7,31.9-20.1c-0.2-0.8-0.5-1.6-0.7-2.4
		c-9.4,1.5-18.9,3-28.4,4.4c-3.9,0.6-8,1.2-12,1.2c-10.9,0.1-14.3-3.2-15.8-15.6c12.8-2.1,25.6-4.2,38.5-6.3c0-1.2,0-2.3,0-3.4
		c-10.5-1.5-21-2.9-31.6-4.3c2.8-14.9,2.8-14.9,26.5-15.2c-3.4-2.1-5.6-3.4-7.8-4.7c-0.1-0.8-0.1-1.7-0.2-2.5
		c19.3-1.1,38.5-2.3,58.5-3.3c-0.8,4-1.5,7.5-2.6,12.5c4.4-0.9,8.1-1.7,12.2-2.6c0,5.2,0,10.3,0,17.8c3.9-4.7,6.7-8,9.8-11.6
		c2,2.8,3.8,5.3,7.7,10.6c2-3.4,3.3-5.8,4.9-8.7c12.1,7.2,9.5,18.8,8.9,29.5c-0.6,9.3-3,18.6-3.2,27.8c-0.1,11.3-8.3,10.7-15.2,11.7
		c-6.9,1-14,0.8-14-9.7c-4.6,9-3.4,11.7,5.3,12.7c4.6,0.5,9.3,0.4,14,0.1c9.1-0.7,13.5-4.3,14.3-15c1.4-18.6,5.7-37,8.7-55.4
		c0.8-4.7,2.8-7.5,8-6.1c31.1,8,62.3,15.7,93.2,23.9c5.1,1.4,9.7,4.3,16.2,7.4c-9.7,6.9-18.4,13-27,19.2c0.4,0.8,0.9,1.7,1.3,2.5
		c2.4,0.2,4.7,0.4,6.8,0.5c-4.8,23.8-12.6,47-6.1,71.5c3.7,14.2,3.6,14.2,17.9,11.9c1.3-0.2,2.7,0,4.4,0c0,2.4,0.2,4.6,0,6.9
		c-1.9,16.3,2.9,30.4,13.8,42.5c6,6.8,12.3,13.3,17.8,20.5c4.1,5.2,7.5,10.3,15.4,7.5c8.1-2.9,13.3-7.9,14.2-16.4
		c0.6-5.9,0.1-12,0.1-20.5c9.5,4.5,17.6,8.9,26.1,12.1c9,3.3,18.1,6.4,27.4,7.9c7.1,1.2,12.8-2.8,15.1-10.2
		C1127.8,964.6,1129,963.3,1130.3,962.1z"/>
	<path fill="#FFFFFF" d="M441.9,550.7c-14.9-7.8-15.8-7.6-22.9,3.7c-3-5.7-6.6-11.4-8.9-17.6c-1-2.8-0.2-7,1.2-9.7
		c45.2-89.4,112.7-157.4,200.1-205.8c87-48.3,180.9-69.9,279.9-66.5c77.1,2.7,151.1,20.3,220.4,55.1c2.4,1.2,4.8,2.4,7.2,3.6
		c0.6,0.3,0.9,1,2.4,2.6c-14.1,8.6-27,21.3-41.8,24.4c-21,4.3-32.7,19.7-48.7,29.6c-2.3,1.4-4.6,2.4-8.1,4.1
		c0.2-3.6,0.3-6.2,0.4-8.8c-1.2-1-2.4-2-3.5-3c-4.9,7.9-9.8,15.7-14.8,23.6c-1.4-1-2.9-2.1-4.2-3c-3.1-5-6.3-10.1-10.2-16.4
		c-2.5,4.5-3.9,7.4-6,11.1c-4.5-5.5-8.7-10.5-12.8-15.5c-0.3,0.9-0.6,1.8-0.9,2.7c-4.4,0-9.5,1.5-13.2-0.3
		c-14-6.4-27.4-13.8-41.5-21c-0.5,1.6-1,3.2-1.9,5.9c-3-1.5-5.8-3-8.8-4.3c-3.4-1.5-7.9-6.4-9.3,2.1c-0.1,0.8-3.6,1.4-5.5,1.3
		c-27-0.9-51.2,10.2-76.4,17.3c-10.9,3-22.1,5.4-32.8,9.3c-7,2.6-13,8.2-21.4,5.6c-0.6-0.2-2.5,3.8-4,6.5
		c-12.8-3.7-25.6-8-38.5-11.1c-6.7-1.7-14-3-20.7-2.1c-10.1,1.2-14.2,9.9-9.9,18.4c-11.7,3.4-16.8,11.4-16.1,24
		c0.4,6.2,2.8,9,9.4,8.2c5.6-0.7,11.3-0.1,16.9-0.1c0.2,1.1,0.4,2.2,0.6,3.2c-5.4,2.3-10.7,4.6-16.1,6.7
		c-10.9,4.2-12.3,10.4-4.3,18.7c6.4,6.6,12.8,10.3,21.5,3.7c2.5-1.9,5.9-2.4,11.8-4.6c-3.3,4.8-4.5,7.7-6.7,9.2
		c-7.6,5.7-4.6,10.5,0.6,15.4c9.9,9.3,21.4,8.1,29.7-3c2.5-3.2,5.6-6.1,8.7-9.4c4.7,8.6,20.3,15.2,28.4,12.8
		c1.9-0.6,3.6-2.6,4.8-4.3c1.1-1.6,1.6-3.7,1.8-5.7c1-16.9,5.9-30.8,20.8-41.9c8.6-6.5,17-9.9,26.7-13.4
		c22.9-8.3,46.2-14.2,70.6-12.5c8.9,0.6,17.8,3,26.3,5.8c3.9,1.4,6.8,6,8.9,10.9c7,2.3,14.3,3.9,20.9,6.9c9.6,4.3,9.9,12.2,1.5,18
		c-1.3,0.9-2.4,3.3-2.3,5c1,15.2,1.1,30.7,4,45.5c1.6,7.8,0.8,13.3-4.3,17.9c-7,6.2-14.9,11.3-22.1,17.2c-5.1,4.1-9.7,8.7-14.7,13
		c0.7,1.2,1.5,2.4,2.2,3.5c15.8-7.8,31.8-15.5,49.8-24.4c-8,18.1-22.9,31.9-18.9,49.2c-3.9,4.7-6.4,7.7-9.5,11.5
		c-2.8-1.4-6.8-3.3-8.5-4.2c-5.1,2.3-8.4,3.6-11.5,5.1c-4.6,2.1-9,5.4-13.9,6c-30.9,3.7-61.9,6.8-90,9.8c-4.1,5.2-6.7,9.8-10.4,12.8
		c-9,7.1-20.2,11.7-26.1,24.3c3.8-0.3,6.3-0.5,8.6-0.7c3.9,8.9-12.9,16.9-0.5,27.4c0,3.3,0,8.5,0,15.7c4.5-3.6,7.5-5.9,11.5-9.1
		c-1.1,11.8-2,22.3-2.9,32.9c1.2,0.5,2.5,1.1,3.6,1.6c1.3-2.7,2.6-5.4,4.5-9.4c9.2,17.2,17.4,31.9,25.2,46.8c2,3.7,3.5,8.4,3.2,12.4
		c-0.5,6.2-4.2,10.8-11.4,9c-16.8-3.9-33.3-9.5-50.4-12.3c-97.5-15.7-195-31.4-292.6-46c-33.4-5-67.3-7.5-100.9-10.5
		c-7.7-0.7-9.9-3-8.6-10.4c2.8-15.4,4.7-31.1,7.5-46.6c0.8-4.2,3.2-8.2,5.6-13.8c2.5,2.9,3.4,3.9,4.3,5.1c6.3,8.3,13.6,8.6,19.3-0.3
		c3.3-5.2,5-11.6,7.3-17.5c2.2-5.8,3.9-11.7,8-17.4c0,6.5-0.4,13,0.1,19.4c0.4,4.9,1.2,10.1,3.2,14.6c3.6,8,9.3,8.9,14.3,1.6
		c3.5-5.3,5.2-12.1,6.7-18.5c2.1-8.4,0.9-18.5,5.4-25.1c4.2-6.1,13.9-8.6,21.5-12.8c-1.5,9.8-3.2,19.5-4.2,29.3
		c-0.6,5.2-0.1,10.6,0.5,15.9c0.8,8.6,5,14.5,14,16c9.4,1.7,17.7-1.7,20.4-10.5c3.6-12,5.5-24.6,7.1-37.1c1.1-8.2,0.2-16.6,0.2-22.1
		c7.8-3.7,16.9-5.2,18.8-9.6c4.6-11.2,3.6-23.1-9.1-31.4c4.9-4.7,9.4-8.6,13.5-12.9c9.1-9.7,6.8-19.7-5.6-24.2
		c-21-7.7-42.5,4.8-45.5,26.4c-14.4,6.8-17.2,20.3-7.6,33.2c2.3,3,2.4,7.7,3.3,11.2c-5.3-5.7-9.2-13.2-15-15.2
		C450.9,534.6,445.7,543,441.9,550.7z M648.2,573.3c-6-8.9-12.9-19-19.8-29.2c-6.4-9.7-15.4-12-26.4-9.8c-4.9,1-10.1,2.9-14.8,2
		c-7.2-1.4-9.6,2.4-12,7.5c-3.2,7.3-6.9,14.6-9.6,22c-5.9,16.5-9.6,33.3-7,51.1c1.3,8.5,5,12.6,14,14.1c8.9,1.5,10.3-4.7,12.7-9.7
		c2.6-5.4,4-11.3,5.8-17c4-13.4,7.8-27,11.9-40.3c0.6-2.1,2.6-3.7,5-7.1c0.7,4.3,1.2,6.3,1.4,8.3c1.2,16,1.8,32.1,3.7,48
		c2.1,16.3,5.6,18.8,21.7,19.1c1.1,0,2.2,0.8,3,1.1c-4.5,6.9-9.6,12.9-12.6,19.8c-9.5,22-4,32.2,19.8,35.6
		c31.7,4.5,60.5-3.7,86-22.8c15.8-11.9,23.8-28.6,25.2-48.4c2.6-38.9-10-73.1-32-104.5c-1.7-2.4-4.8-4.4-7.7-5.1
		c-7.8-1.9-15.7-2.5-23.5-4.2c-13.9-3.2-23.3-0.4-31.5,11.3c-3.5,5.1-6.8,11.1-8,17.1C651,546.4,649.8,560.9,648.2,573.3z
		 M561.2,553.3c-0.7-0.1-1.4-0.2-2.1-0.4c0-4.3,0.6-8.9-0.2-13c-0.6-3-3.1-5.7-4.7-8.6c-3,2.1-7.5,3.4-8.6,6.3
		c-9.1,23.6-18.3,47.4-26.2,71.5c-2.8,8.4-3.6,18.1-2.4,26.7c0.8,5.4,6.5,11.8,11.6,14.1c2.7,1.2,9.3-5,13.3-8.9
		c2.5-2.4,3.7-6.4,4.4-9.9C551.4,605.2,556.3,579.2,561.2,553.3z M549.7,521.9c11.2-0.3,19.3-10.6,19-21.9
		c-0.2-7.9-4.9-10.5-11.7-10.5c-9.1,0-18.6,10.5-18.4,20.3C538.7,518,543.3,521.7,549.7,521.9z"/>
	<path fill="#FFFFFF" d="M84.8,709.3c34.3,41.5,81.1,65.4,127.2,89.9c84.6,45.1,174.9,75.4,266.6,102.1
		c106,30.8,212.5,60.3,320.9,81.6c67,13.2,134.6,23,202,33.3c50,7.7,99.9,15.8,150.2,20.2c56.7,4.8,113.6,7.4,170.5,7.4
		c30.1,0,60.3-7,90.4-11.5c6.5-1,12.7-4.1,18.7-7c19.1-9.1,23.7-17.7,21.4-38.1c13.5,13,11.7,35-4.1,46.5
		c-16.8,12.2-36.8,15.5-56.7,18.6c-48.2,7.5-96.7,8.6-145.3,4.3c-11.6-1-19.9,2.2-28.8,9.7c-80.1,68.6-173.1,108-277.5,121
		c-22.9,2.9-46,6-69,5.2c-161.1-5.1-298.7-61.7-404.2-187.2c-27.2-32.5-49.4-68.4-65.8-107.6c-3-7.4-7.7-11.7-15.3-14.5
		c-71.8-25-142.5-52.8-207.6-92.7c-20-12.2-39.4-25.3-58.4-39C104.9,740.7,93.6,725.8,84.8,709.3z"/>
	<path fill="#FFFFFF" d="M1156.1,793.3c0-8.4-0.3-16.6,0.2-25c0.2-3.1,2.3-6.2,3.5-9.2c0.9,0,1.8,0.1,2.7,0.1
		c-4-8.7-8.1-17.4-12.5-27c3.2,0.4,5.4,0.6,8.6,1c-4.7-14.6-17.9-26.6-11.3-43.8c15.4,1.4,8.2-15.8,17.5-20.8
		c1.7,1.9,3.6,4.1,7.8,8.8c0-11.5,0-20.3,0-30.6c3.9,1.8,6.3,2.9,10.9,5c-2.5-7.4-4.3-12.9-6.4-19.3c5.7-3.4,11.7-7,17.6-10.6
		c8.8-5.3,17.6-9.7,22.2-20.6c2.6-6,10.8-9.4,16.3-14.3c4-3.5,10.4-6.1,5.9-13.6c-0.5-0.8,0.8-3,1.7-4.3
		c17.2-25.6,34-51.3,51.8-76.4c27.1-38.4,65.3-53.9,111.5-51.4c15.1,0.8,23.5,6.8,24.7,16.7c-42.7-6.2-82.8-3-114.2,33.4
		c78.2,134.1,87.4,273.3,25.4,416.5c-71.9-26.2-142.6-51.9-213.8-77.8c0.8-2.9,1.7-6,2.8-10c2.8,1.3,5.2,2.5,8.6,3.9
		c3.6-12.4,7-24.1,10.4-35.9c0.9-0.4,1.8-0.8,2.7-1.3c1.1,3,2.2,5.9,3.2,8.9C1154.6,794.8,1155.3,794.1,1156.1,793.3z"/>
	<path fill="#FFFFFF" d="M941.7,523.2c5.4-5.2,10.2-11.2,16.3-15.4c5.8-4.1,5.1-8.1,3.3-13.7c-3.1-9.7-5.5-19.8-8-29.8
		c-0.3-1.4,0.6-3,0.9-3.9c4.5,2,8.6,3.2,12.1,5.4c2,1.2,4.5,3.9,4.4,5.9c-0.3,7.6,3.4,9.3,10.2,10.3c9.9,1.5,16.2,8.9,20.4,17.3
		c4.4,9.2,14.4,12.3,22.1,5.1c5.5-5,10-11.1,15-16.7c0.9,0.6,1.8,1.2,2.7,1.9c-0.1,2-0.2,4-0.3,6.1c0.7,0,1.6,0.3,1.9,0
		c10-8.5,22.9-7.6,34.6-9.7c8.6-1.6,10.9,2.5,8,11.9c4.7,0,9,0,14.5,0c-0.8,4.9-1.3,8.8-1.9,12.5c9.9-4.3,19.8-8.6,29.5-12.8
		c0.3,0.9,0.7,1.8,1,2.7c-7.3,15.6-14.9,31.2-21.6,47c-6.6,15.5-13.3,31.3-10.9,52.3c5.2-7.6,9.3-12.5,12.3-18.1
		c6.1-11.5,11.5-23.4,17.1-35.1c10.4-21.9,29.4-30.1,51.8-32.3c11.3-1.1,17.4,4.5,19.5,15.7c2.7,14.2-2,26.9-12,35.6
		c-12.9,11.3-28,20.2-42.3,30c-1,0.7-3,1.4-3.7,1c-10-5.5-15.8,3-23.1,6.7c-37.7,19.3-77.1,26-118.4,15.1
		c-12.3-3.2-23.5-9.1-31.5-23.5c7.7,2.6,13.1,4.2,18.4,6c0.2-0.4,0.3-0.8,0.5-1.2c-10.2-7.3-20.6-14.3-30.4-21.9
		c-2-1.5-3.3-5.6-2.9-8.1c2-9.3,4.2-18.7,7.7-27.5c3.4-8.9,8.6-17.1,13.4-26.6c-13.5-3.9-19.6,8.1-29,10.3
		C942.8,524.6,942.3,524,941.7,523.2z M1033.9,545.5c-0.6-4.2-0.5-8.8-2.2-12.4c-1.1-2.5-4.6-4.6-7.3-5c-1.3-0.2-4.2,3.9-4.6,6.4
		C1018.3,542.5,1022.4,545.8,1033.9,545.5z M983.5,531.7c6.6,1.3,10.7,2.1,15,2.9c0.6-3,2.5-6.9,1.3-9.1c-1.6-3.1-5.4-5.1-8.3-7.6
		C989.4,521.6,987.3,525.3,983.5,531.7z M1140.5,548.3c3.5-0.7,6.9-1.4,10.1-2c-4.2-5.1-5.5-11.4,3.3-18
		C1140.3,531.6,1143.2,542.3,1140.5,548.3z M1080.9,596.6c-0.5-1.1-1-2.2-1.5-3.1c-9.8,3.8-19.7,7.7-29.5,11.5
		c0.2,0.7,0.5,1.3,0.7,2C1060.8,603.5,1070.9,600.1,1080.9,596.6z"/>
	<path fill="#FFFFFF" d="M403.4,166.2c17.6,24,33.2,48.2,51.8,69.8c18.5,21.4,40,40.2,60.6,60.6c-6.7,5.8-14.4,12.2-21.7,18.8
		c-4.7,4.2-8.4,3.5-12.8-0.8c-13.5-13-27.2-25.7-41-38.5c-3-2.9-6.4-5.5-12.2-7.4c0.9,7.7,1.6,15.3,2.8,23c1,6.6,2.7,13.1,3.5,19.8
		c2.5,20-11.8,32.5-31.8,27.7c-5.5-1.3-10.8-3.5-16-5.8c-10.7-4.7-21-10.5-32-14.4c-8.8-3-18.3-3.9-27.5-5.8c-0.9,1.5-1.8,3-2.7,4.5
		c21.9,23.8,43.9,47.6,66.5,72.1c-2.4,3-4.6,6.2-7.2,9c-13.5,14.9-18.2,15.3-32.6,2c-34.7-32.5-69-65.2-105-99.1
		c10.1-8.5,19-14.5,26-22.1c14-15.3,28.6-18.8,48.6-10.5c20.6,8.5,42.7,13,67.7,20.3c-3-10.8-4.6-19.4-7.6-27.5
		c-6.8-19.1-14.5-37.8-20.9-57c-1.1-3.3,0.7-9.9,3.4-12C376.9,183.1,391.1,174.3,403.4,166.2z"/>
	<path fill="#FFFFFF" d="M1049.1,748c3.3,0,5.6,0,9.7,0c-6.5,6.9-12,12.7-18,19.1c9.6,6,4.6,13.7,1.6,19.3c-6.1,11.2-15.6,0-25,2.6
		c3.1,3,5.9,5.6,9,8.6c-45.9,4.9-86.4-17.3-129.7-22.5c-2.7-0.3-5.9-2.3-7.3-4.4c-6.5-10.1-12.5-20.6-18.6-30.9
		c-2.9-4.7-3.3-8.8,4.7-10.4c-4.8-8.9-9.1-16.9-14.9-27.2c4.4,2.3,6.7,3.4,9,4.6c0.6-0.7,1.3-1.4,1.9-2.1
		c-6.1-6.9-12.1-13.8-18.2-20.8c0.3-0.3,0.6-0.7,0.8-1c3,1.6,5.8,3,8.8,4.6c0.4-0.4,0.9-0.9,1.3-1.3c-6-8.5-11.9-16.9-18.8-26.7
		c10.4-2.7,17.2-7.1,28.2-4c11.5,3.2,25.1-1.3,37.8-1.8c13-0.5,26-0.1,35.7-0.1c4.6,3.5,6.7,6.2,9.3,7c12.8,3.7,26,6.6,38.8,10.4
		c21.2,6.5,39,17.7,47.8,39.3c0.5,1.2,0.9,3.1,1.8,3.4c18,6.7,8.1,18.9,5.8,29.5C1050.4,744.6,1049.9,745.8,1049.1,748z"/>
	<path fill="#FFFFFF" d="M754.4,91.1c2.8,18,4.7,33.3,7.5,48.6c2.7,15,6.2,29.7,9.4,45c-15.6,1.9-30.1,3.5-46.3,5.4
		c-3.9-16.6-8.4-33.3-11.7-50.4c-5.8-28.9-10.6-57.9-16.4-86.8c-1.5-7.3,1.3-10.1,7.2-12.9c30.9-14.9,58.4-9.8,82.4,17
		c16,18,30.6,37.3,45.8,56c2.5,3,4.8,6.1,7.2,9.1c0.8-0.7,1.6-1.3,2.4-2c-1.4-21.5-3.2-43.2-3.8-64.7c-0.3-13,1.5-26,2.7-39
		c0.2-2.1,1.8-5.4,3.1-5.7c9.1-1.7,18.4-3,27.7-3.6c1.7-0.1,4.8,3.8,5.2,6.3C879,26,882,38.5,882,51c0.2,38.5-0.9,76.9-1.5,116.2
		c-15.2,1-28.2,2.6-41.1,2.2c-4.8-0.2-10.4-4.2-14.2-8c-20.3-20.5-40-41.5-60.1-62.2C762.5,96.4,759,94.4,754.4,91.1z"/>
	<path fill="#FFFFFF" d="M253.6,501.8c4.4,9.4,7.9,19.7,13.6,28.3c12.3,18.7,25.9,36.6,38.9,55c7.7,10.8,13.3,22.5,13.1,36.2
		c-0.1,13.5-4.6,20.6-17.2,25.4c-24.1,9.1-49.4,9-74.4,6.9c-17.2-1.5-34.3-5.3-51.2-9c-6-1.3-11.8-4.8-16.9-8.5
		c-14.7-10.3-17.7-21.9-10.7-38.5c6.2-14.6,15.9-26.3,29.2-34.9c15-9.7,28.7-8,39.8,6.1c5.8,7.3,10.1,15.7,15.3,23.5
		c4.4,6.6,8.6,13.7,14.1,19.4c8.9,9.2,19.5,8.3,27.6-1.9c8.9-11,12.1-23.8,7-36.7c-4.6-11.6-11.8-22.3-18.6-33
		c-5-7.9-11.7-14.8-16.7-22.6c-9.9-15.7-6.1-29.8,11.4-36.4c11-4.1,23.4-5.3,35.3-6.5c21.5-2.3,43.4-6.7,64.6,1.2
		c6.1,2.3,11.9,5.8,17,9.7c2.1,1.6,3.4,6.4,2.6,8.9c-3.4,9.7-7,19.6-12.3,28.4c-6.2,10.5-16.6,15-28.5,11.5
		c-9.2-2.7-18.1-6.8-26.7-11.1c-13.1-6.6-25.7-14.3-38.9-20.8c-4.4-2.2-10-2.1-15.1-3C255.3,500.3,254.5,501,253.6,501.8z"/>
	<path fill="#FFFFFF" d="M561.4,242.1c-45.2-2-55.6-8.4-69.8-50.4c-5.5-16.2-8-33.7-9.1-51c-1.5-23.4,9.4-42.4,28.6-55.4
		c33.6-22.7,70-27.2,107.9-12.2c23.7,9.4,37,27.6,40.5,53c2.3,16.1,5.1,31.5,1,48.4c-7.3,29.6-25.5,47.4-52.5,57
		C593.1,236.8,577,238.7,561.4,242.1z M576.1,206.2c9.8-0.4,25.7-5.2,39.7-15c9.5-6.7,17.4-15.1,19.1-27.2
		c2.8-20-3.8-36.9-18.5-50.7c-12.7-12-25-21.8-45-14.5c-22.5,8.4-40.9,20-47.6,44.1C513.6,179.4,534.4,208.5,576.1,206.2z"/>
	<path fill="#FFFFFF" d="M1184.2,65.4c49.3,21,98.4,41.8,148.8,63.2c-7.3,13.1-13.7,24.7-20,36.1c-40.4-18.7-80.2-37.2-120.1-55.6
		c-0.9,0.8-1.9,1.3-2.3,2.1c-14.9,25.5-17.5,30.2,15,43.1c5.5,2.2,11.1,4.2,16.6,6.2c0,1.2,0.3,2.1,0,2.5c-12.9,20.1-8,16.6-27,8.3
		c-7.4-3.2-14.6-6.7-21.7-10.3c-5.4-2.8-8.8-1.2-11.1,4.1c-3.7,8.3-8.1,16.2-11.2,24.6c-0.8,2.1,1.5,7.5,3.4,8.2
		c20.1,7.3,40.3,13.7,60.5,20.7c15.3,5.3,30.6,11.1,46.5,17c-5.7,12-10.1,23.1-16.2,33.1c-1.6,2.6-9.4,3.3-13.3,1.9
		c-14.4-5.5-28.1-12.4-42.3-18.4c-22.1-9.3-44.5-18.4-66.6-27.7c-3.9-1.7-8.1-3.7-11-6.7c-1.6-1.6-1.8-6.1-0.8-8.4
		c2.5-5.7,6.3-10.7,9.1-16.3c19-37.8,37.9-75.6,56.8-113.5C1179.3,75.5,1181.1,71.6,1184.2,65.4z"/>
	<path fill="#FFFFFF" d="M1004,14.8c0.2,24.1-14.5,44.9-11.5,70.4c7.7-2.7,12.9-3.8,17.6-6.2c19.4-9.8,38.4-20.5,57.9-29.8
		c5.5-2.7,12.6-3.4,18.8-3.1c13.9,0.8,27.7,2.8,42.6,4.4c-4.4,2.7-8.8,5.4-13.2,8c-27,16-54,32.2-81,48.1c-9.1,5.3-10.4,11.9-5,20.7
		c12.8,20.8,25.3,41.6,37.9,62.5c1.3,2.2,2.5,4.5,4.2,8c-15-1-28.8-1.4-42.5-3c-2.9-0.3-6.2-4.1-7.8-7.2c-6-11.5-11.5-23.3-17-35.1
		c-5.1-11-10.9-21.3-22.7-28.1c-1.9,2.5-4.6,4.5-5.2,7.1c-3.7,14.9-8.3,29.6-9.8,44.8c-1,8.8-2.9,10.6-10.5,7.8
		c-0.6-0.2-1.3-0.2-2-0.3c-27.6-5.3-22.4-9.6-20.4-27.8c2.3-19.4,10.1-36.5,14.8-54.8c6.1-24.6,10.9-49.4,15.9-74.3
		c2-10.1,7.3-14.3,17.5-13.2C989.9,14.4,997.5,14.4,1004,14.8z"/>
	<path fill="#FFFFFF" d="M1516.5,253.6c-24.4,29.4-48.9,54.8-89.1,52.8c-9.4-0.5-19.1-3.5-27.8-7.3c-7.5-3.1-13.2-2.9-17.9,3.1
		c-7.2,9.1-13.9,18.8-20.4,28.5c-8.8,13-9.8,13.9-22.8,6c-25.9-15.5-22.9-14.3-6.6-34.5c6.9-8.6,14.9-16.3,22.5-24.7
		c-0.9-1.4-1.3-2.8-2.2-3.5c-21-17.9-23-40.3-15.2-64.9c6.9-22,20.4-39.8,36.4-55.8c2.2-2.2,8.3-3,11-1.5c6.6,3.5,12.4,8.7,19,13.6
		c-4.9,6-9.9,10.4-12.7,15.9c-5.6,11.2-12.4,22.6-14.5,34.6c-3.5,20.8,8.2,38.4,27.2,46.5c20.9,9,45.1,3.6,60.4-13.9
		c5.4-6.2,9.8-13.4,15.4-21.1C1491.1,236,1503.1,244.3,1516.5,253.6z"/>
	<path fill="#FFFFFF" d="M1130.3,962.1c-1.3,1.3-2.5,2.6-3.7,3.9c-13.2,8.4-26,4.6-39-0.6c-13.9-5.5-27.9-10.7-44.5-17
		c3.8,7.3,6.5,12,8.7,16.8c3.2,7.2,4.2,14.2-3.2,19.7c-7.6,5.6-12.7,1.7-18-3.9c-13.1-13.4-27.2-26-30-46c-0.5-3.5-0.6-7.2-0.9-10.8
		c0.9,0.7,1.9,1.4,2.8,2.1c4.8-4.8,9.5-9.5,15.3-15.3c7.3,3.5,13.7-2.2,19.5-7.8c9.7-9.3,19-11.9,31.8-4.8c13,7.3,29,9.8,40.8,18.5
		c9.3,6.8,19.5,8.8,29.1,13c2.3,1,3.8,3.3,7.7,6.8c-6.1,1-10,1.6-14.6,2.3c2.7,1.4,4.8,2.6,9.1,4.8c-5.4,3.1-9.6,5.5-12.5,7.2
		C1129,954.2,1129.6,958.1,1130.3,962.1z"/>
	<path fill="#FFFFFF" d="M726.8,439.6c-8.6,4-17.1,8.1-25.7,12.2c-13,6.2-14.3,5.8-23.3-6.6c8.6-13.5,26-12.1,39.8-23.3
		c-15.7,0-28.7,0-45.4,0c4.2-9.9,5.3-19.9,10.6-23.2c5.2-3.3,14.6-0.1,23-1.8c-2.7-1.3-5.5-2.3-7.8-3.9c-3-2.3-5.4-5-8.2-7.7
		c4.2-2.5,8.4-6.9,12.7-7.1c6.1-0.3,12.3,2.7,18.5,4.1c8.2,1.9,16.4,3,24.4,5.6c8.4,2.7,16.2,6.7,25.6,10.6c-2.9,4.3-5.4,8.3-9,13.8
		c11.3-0.8,19.2,3.5,21.7,11.6c-4.2,15.4-8.8,28.7-11.3,42.3c-2.3,12.3-10.3,6.6-16.2,6.5c-7.2-0.1-7.2-5.2-5.7-10.8
		c1.1-4.1,1.3-8.5-0.2-14.1c-4.2,4.7-8.3,9.7-12.7,14.2c-5.1,5.1-10,11.5-16.3,14.2c-4.1,1.7-10.6-2.4-16.1-3.8
		c1.5-3.9,2-8.9,4.7-11.7c5.8-6.2,12.6-11.4,19.1-17.1C728.3,442,727.6,440.8,726.8,439.6z"/>
	<path fill="#FFFFFF" d="M1288.6,454.2c-11.2,15.6-21.4,29.2-31,43.3c-13.5,20-26.1,40.6-39.9,60.3c-6.9,9.7-15.8,18.1-23.8,27.1
		c-15.1-9.2-14.6,13.3-26.4,12.5c-1.2-2.4-2.7-5.1-4.1-7.9c0.7-1.3,1-2.5,1.8-2.9c26.5-13.8,36.3-37.1,37.3-65.4
		c0.3-10.1,2.6-18.8,15.1-20.5c0-5.8-0.4-11.2,0.1-16.4c0.4-4.2,1.2-8.9,3.2-12.3c3.7-6.1,9.9-10.9,6.1-19.7c-0.7-1.6,1.7-4.9,3.2-7
		c5.3-7.2,10.9-14.2,16.2-21.2c4.2-5.7,11.3-5.7,18,1.6C1273.4,435.2,1281.4,445.6,1288.6,454.2z"/>
	<path fill="#FFFFFF" d="M380.7,606.6c-3.4,5.1-5.7,9.6-9.1,13.2c-12,12.6-28.3,9.6-33.9-6.8c-5.7-16.8-13.7-31.8-26-44.6
		c-3.3-3.5-5.9-8.3-7.4-12.9c-2.6-7.8,2.1-16.5,10.6-17.3c10.6-1,21.7,0.4,32.4,2.3c2.7,0.5,6.2,7.5,5.8,11
		c-1.4,11.5-4.3,22.8-6.8,34.2c-0.4,2-2.2,3.9-1.9,5.6c1,6.4,0.7,15.3,4.6,18.2c4.3,3.1,12.9,1.4,19.4,0.3c7.3-1.3,9-7.8,8.4-14.1
		c-0.7-8.3-2.6-16.4-3.8-24.7c-0.5-3.2-1.3-6.6-1.4-9.9c-1-20.7,6.2-27,26.5-23.3c6.5,1.2,10.9,4,12.5,11.1
		c5.1,22.8-0.5,44.4-7.6,65.6c-1.3,3.9-6.8,6.5-10.3,9.7c-2.2-3.4-4.3-6.9-6.5-10.3C385.2,612.7,384.2,611.4,380.7,606.6z"/>
	<path fill="#FFFFFF" d="M502.9,523.4c10.9,0.6,19.7,2.1,19.8,13c0,5.2-2.5,10.5-3.7,15.7c-5.9-2.2-11.8-4.4-18.8-7.1
		c0.6,12.1,2.3,25,1.7,37.7c-0.5,11.1-2.7,22.3-5.5,33.2c-1.9,7.1-8.1,10.7-15.6,9.7c-8-1.1-9.4-7.4-10.2-14.1
		c-2.5-21.6,5.6-41.5,10.2-62c1.4-6.1,1.8-9.5-5.1-12.4c-8-3.2-3-10.6-2.4-15.9c0.2-1.8,5.8-2.9,10.3-4.8c0-9.2,3.3-19.5,13.6-25.8
		c3.3-2.1,7.5-4.6,11-4.3c7.3,0.7,14.4,3.2,21.5,5c-3.2,6.5-5.6,13.8-10,19.4C515.9,515.5,509.8,518.3,502.9,523.4z"/>
	<path fill="#FFFFFF" d="M990.5,853.6c1.1-0.6,2.6-1,3.2-1.9c4.7-5.9,9.7-7.9,15.9-2.1c5.8,5.5,10.7,10.5,4.6,19.5
		c-8.7,12.6-16.4,25.9-24.2,39c-3.6,6.2-6.9,4.1-9.4-0.3c-2-3.3-3.2-7.4-3.8-11.2c-2.8-17.5,2-34.2,7.3-50.6
		c1.1-3.2,5.8-5.3,8.9-7.9c0.7,0.6,1.4,1.3,2.2,1.9c-2.1,4-4.1,8.1-6.2,12.1C989.5,852.6,990,853.1,990.5,853.6z"/>
	<path fill="#FFFFFF" d="M430.7,549.6c3,3.7,5.9,7.5,9.6,12.3c3.5-5,7-10.5,11.2-15.3c2.2-2.6,7.2-6,8.5-5.2c3,1.8,5.9,6,6,9.3
		c0.2,4.2-1.7,9-4,12.8c-2.3,3.5-6.1,6.1-9.3,9c-7.8,7-14.2,13.7-13.5,26.2c0.6,9.6-1.8,20.5-13.1,28.9c-1-27-6.6-51.8,1.2-76.5
		C428.3,550.5,429.5,550.1,430.7,549.6z"/>
	<path fill="#FFFFFF" d="M1427.7,494.3c20.8-2.3,29.8-13.3,34.1-40.5c6.7,7.4,9.5,16.3,5.4,26.1c-3.5,8.5-8.5,17-15,23.4
		c-3,3-11.3,2.2-16.5,0.7C1432.6,502.9,1430.4,497.6,1427.7,494.3z"/>
	<path fill="#FFFFFF" d="M1056.8,890.4c9.8-13.8-7.3-22.1,0.9-34.4c9.3,6.8,18.9,13.8,28.5,20.8c-0.7,1.2-1.4,2.3-2,3.4
		c-4.3-2-8.8-4-13.1-6c-0.4,0.4-0.8,0.9-1.2,1.3c3.2,2.6,6.8,4.8,9.6,7.7c1.9,2,4.5,5.5,3.8,7.1c-1.1,2.5-4.9,5.6-7.2,5.3
		C1069.7,894.8,1063.5,892.3,1056.8,890.4z"/>
	<path fill="#FFFFFF" d="M363,565.3c1.7,9.6,3.7,19.3,4.6,29c0.3,2.7-2.5,6.5-4.8,8.3c-1.9,1.4-7.1,1.4-7.9,0.2
		c-1.7-2.7-2.6-6.8-1.9-9.9c2.1-9.3,5.1-18.4,7.9-27.6C361.6,565.2,362.3,565.3,363,565.3z"/>
	<path fill="#FFFFFF" d="M715.2,601.5c-3,4-5.4,7.6-8.2,10.8c-9.7,11.8-20.9,13.1-32,2.6c-15-14.1-21-32.4-21-52.5
		c0-8,1.5-16,2.6-23.9c4.1-28.7,28-38.7,52.1-21.7c1-1.7,1.9-3.2,3.2-5.7c15.6,13.2,24.1,30,30.7,48c9,24.7,13.1,49.9,5.5,75.7
		c-5,17.4-15.5,30-32.7,36.9c-20.4,8.3-41.4,14.5-63.4,12.5c-27.4-2.5-32.7-8.3-18.8-36.1c0.6-1.2,1.4-2.3,2.3-3.3
		c18.4-22.3,25.5-21.7,39.7-0.1c5.8,8.8,14.4,11.8,24.3,10.8c10.5-1.1,16.7-7.8,19.8-17.6C723.2,625.5,721.7,613.6,715.2,601.5z
		 M714.5,562.1c1.3-17.7-4.4-29.4-17.5-35c-8.3-3.6-16.3-2.3-20.1,5.5c-8.7,17.7-11.5,36.7-6.4,56.2c0.7,2.8,2.5,6.3,4.8,7.4
		c6.6,3.2,13.7,7.3,20.7,7.5c8.1,0.2,12.6-7.1,14.2-14.8C712.1,580,713,571.1,714.5,562.1z"/>
	<path fill="#FFFFFF" d="M559.8,610.2c6.3-21.2,12.2-41.7,18.7-61.9c1.1-3.3,2.2-10.9,9-4.1c0.4,0.3,2.6-0.8,3.6-1.7
		c9.2-7.5,19.1-6.7,27.7,0c20.7,15.8,31.2,37.2,29.9,63.4c-0.2,4.1-1.5,9.5-4.3,11.9c-5.1,4.2-11.6,8.4-17.8,9
		c-2.6,0.2-7.7-8.8-8.6-14c-1.6-9.4-0.7-19.4-1.3-29c-0.4-7-0.9-14.1-2.9-20.8c-1.1-3.6-5.1-6.4-7.9-9.5c-2.9,2.7-7.1,4.7-8.3,8
		c-3.5,9.3-6,19.1-8.8,28.7c-2.4,8.4-3.8,17-7,25c-2,5.2-4.5,13.6-11.9,10.5C565.9,623.9,563.8,616.4,559.8,610.2z"/>
	<path fill="#FFFFFF" d="M653.4,622.1c0.9-7.5,1.8-14.4,2.5-19.8c8,7.4,15.5,17.3,25.6,23.2c13,7.6,22.5-5,33-11
		c4.7,16,0.2,30-11.1,34.6c-9.1,3.7-16.5,1.3-22.9-6.7C668.3,627.2,668,627.5,653.4,622.1z"/>
	<path fill="#FFFFFF" d="M554.5,536.3c0.2,3,1.1,6.3,0.6,9.2c-4.8,28.3-9.4,56.7-15.2,84.7c-1.1,5.1-7.2,13.6-10.1,13.3
		c-9-1.1-8.4-9.6-7.4-16.7c4.4-30.7,14.5-59.7,27.2-87.8c0.5-1.1,1.6-2,2.4-3C552.8,536.1,553.7,536.2,554.5,536.3z"/>
	<path fill="#FFFFFF" d="M564.2,496.9c-1,8.6-3.2,15.6-11.4,19.1c-6.5,2.8-9.7,0-9.5-6.6C543.6,498.9,553.2,493,564.2,496.9z"/>
	<path fill="#FFFFFF" d="M670.9,567.4c4.1-11.5,7.9-23.1,12.5-34.3c2.7-6.4,7.8-7.2,12.9-2.6c3.3,3,7.2,6.6,8.8,10.7
		c7.8,19.8,5.9,38.6-6.7,56.1c-4.1,5.8-8.4,5.6-13.5,1.8C674.5,591.1,673.9,579.7,670.9,567.4z"/>
</g>
</svg>
