<?xml version="1.0" encoding="utf-8"?>
<!-- Generator: Adobe Illustrator 18.0.0, SVG Export Plug-In . SVG Version: 6.00 Build 0)  -->
<!DOCTYPE svg PUBLIC "-//W3C//DTD SVG 1.1//EN" "http://www.w3.org/Graphics/SVG/1.1/DTD/svg11.dtd">
<svg version="1.1" id="Layer_1" xmlns="http://www.w3.org/2000/svg" xmlns:xlink="http://www.w3.org/1999/xlink" x="0px" y="0px"
	 viewBox="0.1 0 1599.9 1199.9" enable-background="new 0.1 0 1599.9 1199.9" xml:space="preserve">
<rect x="0.1" y="0" fill="none" width="1599.9" height="1199.9"/>
<g>
	<path fill="#FFFFFF" d="M439.3,534.6c0,125.5,0,251.1,0,376.9c-26.2,0-52.2,0-78.7,0c0-207,0-414.1,0-621.8
		c62.5,92.3,124.9,184.3,187.2,276.3c0.2,0,0.4-0.1,0.6-0.1c0-77,0-153.9,0-231.1c28.4,0,56.4,0,84.6,0c0,192.2,0,384.3,0,576.7
		c-28,0-56.1,0-84.5,0c0-1.4,0-2.9,0-4.3c0-70.7,0-141.3-0.1-212c0-2.1-0.7-4.6-1.9-6.3c-34.8-50.7-69.8-101.3-104.8-152
		c-0.6-0.9-1.2-1.7-1.9-2.5C439.7,534.5,439.5,534.5,439.3,534.6z"/>
	<path fill="#FFFFFF" d="M1198.3,288.5c62.7,92.5,124.9,184.5,187.2,276.3c0.2,0,0.5-0.1,0.7-0.1c0-77,0-153.9,0-231.1
		c28.5,0,56.4,0,84.5,0c0,192.2,0,384.4,0,576.8c-28,0-55.9,0-84.4,0c0-1.5,0-3.1,0-4.5c0-70.4,0-140.7,0.1-211.1
		c0-2.7-0.6-5-2.2-7.3c-34.9-50.5-69.8-101.1-104.7-151.7c-0.6-0.9-1.2-1.7-2.5-3.5c0,126.6,0,252.2,0,377.9c-26.5,0-52.5,0-78.8,0
		C1198.3,703.3,1198.3,496.4,1198.3,288.5z"/>
	<path fill="#FFFFFF" d="M1016,321.1c-6.8,5.6-13.9,11-20.4,17c-17.2,16-33.7,32.8-45.5,53.2c-12.4,21.5-19,44.7-19.6,69.6
		c-1,39.9,7.7,77.9,23.4,114.2c7.9,18.3,16.4,36.6,25.7,54.3c17.1,32.9,31,66.9,38.1,103.4c4.8,24.3,6.5,48.9,1.1,73.4
		c-5.9,26.9-19.6,49.5-38.5,69.1c-13.1,13.6-28,25.1-44.6,34.4c-1.3,0.7-3.1,1.3-4.6,1.3c-27.9,0.1-55.9,0.1-83.8,0.1
		c-0.6,0-1.2-0.1-2.6-0.1c1.7-1.1,2.7-1.8,3.8-2.4c19.4-12.3,37.3-26.6,51.8-44.6c17.7-21.9,27.7-47.1,32.4-74.7
		c5.3-31.4-0.4-61.4-9.6-91.2c-6.8-22-17.6-42.1-27.6-62.7c-9.6-19.4-19.6-38.6-28.3-58.4c-11.1-25.6-18.6-52.4-21.7-80.2
		c-6.8-63.2,9.9-118.8,54.9-164.8c11.3-11.5,11.4-11.4,27.3-11.4c28.2,0,56.3,0,84.5,0c1.2,0,2.3,0,3.6,0
		C1015.8,320.6,1015.9,320.9,1016,321.1z"/>
	<path fill="#FFFFFF" d="M7.2,911c8.3-5.9,16.5-11.2,24.2-17.1c24.7-18.9,44.2-42,55.1-71.7c11.8-32.1,13.1-64.7,5.7-97.8
		c-6.2-27.5-16.8-53-29.5-78c-9.7-18.9-19.5-37.7-28.4-56.9C21.2,561,11.8,531.3,8.1,500.1C0.3,433,18.6,374.8,68.3,327.6
		c4.5-4.3,9.1-6.1,15.4-6c30.2,0.3,60.5,0.2,90.7,0.2c1.2,0,2.3,0,4.6,0c-1.6,1.4-2.6,2.3-3.7,3.2c-20.1,15.5-37.9,33.3-53.1,53.5
		c-21.2,27.8-29.9,59.5-29.3,94.3c0.6,37.8,10.1,73.3,24.9,107.6c7.5,17.3,15.7,34.4,24.4,51.2c17.1,33,31,67.1,38,103.7
		c4.6,23.7,6.2,47.5,1.1,71.5c-5.7,27.1-19.3,49.8-38.4,69.4c-13.1,13.5-27.9,24.9-44.5,33.9c-1.3,0.7-2.9,1.2-4.3,1.2
		c-28.3,0.1-56.5,0.1-84.8,0C8.6,911.1,8.1,911.1,7.2,911z"/>
	<path fill="#FFFFFF" d="M1065.5,910.1c0-196.2,0-392.4,0-588.9c27.3,0,54.6,0,82.1,0c0,196.2,0,392.4,0,588.9
		C1120.1,910.1,1092.9,910.1,1065.5,910.1z"/>
	<path fill="#FFFFFF" d="M309.8,911.2c-27.5,0-54.5,0-81.9,0c0-196.2,0-392.4,0-588.8c27.2,0,54.4,0,81.9,0
		C309.8,518.6,309.8,714.6,309.8,911.2z"/>
	<path fill="#FFFFFF" d="M1586,344.4c-2.2,6.3-4.5,12.7-6.6,19c-2.5,7.3-5.2,14.7-7.5,22c-0.8,2.4-2.3,2.3-4.2,2.4
		c-1.9,0.1-3.2-0.3-3.9-2.4c-4.3-13-8.7-25.9-13-38.9c-0.3-1-0.7-1.9-1.7-2.7c0,14.5,0,29,0,43.8c-2.3,0-4.4,0-6.7,0
		c0-1-0.1-2-0.1-3.2c0-15.7,0.1-31.4-0.1-46.9c0-2.7,0.5-3.9,3.6-3.8c7,0.2,7,0,9.3,6.7c4.3,12.8,8.6,25.7,13.1,39.5
		c0.7-1.8,1.1-2.7,1.5-3.8c4.5-13.1,9.1-26.3,13.4-39.4c0.7-2.2,1.7-3.2,4.2-3.1c7.5,0.2,6.3-0.8,6.3,6.2c0.1,14.6,0,29.1,0,43.7
		c0,1.3,0,2.5,0,4.1c-2.3,0-4.4,0-6.7,0c0-14.5,0-28.8,0-43.1C1586.5,344.6,1586.3,344.5,1586,344.4z"/>
	<path fill="#FFFFFF" d="M1517,387.7c-2.5,0-4.6,0-7,0c0-15.8,0-31.7,0-47.7c-6,0-11.7,0-17.6,0c0-2,0-3.9,0-5.9c13.9,0,27.8,0,42,0
		c0,1.7,0,3.6,0,5.7c-5.7,0-11.4,0-17.4,0C1517,355.9,1517,371.6,1517,387.7z"/>
</g>
</svg>
