<?xml version="1.0" encoding="UTF-8" standalone="no"?>
<!-- Generator: Adobe Illustrator 18.0.0, SVG Export Plug-In . SVG Version: 6.00 Build 0)  -->

<svg
   version="1.1"
   id="Layer_1"
   x="0px"
   y="0px"
   viewBox="0.1 0 1599.9 1199.9"
   enable-background="new 0.1 0 1599.9 1199.9"
   xml:space="preserve"
   sodipodi:docname="SJA.svg"
   inkscape:version="1.1 (c68e22c387, 2021-05-23)"
   xmlns:inkscape="http://www.inkscape.org/namespaces/inkscape"
   xmlns:sodipodi="http://sodipodi.sourceforge.net/DTD/sodipodi-0.dtd"
   xmlns="http://www.w3.org/2000/svg"
   xmlns:svg="http://www.w3.org/2000/svg"><defs
   id="defs107" /><sodipodi:namedview
   id="namedview105"
   pagecolor="#ffffff"
   bordercolor="#666666"
   borderopacity="1.0"
   inkscape:pageshadow="2"
   inkscape:pageopacity="0.0"
   inkscape:pagecheckerboard="0"
   showgrid="false"
   inkscape:zoom="0.29288447"
   inkscape:cx="749.44227"
   inkscape:cy="732.3707"
   inkscape:window-width="1366"
   inkscape:window-height="705"
   inkscape:window-x="-8"
   inkscape:window-y="-8"
   inkscape:window-maximized="1"
   inkscape:current-layer="Layer_1" />
<rect
   x="0.1"
   y="0"
   fill="none"
   width="1599.9"
   height="1199.9"
   id="rect96" />

<path
   style="fill:#ffffff;stroke-width:0.614738"
   d="m 563.9746,1156.85 c -39.18897,-2.0789 -69.87523,-10.5072 -92.51804,-25.4112 -8.05973,-5.305 -13.39727,-9.7857 -20.59371,-17.2877 -8.33464,-8.6884 -13.53903,-16.1866 -19.34793,-27.8751 -6.97123,-14.0274 -10.45246,-24.9044 -13.67454,-42.7256 -2.64825,-14.6472 -1.65208,-53.24229 1.69716,-65.75417 7.0886,-26.48118 29.84657,-46.94432 57.13037,-51.36964 32.31169,-5.24082 64.01073,10.3051 77.75195,38.13126 5.61654,11.37358 7.59093,20.02638 7.57458,33.19584 -0.0252,20.29731 -6.59424,35.61261 -22.06776,51.44941 l -4.6208,4.7293 2.34698,0.6083 c 6.01703,1.5594 7.70208,1.9089 14.02698,2.909 9.08909,1.4372 24.30227,1.4225 32.58111,-0.031 22.8686,-4.0164 39.99229,-14.8259 52.04924,-32.8567 14.20227,-21.2391 23.15299,-51.56964 25.68961,-87.05218 0.33839,-4.73349 0.80343,-18.90258 1.03341,-31.48687 0.35486,-19.41687 0.28695,-22.91829 -0.44857,-23.12994 -0.47671,-0.13715 -5.84611,-0.71439 -11.93201,-1.28278 -25.10307,-2.34448 -51.19366,-8.04808 -77.1496,-16.86551 -16.68192,-5.66696 -21.04197,-7.43267 -62.34397,-25.24777 -9.39124,-4.05076 -11.76748,-4.86203 -12.35263,-4.21723 -0.39848,0.43911 -6.08678,7.02258 -12.64066,14.62996 -47.52553,55.16503 -85.11343,95.10221 -100.12081,106.37853 -11.58613,8.70567 -28.7436,15.3993 -47.82459,18.65791 -11.24702,1.92068 -13.58186,1.95996 -22.54668,0.37941 -13.02091,-2.29561 -23.00704,-5.92625 -33.74391,-12.2682 -23.04899,-13.61429 -44.81051,-41.85995 -52.35667,-67.95711 -5.0402,-17.4307 -4.61273,-37.59041 1.1715,-55.24808 4.15523,-12.68481 12.15421,-26.84357 20.77899,-36.78031 4.07859,-4.699 25.62056,-31.11735 127.33662,-156.16161 l 61.36708,-75.44138 4.39567,2.35933 c 8.42,4.51923 20.01034,10.51467 20.32711,10.51467 0.17543,0 -1.80347,-3.25043 -4.39757,-7.22317 -15.07443,-23.08583 -24.39193,-48.76618 -27.93615,-76.99591 -1.03768,-8.26521 -1.02654,-37.59633 0.0182,-47.94954 4.82919,-47.85559 19.50599,-86.24553 45.61781,-119.32199 6.00168,-7.60243 23.9621,-25.66818 31.31794,-31.50157 12.59921,-9.99155 24.94851,-17.91533 39.34321,-25.24411 30.67554,-15.61784 63.07179,-25.18322 103.1938,-30.46918 5.19547,-0.68449 9.69074,-1.24452 9.98949,-1.24452 0.30937,0 0.5432,-18.89237 0.5432,-43.88768 v -43.88766 l -20.7474,-0.31253 c -22.03557,-0.33193 -28.37861,-1.0147 -38.57479,-4.15228 -11.88219,-3.6564 -21.61222,-11.08883 -26.32684,-20.11013 -4.72723,-9.04545 -6.88839,-23.3804 -5.35795,-35.539222 2.5978,-20.638636 12.04768,-31.659288 31.61197,-36.866528 13.40969,-3.56913 -4.73184,-3.346168 272.58528,-3.350114 l 254.68512,-0.0036 -0.1908,32.734787 -0.1908,32.734787 -1.6768,4.9661 c -4.1771,12.3711 -13.2529,20.66426 -27.5015,25.12991 -11.0092,3.45041 -16.9184,4.10658 -40.1191,4.45493 l -21.3621,0.32074 v 59.2527 c 0,39.14296 0.2089,59.2527 0.6155,59.2527 0.3385,0 4.9721,-1.4075 10.2969,-3.12778 24.7516,-7.99659 47.3752,-13.78207 56.7087,-14.502 5.6576,-0.43639 17.3126,0.64929 25.113,2.33932 29.6023,6.41356 52.9306,25.37493 67.2165,54.63367 1.7333,3.55011 14.2748,26.92552 27.8698,51.94535 128.4839,236.45659 215.1473,399.02088 230.7332,432.81203 10.4875,22.73761 15.5945,42.16739 16.4713,62.66662 1.6056,37.53822 -15.6074,71.82971 -46.5107,92.65838 -12.0968,8.1532 -28.9108,15.29246 -42.4113,18.008 -12.3521,2.48453 -38.7859,-1.23384 -56.8688,-7.99958 -28.2068,-10.55351 -55.9871,-31.58142 -74.648,-56.50387 -2.4321,-3.24815 -10.817,-18.43888 -25.2794,-45.79796 -11.9021,-22.5157 -21.8124,-41.11004 -22.0229,-41.32071 -0.2103,-0.21061 -30.9728,-0.56341 -68.361,-0.78385 l -67.9784,-0.40087 -4.868,10.2939 c -5.7191,12.09386 -13.2073,23.72064 -20.8341,32.34904 l -5.3345,6.03507 0.1732,49.90607 c 0.1888,54.40835 0.1284,55.64182 -3.4486,70.35035 -6.0068,24.69986 -21.8212,50.04726 -46.69624,74.84466 -26.58133,26.4985 -56.05536,43.5979 -99.93221,57.9758 -63.52758,20.8173 -133.51724,30.071 -265.87409,35.1529 -14.51265,0.5572 -50.51539,0.6695 -59.62956,0.186 z M 340.51742,948.64365 c 13.89981,-3.23211 25.24157,-8.40617 33.12798,-15.11278 17.27448,-14.69033 53.49785,-53.88859 100.85062,-109.13323 9.27381,-10.81938 17.05593,-19.75361 17.29362,-19.85388 0.82052,-0.3461 16.33086,5.90769 42.07065,16.96295 43.13048,18.52451 60.69981,24.54956 87.28492,29.93239 36.40061,7.37027 83.13305,9.19069 111.7005,4.35123 33.68444,-5.7063 66.25044,-19.13033 114.21318,-47.07969 8.18578,-4.77012 15.04275,-8.5135 15.23769,-8.31857 0.19487,0.19493 1.51606,3.49509 2.93592,7.33364 3.60556,9.7474 9.12837,17.5526 29.19611,41.26144 12.38261,14.62935 16.89251,18.50367 27.21383,23.37823 10.1058,4.77277 21.83303,6.89699 33.92012,6.14419 27.5118,-1.71353 49.68984,-11.73154 67.62114,-30.5451 8.6269,-9.05139 12.3835,-14.91642 22.5754,-35.24685 l 9.2454,-18.44213 40.0308,0.18995 c 22.0169,0.10445 59.6413,0.38108 83.6098,0.61474 l 43.5792,0.42479 25.0226,47.24948 c 16.0425,30.29268 26.1974,48.79001 28.2963,51.5422 8.4242,11.04616 22.4795,24.00169 35.3378,32.57274 19.2419,12.82613 39.7839,19.81718 60.5517,20.60742 7.9244,0.30159 9.4579,0.18965 13.8171,-1.00829 20.3151,-5.5828 38.1429,-17.52765 49.2435,-32.99372 6.2857,-8.75767 11.4473,-21.19413 13.4973,-32.52128 1.3302,-7.34969 1.3367,-22.00885 0.014,-30.09578 -1.9097,-11.66939 -5.1216,-22.48938 -10.3184,-34.75906 -11.4086,-26.93578 -97.9789,-189.55378 -239.88,-450.60279 -10.2003,-18.76487 -19.7267,-36.60725 -21.1698,-39.64973 -13.1023,-27.62213 -38.4809,-43.75733 -66.9668,-42.57594 -5.9311,0.24598 -9.0605,0.78828 -17.942,3.10923 -23.3231,6.09485 -48.0967,14.2022 -64.0352,20.95596 -5.8605,2.48335 -20.4759,7.89719 -32.47866,12.03075 -27.55907,9.49094 -51.98094,18.33237 -74.65567,27.02756 -9.76375,3.74408 -17.83003,6.80741 -17.92526,6.80741 -0.0952,0 -2.88631,-2.38495 -6.20258,-5.29988 -40.25352,-35.38261 -87.40192,-61.8541 -130.2065,-73.10453 -23.81606,-6.25963 -40.97653,-7.98557 -69.80515,-7.02076 -52.65397,1.76218 -95.15448,11.07354 -131.82884,28.88216 -57.49453,27.91865 -93.66116,76.27688 -104.12516,139.22524 -1.83918,11.06396 -2.50896,17.61898 -3.12897,30.62296 -2.13346,44.74599 8.87803,78.93541 36.26892,112.61095 1.92505,2.36674 7.14831,8.17601 11.60724,12.90949 10.10692,10.72923 11.99994,14.07124 11.63442,20.53986 -0.31505,5.57574 -2.39176,8.80521 -7.27929,11.31998 -3.09833,1.59418 -3.80879,1.7167 -8.60252,1.48353 -8.05829,-0.39196 -18.5216,-4.30005 -41.97021,-15.67602 -7.26066,-3.52247 -12.36735,-5.66776 -12.68171,-5.3275 -0.28945,0.3133 -31.45471,38.60654 -69.25612,85.09609 -84.09153,103.41881 -93.885,115.43398 -102.96946,126.32861 -10.54637,12.64786 -15.35196,20.61978 -19.00779,31.53169 -8.35939,24.9511 -2.49062,49.91228 17.30183,73.58847 14.15373,16.93099 28.43096,25.89368 46.57152,29.23582 4.49255,0.82769 14.55738,0.1259 21.56538,-1.50364 z m -19.67161,-29.61924 c -15.483,-4.04823 -30.80695,-21.26427 -36.62269,-41.14458 -2.2138,-7.56755 -2.74551,-20.60398 -1.2191,-29.88984 1.29901,-7.9024 4.30802,-17.10951 7.98314,-24.4271 2.53335,-5.04423 5.35991,-8.52002 29.67269,-36.48825 78.59325,-90.40974 119.96468,-136.3241 126.95442,-140.89503 l 1.66933,-1.09165 4.47805,3.63644 c 12.92183,10.49329 36.38678,27.4165 56.73076,40.91497 39.61184,26.28287 71.37635,42.28542 90.60066,45.64342 12.62493,2.20531 43.48541,-0.0961 70.9056,-5.2876 34.58158,-6.54745 56.59347,-16.82292 62.59489,-29.22021 1.53488,-3.17063 2.70409,-15.56067 2.25672,-23.91441 -0.57663,-10.76736 -5.81299,-19.4077 -16.73228,-27.60939 -9.39386,-7.0559 -16.51126,-10.36713 -31.27677,-14.5509 -19.43279,-5.50623 -59.88363,-12.39106 -79.18785,-13.47795 -23.11389,-1.30139 -39.38353,-5.44348 -57.05143,-14.52471 -21.33994,-10.96866 -37.71906,-27.67596 -48.73444,-49.71091 -7.22159,-14.44592 -11.58482,-29.36947 -14.37859,-49.17903 -1.623,-11.50801 -1.62663,-46.09533 -0.006,-58.09272 5.95184,-44.06381 23.44625,-77.82796 53.25647,-102.78472 38.59974,-32.31525 99.61523,-49.56011 170.79062,-48.2707 18.91835,0.34272 26.0712,1.2106 41.67361,5.05642 43.77237,10.78938 92.70248,39.50042 131.34145,77.06807 6.00507,5.83853 8.76647,8.13011 9.53526,7.91289 1.57607,-0.44528 41.05754,-15.73377 62.86339,-24.34271 39.46088,-15.57913 59.04318,-23.77602 80.23128,-33.58385 7.0959,-3.28459 20.0197,-9.26372 28.7197,-13.28695 16.9677,-7.8466 22.4637,-9.9418 28.7503,-10.96039 10.9831,-1.77951 21.517,0.65217 31.1286,7.1859 7.677,5.21854 17.2584,17.05571 21.8619,27.00877 1.0645,2.30147 11.2549,21.33567 22.6453,42.29823 147.0824,270.68459 228.5816,423.91794 238.1784,447.81882 16.5252,41.15633 6.13,71.90717 -28.5758,84.53198 -4.189,1.52375 -5.1447,1.64584 -10.4506,1.33527 -18.274,-1.06976 -36.8834,-9.11275 -53.7895,-23.24797 -5.5942,-4.67729 -13.8616,-12.98947 -17.2246,-17.31783 -1.0079,-1.2971 -14.8349,-26.88556 -30.7268,-56.86325 l -28.8944,-54.50486 -49.1773,-0.38926 c -27.0474,-0.21411 -73.1064,-0.55584 -102.3531,-0.75944 l -53.176,-0.37007 -13.0198,26.00709 c -14.0688,28.10237 -16.7384,32.40879 -24.83723,40.06418 -11.2773,10.65993 -24.37921,16.44756 -41.13456,18.17079 -9.83654,1.01161 -16.68638,-0.0313 -23.53339,-3.58367 -13.70361,-7.10951 -20.73652,-24.08494 -20.72269,-50.01845 0,-5.1973 0.28241,-11.87034 0.62144,-14.82907 0.41808,-3.64933 13.8758,-55.15551 41.84163,-160.13922 22.67393,-85.11781 41.371,-155.48437 41.54896,-156.37012 0.30725,-1.52867 -0.15405,-1.86603 -9.08244,-6.64211 l -9.40616,-5.03165 -6.79157,3.18285 c -14.11242,6.61375 -49.53435,22.68166 -57.50738,26.08621 -16.47282,7.03402 -58.73131,23.05101 -60.81674,23.05101 -0.26213,0 -1.80745,-2.00558 -3.43393,-4.45685 -11.21158,-16.8965 -29.64828,-37.26802 -44.55791,-49.23393 -16.06969,-12.89694 -34.91475,-22.86655 -51.24253,-27.10886 -11.46577,-2.97906 -18.30612,-3.61576 -34.51339,-3.21253 -20.70717,0.51519 -34.33889,2.53716 -48.33147,7.16894 -22.54959,7.46431 -36.04604,20.15455 -40.86304,38.42212 -1.55125,5.88278 -1.58233,20.8821 -0.056,26.98671 1.40753,5.62922 4.13219,11.20993 7.47884,15.31828 7.97803,9.79388 24.73175,17.44659 47.2961,21.60376 16.89509,3.11269 33.67973,4.42409 67.05661,5.23922 25.55912,0.6242 33.79007,1.47791 48.18774,4.99802 37.40828,9.14602 68.11942,30.95219 89.63321,63.64325 11.6001,17.62692 20.5738,40.42522 21.50402,54.63278 1.10167,16.8255 -5.78524,43.79282 -17.26676,67.61206 -27.06665,56.15181 -75.4374,92.15048 -137.44768,102.29188 -15.53014,2.53985 -20.41401,2.82902 -47.33481,2.80308 -55.35652,-0.0535 -97.72697,-5.46287 -140.16021,-17.89416 -16.43203,-4.81395 -29.71499,-10.02152 -58.40009,-22.89566 -7.60738,-3.41426 -14.2675,-6.20879 -14.80027,-6.21008 -0.53276,0 -26.06681,25.16349 -56.74232,55.92171 -30.67551,30.75828 -58.04112,57.75037 -60.81248,59.98242 -12.28927,9.89796 -25.15341,16.96406 -35.80092,19.66503 -6.95137,1.76338 -16.25934,1.99827 -21.79799,0.55007 z M 1183.6705,634.59735 c -3.8019,-8.53717 -22.9059,-51.6226 -42.4533,-95.74541 -19.5473,-44.1228 -35.7055,-80.41291 -35.907,-80.64468 -0.2015,-0.23177 -13.2532,42.85366 -29.0039,95.74541 l -28.6375,96.16681 h 71.4572 71.457 z m -261.59768,-2.43654 c -11.82233,-27.3797 -26.72536,-53.72839 -40.60675,-71.79305 -6.86951,-8.93966 -19.43998,-21.13965 -26.7205,-25.93302 -5.9179,-3.89623 -39.84829,-20.79243 -52.83898,-26.31204 -28.28696,-12.01885 -54.17193,-13.33296 -101.52943,-5.15436 -22.40412,3.86917 -34.6285,3.5555 -43.38814,-1.11334 -20.55536,-10.95589 -4.24766,-43.37074 27.56665,-54.79427 14.2017,-5.09939 31.64287,-4.65642 47.52308,1.207 12.53629,4.62875 35.30522,16.62588 58.11935,30.62354 9.91968,6.08625 41.41532,26.83165 54.30047,35.76637 l 6.96559,4.83006 7.48074,-0.0279 c 15.04534,-0.0561 33.4793,-5.80447 69.04729,-21.53148 14.28306,-6.3155 33.78095,-15.87373 39.8355,-19.52811 2.01234,-1.2146 3.73318,-2.13399 3.82404,-2.04308 0.27208,0.27207 -45.36365,162.34882 -45.85999,162.87315 -0.25168,0.2659 -1.92518,-2.91537 -3.71892,-7.06949 z"
   id="path286" /></svg>
