<?xml version="1.0" encoding="utf-8"?>
<!-- Generator: Adobe Illustrator 18.0.0, SVG Export Plug-In . SVG Version: 6.00 Build 0)  -->
<!DOCTYPE svg PUBLIC "-//W3C//DTD SVG 1.1//EN" "http://www.w3.org/Graphics/SVG/1.1/DTD/svg11.dtd">
<svg version="1.1" id="Layer_1" xmlns="http://www.w3.org/2000/svg" xmlns:xlink="http://www.w3.org/1999/xlink" x="0px" y="0px"
	 viewBox="0.1 0 1599.9 1199.9" enable-background="new 0.1 0 1599.9 1199.9" xml:space="preserve">
<rect x="0.1" y="0" fill="none" width="1599.9" height="1199.9"/>
<g>
	<path fill="#FFFFFF" d="M644.8,790.4c-17.9,0-35.9,0-53.8,0c-5.3,0-10.6,0-10.6-7.4c0-7.4,4.2-8.4,10.6-8.4c31.7,0,64.4,0,96.1,0
		c8.4,0,11.6-2.1,11.6-10.6c0-27.4,0-54.9,0-82.3c0-7.4-2.1-8.4-9.5-8.4c-22.2,0-44.3,0-66.5,0c-7.4,0-8.4,2.1-8.4,9.5
		c0,16.9,0,33.8,0,50.7c0,6.3,2.1,8.4,8.4,7.4c16.9,0,32.7,0,49.6,0c5.3,0,10.6,0,10.6,8.4c0,6.3-4.2,7.4-9.5,7.4
		c-27.4,0-54.9,0-81.3,0c-7.4,0-10.6-3.2-9.5-10.6c0-21.1,0-41.2,0-62.3c0-16.9,6.3-24.3,23.2-25.3c34.8-1.1,70.7-1.1,105.6,0
		c15.8,0,22.2,8.4,23.2,24.3c0,27.4,0,54.9,0,82.3c0,15.8-6.3,23.2-22.2,24.3c-21.1,1.1-43.3,0-64.4,0
		C644.8,789.3,644.8,789.3,644.8,790.4z"/>
	<path fill="#FFFFFF" d="M1185.3,672.2c-26.4,0-50.7,0-76,0c-2.1,0-5.3,3.2-5.3,5.3c0,17.9,0,36.9,0,54.9c0,6.3,4.2,6.3,8.4,6.3
		c31.7,0,63.3,0,95,0c3.2,0,8.4,2.1,9.5,5.3c2.1,5.3,0,10.6-8.4,10.6c-35.9,0-71.8,0-108.7,0c-8.4,0-16.9-2.1-23.2-6.3
		c-4.2-3.2-7.4-11.6-7.4-17.9c-1.1-15.8,0-32.7,0-48.6c0-15.8,6.3-23.2,23.2-24.3c19-1.1,38-1.1,58.1-1.1c9.5,0,17.9,0,27.4,0
		c5.3,0,7.4-2.1,7.4-7.4c0-12.7,0-24.3,0-36.9c0-6.3,2.1-9.5,8.4-8.4c28.5,1.1,24.3-4.2,24.3,23.2c0,29.6,0,58.1,0,87.6
		c0,8.4-2.1,10.6-10.6,10.6c-26.4-1.1-22.2,3.2-23.2-23.2C1185.3,692.2,1185.3,682.7,1185.3,672.2z"/>
	<path fill="#FFFFFF" d="M328.1,753.4c-15.8,0-31.7,5.3-45.4-6.3c-14.8-11.6-30.6-22.2-45.4-33.8c-4.2-3.2-8.4-4.2-12.7-1.1
		l-1.1,1.1c-14.8,4.2-20.1,13.7-17.9,28.5c1.1,11.6,0,11.6-12.7,11.6c-23.2,0-21.1,1.1-21.1-20.1c0-40.1,0-80.2,0-120.3
		c0-11.6,1.1-11.6,11.6-11.6c23.2,0,22.2-4.2,22.2,22.2c0,22.2,0,45.4,0,67.6c0,3.2,0,5.3,0,11.6c13.7-7.4,24.3-13.7,35.9-20.1
		c10.6-6.3,21.1-10.6,30.6-17.9c12.7-9.5,27.4-11.6,42.2-9.5c3.2,0,5.3,2.1,7.4,3.2c-2.1,2.1-3.2,4.2-5.3,5.3
		c-16.9,9.5-33.8,19-50.7,28.5c-1.1,1.1-3.2,2.1-6.3,4.2c24.3,17.9,47.5,34.8,69.7,52.8C329.2,751.3,329.2,752.4,328.1,753.4z"/>
	<path fill="#FFFFFF" d="M1333.1,755.6c-16.9,0-33.8,0-50.7,0c-6.3,0-12.7-1.1-17.9-2.1c-9.5-2.1-15.8-8.4-15.8-17.9
		c0-20.1,0-40.1,0-60.2c0-9.5,6.3-14.8,15.8-16.9c6.3-1.1,12.7-2.1,19-2.1c26.4,0,52.8,0,79.2,0c2.1,0,4.2,0,5.3,0
		c25.3,1.1,31.7,7.4,30.6,31.7c0,22.2,3.2,20.1-20.1,20.1c-23.2,0-46.4,0-69.7,0c-6.3,0-10.6,0-10.6-8.4s5.3-7.4,10.6-7.4
		c16.9,0,32.7,0,49.6,0c7.4,0,8.4-4.2,7.4-9.5c0-5.3,2.1-11.6-7.4-11.6c-23.2,0-47.5,0-70.7,0c-2.1,0-6.3,4.2-6.3,6.3
		c0,17.9,0,35.9,0,53.8c0,7.4,5.3,6.3,9.5,6.3c32.7,0,65.4,0,98.2,0c3.2,0,9.5,3.2,10.6,5.3c2.1,6.3-1.1,10.6-8.4,9.5
		C1371.1,755.6,1352.1,755.6,1333.1,755.6L1333.1,755.6z"/>
	<path fill="#FFFFFF" d="M872.8,709.1c-20.1,0-40.1,0-61.2,0c-20.1,0-19-4.2-19,19c0,8.4,2.1,11.6,11.6,11.6c31.7,0,62.3,0,94,0
		c7.4,0,11.6,1.1,9.5,9.5c-1.1,2.1-4.2,6.3-6.3,6.3c-40.1,0-81.3,0-122.5-1.1c-13.7,0-19-8.4-20.1-21.1c0-3.2,0-5.3,0-8.4
		c0-23.2,6.3-29.6,29.6-29.6c24.3,0,49.6,0,73.9,0c9.5,0,14.8-9.5,9.5-17.9c-1.1-2.1-5.3-3.2-8.4-3.2c-30.6,0-60.2,0-90.8,0
		c-4.2,0-9.5,0-9.5-6.3c0-6.3,1.1-9.5,8.4-9.5c35.9,0,72.8,0,108.7,1.1c20.1,0,26.4,8.4,26.4,28.5c0,10.6,0,21.1,0,31.7
		c0,5.3-2.1,8.4-7.4,7.4c-3.2,0-6.3,0-9.5,0C876,723.9,876,723.9,872.8,709.1z"/>
	<path fill="#FFFFFF" d="M83.2,655.3c16.9,0,33.8,0,50.7,0c5.3,0,10.6,0,10.6,7.4c0,7.4-4.2,8.4-10.6,8.4c-29.6,0-59.1,0-88.7,0
		c-10.6,0-10.6,5.3-10.6,12.7c0,7.4,2.1,10.6,10.6,10.6c22.2,0,44.3,0,66.5,0c5.3,0,10.6,1.1,15.8,2.1c13.7,3.2,17.9,12.7,16.9,39.1
		c0,10.6-5.3,15.8-17.9,17.9c-5.3,1.1-11.6,2.1-16.9,2.1c-31.7,0-63.3,0-95,0c-4.2,0-10.6,1.1-11.6-5.3c-1.1-7.4,1.1-10.6,10.6-10.6
		c24.3,0,49.6,0,73.9,0c5.3,0,10.6,0,15.8,0c8.4,1.1,10.6-2.1,10.6-10.6c0-11.6,0-12.7-12.7-12.7c-24.3,0-48.6,0-73.9-1.1
		C8.3,714.4,1.9,707,1.9,688c0-4.2,0-8.4,0-11.6c1.1-10.6,7.4-17.9,17.9-19c21.1-1.1,43.3,0,64.4,0
		C83.2,656.3,83.2,655.3,83.2,655.3z"/>
	<path fill="#FFFFFF" d="M784.2,274.2c10.6,0,16.9,4.2,21.1,10.6c4.2,7.4,4.2,15.8-1.1,22.2c-7.4,10.6-11.6,22.2-8.4,34.8
		c2.1,6.3,5.3,12.7,8.4,19c5.3,8.4,6.3,16.9,0,25.3c-12.7,17.9-11.6,35.9,1.1,54.9c5.3,8.4,5.3,16.9,0,25.3
		c-12.7,17.9-12.7,35.9,0,54.9c7.4,9.5,5.3,21.1-3.2,28.5c-7.4,7.4-20.1,7.4-27.4,0c-8.4-7.4-10.6-17.9-4.2-28.5
		c12.7-19,12.7-36.9,0-54.9c-6.3-8.4-5.3-16.9,0-25.3c11.6-17.9,12.7-34.8-1.1-52.8c-6.3-8.4-6.3-16.9,0-25.3
		c12.7-19,11.6-36.9-1.1-54.9c-5.3-6.3-5.3-13.7-1.1-21.1C772.6,277.3,778.9,274.2,784.2,274.2z"/>
	<path fill="#FFFFFF" d="M1494.6,657.4c15.8,0,32.7,0,48.6,0c5.3,0,11.6,1.1,16.9,2.1c12.7,2.1,17.9,8.4,17.9,20.1
		c0,22.2,0,45.4,0,67.6c0,5.3-2.1,8.4-7.4,8.4c-30.6,0-25.3,4.2-26.4-24.3c0-16.9,0-32.7,0-49.6c0-6.3-2.1-9.5-8.4-9.5
		c-22.2,0-44.3,0-66.5,0c-7.4,0-8.4,3.2-8.4,8.4c0,21.1,0,42.2,0,63.3c0,8.4-3.2,11.6-11.6,11.6c-27.4-1.1-22.2,2.1-22.2-22.2
		c0-22.2,0-44.3,0-66.5c0-7.4,3.2-10.6,10.6-10.6C1457.7,657.4,1475.6,657.4,1494.6,657.4L1494.6,657.4z"/>
	<path fill="#FFFFFF" d="M425.2,790.4c-20.1,0-41.2,0-61.2,0c-5.3,0-12.7,2.1-12.7-8.4c0-9.5,7.4-7.4,12.7-7.4c30.6,0,61.2,0,91.8,0
		c9.5,0,11.6-3.2,11.6-11.6c0-31.7,0-63.3,0-95c0-11.6,0-12.7,11.6-11.6c25.3,0,21.1-2.1,21.1,21.1c0,33.8,0,68.6,0,102.4
		c0,8.4-2.1,10.6-10.6,10.6C467.5,789.3,446.4,790.4,425.2,790.4L425.2,790.4z"/>
	<path fill="#FFFFFF" d="M960.5,739.7c0-23.2,0-46.4,0-68.6c0-14.8,0-14.8,14.8-14.8c23.2,0,46.4,0,69.7,0c5.3,0,13.7-3.2,13.7,8.4
		c0,10.6-7.4,7.4-13.7,7.4c-13.7,0-27.4,0-41.2,0c-7.4,0-10.6,1.1-9.5,9.5c1.1,21.1,0,42.2,0,63.3c0,7.4-2.1,10.6-10.6,10.6
		c-17.9,0-35.9,0-52.8,0c-5.3,0-9.5-1.1-9.5-7.4c0-7.4,4.2-8.4,9.5-8.4C940.4,739.7,949.9,739.7,960.5,739.7z"/>
	<path fill="#FFFFFF" d="M384.1,697.5c0,10.6,0,21.1,0,31.7c0,8.4,2.1,9.5,9.5,9.5c15.8,0,30.6,0,45.4,0c5.3,0,9.5,1.1,9.5,7.4
		c0,6.3-4.2,8.4-9.5,8.4c-23.2,0-45.4,0-68.6-2.1c-14.8-1.1-20.1-8.4-21.1-23.2c0-22.2,0-43.3,0-65.5c0-6.3,2.1-8.4,8.4-8.4
		c30.6,1.1,24.3-4.2,25.3,24.3C384.1,685.9,384.1,692.2,384.1,697.5L384.1,697.5z"/>
	<path fill="#FFFFFF" d="M697.6,348.1c-2.1,4.2-2.1,8.4-5.3,11.6c-9.5,14.8-9.5,29.6,1.1,44.3c5.3,8.4,5.3,15.8,0,24.3
		c-9.5,14.8-9.5,28.5,1.1,43.3c5.3,6.3,6.3,14.8,1.1,21.1c-4.2,4.2-10.6,8.4-15.8,8.4c-5.3-1.1-12.7-6.3-14.8-10.6
		c-2.1-4.2-1.1-12.7,2.1-16.9c9.5-15.8,10.6-30.6-1.1-46.4c-5.3-6.3-5.3-14.8,0-21.1c11.6-15.8,10.6-30.6,0-46.4
		c-6.3-8.4-4.2-20.1,4.2-25.3c8.4-5.3,19-4.2,24.3,4.2C695.5,340.7,696.5,344.9,697.6,348.1z"/>
	<path fill="#FFFFFF" d="M899.2,502.2c-15.8-2.1-25.3-15.8-16.9-28.5c11.6-16.9,11.6-32.7,0-50.7c-3.2-4.2-2.1-13.7,1.1-19
		c10.6-16.9,10.6-31.7-1.1-47.5c-5.3-7.4-3.2-17.9,4.2-24.3c6.3-5.3,15.8-5.3,22.2,0c7.4,6.3,9.5,14.8,4.2,23.2
		c-11.6,16.9-11.6,31.7,1.1,48.6c5.3,6.3,4.2,13.7,0,20.1c-10.6,15.8-10.6,30.6,0,45.4c4.2,6.3,5.3,13.7,1.1,20.1
		C909.8,496.9,904.5,499,899.2,502.2z"/>
	<path fill="#FFFFFF" d="M1334.2,889.6c0,11.6,0,22.2,0,33.8c-5.3,0-9.5,0-14.8,0c0-16.9,0-34.8,0-52.8c7.4,0,14.8,0,22.2,0
		c2.1,0,5.3,3.2,6.3,5.3c5.3,8.4,9.5,17.9,14.8,28.5c5.3-9.5,9.5-16.9,13.7-24.3c3.2-7.4,8.4-10.6,15.8-9.5c4.2,0,8.4,0,13.7,0
		c0,17.9,0,34.8,0,52.8c-5.3,0-9.5,0-14.8,0c0-11.6,0-22.2,0-33.8c-1.1,0-1.1,0-2.1-1.1c-5.3,8.4-9.5,16.9-14.8,25.3
		c-3.2,4.2-4.2,9.5-11.6,9.5c-7.4,0-8.4-5.3-11.6-10.6c-5.3-8.4-9.5-16.9-14.8-25.3C1336.3,889.6,1335.2,889.6,1334.2,889.6z"/>
	<path fill="#FFFFFF" d="M875,871.7c17.9,0,35.9,0,53.8,0c4.2,0,9.5,4.2,11.6,8.4c2.1,5.3-1.1,10.6-1.1,17.9
		c5.3,3.2,6.3,9.5,3.2,17.9c-3.2,7.4-9.5,7.4-15.8,7.4c-16.9,0-33.8,0-50.7,0C875,906.5,875,889.6,875,871.7z M906.6,911.8
		L906.6,911.8c4.2,0,8.4,0,12.7,0c2.1,0,4.2-3.2,5.3-4.2c-2.1-1.1-3.2-3.2-5.3-4.2c-8.4,0-16.9,0-24.3,0c-2.1,0-3.2,2.1-4.2,4.2
		c1.1,1.1,3.2,4.2,4.2,4.2C899.2,911.8,903.5,911.8,906.6,911.8z M906.6,891.7c4.2,0,8.4,0,12.7,0c2.1,0,3.2-2.1,5.3-4.2
		c-1.1-1.1-3.2-3.2-4.2-3.2c-8.4,0-16.9,0-25.3,0c-1.1,0-3.2,2.1-3.2,4.2c0,1.1,2.1,3.2,3.2,3.2
		C898.2,892.8,902.4,891.7,906.6,891.7z"/>
	<path fill="#FFFFFF" d="M1272.9,924.5c-6.3,0-13.7,0-20.1,0c-11.6-1.1-15.8-6.3-16.9-17.9c0-4.2,0-9.5,0-13.7
		c0-15.8,5.3-22.2,21.1-22.2c11.6,0,23.2,0,34.8,0c3.2,0,6.3,1.1,8.4,2.1c14.8,9.5,8.4,25.3,8.4,38c0,8.4-6.3,13.7-16.9,13.7
		C1284.5,925.5,1278.2,924.5,1272.9,924.5L1272.9,924.5z M1272.9,884.3c-2.1,0-5.3,0-7.4,0c-4.2,1.1-10.6,2.1-11.6,4.2
		c-2.1,5.3-2.1,12.7,0,19c2.1,6.3,33.8,6.3,35.9,0c2.1-5.3,2.1-12.7,0-17.9c-1.1-2.1-7.4-3.2-11.6-5.3
		C1277.2,883.3,1275,884.3,1272.9,884.3z"/>
	<path fill="#FFFFFF" d="M471.7,888.6c-6.3,0-11.6,0-17.9-3.2c-8.4-4.2-20.1-2.1-29.6,0c-3.2,1.1-3.2,12.7-4.2,20.1
		c0,5.3,4.2,7.4,9.5,7.4c6.3,0,12.7,0,17.9,0c3.2,0,5.3-2.1,8.4-4.2c0-1.1-1.1-2.1-1.1-3.2c-6.3,0-12.7,0-19,0c0-4.2,0-7.4,0-10.6
		c11.6,0,23.2,0,35.9,0c0,6.3,0,12.7,0,20.1c-1.1,7.4-6.3,10.6-11.6,10.6c-13.7,0-28.5,0-42.2,0c-9.5,0-13.7-6.3-14.8-15.8
		c0-1.1,0-1.1,0-2.1c-2.1-32.7,2.1-36.9,34.8-36.9c7.4,0,15.8,0,23.2,1.1C470.6,872.7,472.7,878,471.7,888.6z"/>
	<path fill="#FFFFFF" d="M238.4,889.6c-6.3-2.1-11.6-5.3-17.9-6.3c-9.5-1.1-19-1.1-28.5-1.1c-1.1,0-2.1,2.1-2.1,3.2s2.1,3.2,3.2,3.2
		c3.2,1.1,7.4,1.1,10.6,1.1c7.4,0,14.8,0,22.2,1.1c10.6,1.1,13.7,5.3,13.7,15.8c0,11.6-2.1,15.8-12.7,16.9
		c-13.7,1.1-28.5,1.1-42.2,0c-9.5-1.1-12.7-6.3-10.6-16.9c6.3,1.1,11.6,0,17.9,4.2c7.4,4.2,19,1.1,29.6,1.1c1.1,0,2.1-3.2,2.1-3.2
		c-1.1-1.1-3.2-4.2-5.3-4.2c-9.5-1.1-19-1.1-28.5-1.1c-13.7-1.1-17.9-5.3-15.8-19c1.1-7.4,4.2-12.7,11.6-12.7
		c13.7,0,27.4-1.1,41.2,0C236.3,871.7,238.4,875.9,238.4,889.6z"/>
	<path fill="#FFFFFF" d="M640.6,924.5c0-17.9,0-34.8,0-51.7c20.1,0,40.1,0,59.1,0c7.4,0,11.6,6.3,11.6,13.7c0,6.3,0,12.7,0,17.9
		c0,12.7-4.2,17.9-15.8,19C677.5,924.5,659.6,924.5,640.6,924.5z M656.4,910.7c10.6,0,20.1,0,30.6,0c6.3,0,8.4-4.2,8.4-9.5
		c0-6.3,3.2-14.8-6.3-15.8c-10.6-1.1-21.1,0-31.7,0C656.4,893.8,656.4,901.2,656.4,910.7z"/>
	<path fill="#FFFFFF" d="M863.3,924.5c-7.4,0-14.8,0-21.1,0c-3.2,0-6.3-3.2-7.4-5.3c-8.4-10.6-16.9-21.1-26.4-32.7
		c0,13.7,0,25.3,0,38c-5.3,0-10.6,0-15.8,0c0-16.9,0-33.8,0-51.7c13.7-2.1,26.4-3.2,34.8,11.6c5.3,8.4,12.7,15.8,20.1,25.3
		c0-13.7,0-25.3,0-38c6.3,0,10.6,0,15.8,0C863.3,889.6,863.3,906.5,863.3,924.5z"/>
	<path fill="#FFFFFF" d="M623.7,901.2c2.1,8.4,3.2,14.8,5.3,22.2c-7.4,0-11.6,0-15.8,0c-3.2-14.8-6.3-15.8-32.7-12.7
		c0,4.2-1.1,8.4-1.1,12.7c-5.3,0-9.5,0-14.8,0c0-16.9,0-34.8,0-52.8c17.9,0,35.9,0,54.9,0c3.2,0,8.4,5.3,9.5,9.5
		C630,888.6,630,897,623.7,901.2z M579.4,897c9.5,0,17.9,0,26.4,0c2.1,0,5.3-4.2,5.3-6.3c0-2.1-3.2-5.3-5.3-5.3
		c-9.5-1.1-17.9,0-27.4,0C579.4,889.6,579.4,892.8,579.4,897z"/>
	<path fill="#FFFFFF" d="M1225.4,890.7c-7.4,0-11.6-1.1-19-4.2c-8.4-4.2-20.1-2.1-29.6,0c-2.1,1.1-3.2,12.7-3.2,19
		c0,2.1,5.3,5.3,8.4,5.3c5.3,1.1,11.6,0,16.9,0c2.1,0,6.3,0,6.3-2.1c4.2-8.4,11.6-4.2,16.9-5.3c3.2,12.7-1.1,20.1-13.7,20.1
		c-12.7,1.1-25.3,1.1-38,0c-11.6-1.1-15.8-6.3-16.9-17.9c0-5.3,0-11.6,0-16.9c0-12.7,5.3-17.9,17.9-19c11.6-1.1,24.3,0,35.9,0
		C1223.3,872.7,1226.5,875.9,1225.4,890.7z"/>
	<path fill="#FFFFFF" d="M776.8,891.7c0,4.2,0,6.3,0,10.6c-12.7,0-25.3,0-38,0c-3.2,6.3-1.1,9.5,5.3,9.5c11.6,0,23.2,0,35.9,0
		c0,4.2,0,8.4,0,12.7c-19,0-38,0-58.1,0c0-16.9,0-34.8,0-52.8c19,0,38,0,57,0c0,3.2,0,6.3,0,11.6c-11.6,0-23.2,0-34.8,0
		c-5.3,0-8.4,1.1-6.3,8.4C751.4,891.7,764.1,891.7,776.8,891.7z"/>
	<path fill="#FFFFFF" d="M1027,924.5c-9.5,0-17.9,3.2-23.2-7.4c0-1.1-4.2-2.1-6.3-2.1c-6.3,0-13.7-1.1-20.1,0
		c-3.2,0-6.3,4.2-10.6,5.3c-5.3,2.1-11.6,4.2-17.9,5.3c-1.1-1.1-1.1-2.1-2.1-3.2c5.3-9.5,10.6-19,15.8-28.5
		c2.1-4.2,4.2-7.4,6.3-11.6c7.4-13.7,9.5-14.8,24.3-11.6c2.1,0,4.2,2.1,5.3,3.2C1009,890.7,1017.5,906.5,1027,924.5z M986.8,883.3
		c-4.2,7.4-6.3,12.7-9.5,19c7.4,0,12.7,0,20.1,0C993.2,896,991.1,890.7,986.8,883.3z"/>
	<path fill="#FFFFFF" d="M557.2,924.5c-9.5,0-19,3.2-23.2-7.4c0-1.1-4.2-1.1-5.3-1.1c-7.4,0-14.8,0-22.2,0c-2.1,0-6.3,1.1-6.3,2.1
		c-4.2,11.6-13.7,6.3-22.2,7.4c9.5-17.9,17.9-33.8,27.4-50.7c2.1-4.2,21.1-4.2,24.3,0C538.2,889.6,547.7,906.5,557.2,924.5z
		 M517.1,883.3c-4.2,7.4-6.3,12.7-9.5,19c7.4,0,12.7,0,20.1,0C523.4,896,520.3,890.7,517.1,883.3z"/>
	<path fill="#FFFFFF" d="M316.5,872.7c-9.5,8.4-17.9,15.8-27.4,24.3c10.6,8.4,20.1,16.9,31.7,26.4c-11.6,1.1-22.2,3.2-30.6-6.3
		c-3.2-4.2-8.4-7.4-12.7-10.6c-2.1-2.1-5.3-2.1-9.5-3.2c0,7.4-1.1,13.7-1.1,21.1c-5.3,0-9.5,0-14.8,0c0-16.9,0-34.8,0-52.8
		c4.2,0,9.5,0,14.8,0c0,5.3,0,11.6,0,16.9c8.4,4.2,11.6-1.1,15.8-5.3C291.2,872.7,301.7,868.5,316.5,872.7z"/>
	<path fill="#FFFFFF" d="M1004.8,387.1c-2.1,4.2-2.1,7.4-4.2,10.6c-9.5,13.7-8.4,26.4,0,40.1c2.1,4.2,2.1,11.6,0,15.8
		c-2.1,7.4-11.6,9.5-19,6.3c-7.4-3.2-10.6-11.6-7.4-19c1.1-2.1,1.1-3.2,2.1-5.3c8.4-12.7,7.4-24.3,0-36.9
		c-6.3-9.5-5.3-17.9,3.2-22.2c4.2-2.1,10.6-3.2,14.8-1.1C999.5,377.6,1001.6,384,1004.8,387.1z"/>
	<path fill="#FFFFFF" d="M585.7,416.7c-3.2-7.4-7.4-13.7-9.5-21.1c-1.1-5.3-1.1-11.6,2.1-15.8c2.1-3.2,9.5-6.3,13.7-5.3
		c4.2,1.1,8.4,6.3,11.6,11.6c1.1,3.2,0,8.4-2.1,10.6c-9.5,13.7-8.4,27.4,0,41.2c4.2,7.4,3.2,14.8-3.2,20.1c-5.3,5.3-12.7,5.3-19,0
		c-6.3-4.2-7.4-12.7-3.2-21.1C581.5,430.4,583.6,423,585.7,416.7z"/>
	<path fill="#FFFFFF" d="M396.7,872.7c-6.3,8.4-12.7,15.8-20.1,23.2c-5.3,6.3-9.5,12.7-8.4,21.1c0,2.1,0,4.2-1.1,6.3
		c-5.3,0-9.5,0-15.8,0c5.3-24.3-17.9-34.8-27.4-51.7c20.1-7.4,25.3,9.5,35.9,20.1C371.4,883.3,375.6,864.3,396.7,872.7z"/>
	<path fill="#FFFFFF" d="M1049.1,910.7c12.7,0,24.3,0,36.9,0c0,5.3,0,8.4,0,13.7c-16.9,0-33.8,0-51.7,0c0-16.9,0-34.8,0-52.8
		c5.3,0,9.5,0,14.8,0C1049.1,884.3,1049.1,897,1049.1,910.7z"/>
	<path fill="#FFFFFF" d="M1094.5,871.7c5.3,0,10.6,0,15.8,0c0,17.9,0,34.8,0,52.8c-5.3,0-9.5,0-15.8,0
		C1094.5,906.5,1094.5,889.6,1094.5,871.7z"/>
	<path fill="#FFFFFF" d="M519.2,431.5c-6.3,0-12.7-6.3-12.7-13.7c0-6.3,7.4-12.7,13.7-12.7s12.7,7.4,12.7,13.7
		C532.9,425.1,525.5,431.5,519.2,431.5z"/>
	<path fill="#FFFFFF" d="M1059.7,406.1c6.3,0,12.7,5.3,12.7,12.7c0,6.3-5.3,12.7-11.6,12.7c-7.4,0-13.7-5.3-13.7-12.7
		C1047,412.5,1053.4,406.1,1059.7,406.1z"/>
	<path fill="#FFFFFF" d="M1127.3,909.7c5.3,0,9.5,0,13.7,0c0,5.3,0,9.5,0,14.8c-4.2,0-9.5,0-13.7,0
		C1127.3,919.2,1127.3,915,1127.3,909.7z"/>
	<path fill="#FFFFFF" d="M1597,626.8c0,5.3,1.1,10.6,1.1,15.8c-1.1,0-1.1,0-2.1,0c0-3.2-1.1-6.3-2.1-10.6c-2.1,4.2-3.2,7.4-5.3,11.6
		c-2.1-4.2-3.2-7.4-5.3-11.6c0,4.2-1.1,7.4-1.1,9.5c-1.1,0-1.1,0-2.1,0c0-5.3,1.1-10.6,1.1-15.8c1.1,0,1.1,0,2.1,0
		c2.1,4.2,3.2,7.4,5.3,12.7c2.1-4.2,4.2-8.4,5.3-11.6C1596,626.8,1596,626.8,1597,626.8z"/>
	<path fill="#FFFFFF" d="M1574.8,626.8c-1.1,5.3-2.1,11.6-2.1,16.9h-1.1c-1.1-5.3-2.1-11.6-3.2-16.9
		C1569.6,626.8,1572.7,626.8,1574.8,626.8z"/>
</g>
</svg>
