<?xml version="1.0" encoding="utf-8"?>
<!-- Generator: Adobe Illustrator 13.0.0, SVG Export Plug-In . SVG Version: 6.00 Build 14948)  -->
<!DOCTYPE svg PUBLIC "-//W3C//DTD SVG 1.1//EN" "http://www.w3.org/Graphics/SVG/1.1/DTD/svg11.dtd">
<svg version="1.1" id="Layer_1" xmlns="http://www.w3.org/2000/svg" xmlns:xlink="http://www.w3.org/1999/xlink" x="0px" y="0px"
	 width="269.333px" height="319.335px" viewBox="-98.832 -154.168 269.333 319.335"
	 enable-background="new -98.832 -154.168 269.333 319.335" xml:space="preserve">
<g>
	<circle fill="#D9083C" cx="-11.833" cy="-54.583" r="2"/>
	<circle fill="#D9083C" cx="-23.833" cy="-54.583" r="2"/>
	<circle fill="#D9083C" cx="-35.833" cy="-54.583" r="2"/>
	<circle fill="#D9083C" cx="-11.833" cy="-66.583" r="2"/>
	<circle fill="#D9083C" cx="-23.833" cy="-66.583" r="2"/>
	<circle fill="#D9083C" cx="-35.833" cy="-66.583" r="2"/>
	<circle fill="#D9083C" cx="-11.833" cy="-42.833" r="2"/>
	<circle fill="#D9083C" cx="-23.833" cy="-42.833" r="2"/>
	<circle fill="#D9083C" cx="-35.833" cy="-42.833" r="2"/>
	<circle fill="#D9083C" cx="-11.833" cy="-31.583" r="2"/>
	<circle fill="#D9083C" cx="-23.833" cy="-31.583" r="2"/>
	<circle fill="#D9083C" cx="-35.833" cy="-31.583" r="2"/>
	<circle fill="#D9083C" cx="-11.833" cy="-19.833" r="2"/>
	<circle fill="#D9083C" cx="-23.833" cy="-19.833" r="2"/>
	<circle fill="#D9083C" cx="-35.833" cy="-19.833" r="2"/>
	<circle fill="#D9083C" cx="-48.083" cy="-54.583" r="2"/>
	<circle fill="#D9083C" cx="-48.083" cy="-42.833" r="2"/>
	<circle fill="#D9083C" cx="-48.083" cy="-31.583" r="2"/>
	<circle fill="#D9083C" cx="-48.083" cy="-19.833" r="2"/>
	<circle fill="#D9083C" cx="-58.916" cy="-42.833" r="2"/>
	<circle fill="#D9083C" cx="-58.916" cy="-31.583" r="2"/>
	<circle fill="#D9083C" cx="-58.916" cy="-19.833" r="2"/>
	<circle fill="#D9083C" cx="-11.833" cy="-9.083" r="2"/>
	<circle fill="#D9083C" cx="-23.833" cy="-9.083" r="2"/>
	<circle fill="#D9083C" cx="-35.833" cy="-9.083" r="2"/>
	<circle fill="#D9083C" cx="-11.833" cy="2.167" r="2"/>
	<circle fill="#D9083C" cx="-23.833" cy="2.167" r="2"/>
	<circle fill="#D9083C" cx="-11.833" cy="13.917" r="2"/>
	<circle fill="#D9083C" cx="-23.833" cy="13.917" r="2"/>
	<circle fill="#D9083C" cx="-48.083" cy="-9.083" r="2"/>
	<circle fill="#D9083C" cx="-11.833" cy="26.833" r="2"/>
	<circle fill="#D9083C" cx="-23.833" cy="26.833" r="2"/>
	<circle fill="#D9083C" cx="-11.833" cy="38.083" r="2"/>
	<circle fill="#D9083C" cx="-23.833" cy="38.083" r="2"/>
	<circle fill="#D9083C" cx="-11.833" cy="49.833" r="2"/>
	<circle fill="#D9083C" cx="-23.833" cy="49.833" r="2"/>
	<circle fill="#D9083C" cx="-11.833" cy="61.833" r="2"/>
	<circle fill="#D9083C" cx="-23.833" cy="61.833" r="2"/>
	<circle fill="#D9083C" cx="-11.833" cy="73.083" r="2"/>
	<circle fill="#D9083C" cx="-23.833" cy="73.083" r="2"/>
	<circle fill="#D9083C" cx="-11.833" cy="84.833" r="2"/>
	<circle fill="#D9083C" cx="-23.833" cy="84.833" r="2"/>
	<circle fill="#D9083C" cx="-88.416" cy="-9.083" r="2"/>
	<circle fill="#D9083C" cx="-79.332" cy="-9.083" r="2"/>
	<circle fill="#D9083C" cx="-69.082" cy="-9.083" r="2"/>
	<circle fill="#D9083C" cx="-59.082" cy="-9.083" r="2"/>
	<circle fill="#D9083C" cx="-69.666" cy="-31.583" r="2"/>
	<circle fill="#D9083C" cx="-78.666" cy="-19.833" r="2"/>
	<circle fill="#D9083C" cx="-68.666" cy="-19.833" r="2"/>
	<path fill="#D9083C" d="M-69.666-33.833c1.104,0,2,0.895,2,2c0,1.104-0.896,2-2,2"/>
	<circle fill="#D9083C" cx="26.043" cy="-135.958" r="2"/>
	<circle fill="#D9083C" cx="26.043" cy="-124.708" r="2"/>
	<circle fill="#D9083C" cx="26.043" cy="-112.958" r="2"/>
	<circle fill="#D9083C" cx="-3.457" cy="-102.208" r="2"/>
	<circle fill="#D9083C" cx="5.625" cy="-102.208" r="2"/>
	<circle fill="#D9083C" cx="15.875" cy="-102.208" r="2"/>
	<circle fill="#D9083C" cx="25.875" cy="-102.208" r="2"/>
	<circle fill="#D9083C" cx="15.293" cy="-124.708" r="2"/>
	<circle fill="#D9083C" cx="6.293" cy="-112.958" r="2"/>
	<circle fill="#D9083C" cx="16.293" cy="-112.958" r="2"/>
	<path fill="#D9083C" d="M15.293-126.958c1.104,0,2,0.895,2,2c0,1.104-0.896,2-2,2"/>
	<circle fill="#D9083C" cx="-11.833" cy="-78.583" r="2"/>
	<circle fill="#D9083C" cx="-23.833" cy="-78.583" r="2"/>
	<circle fill="#D9083C" cx="-11.833" cy="-90.583" r="2"/>
	<circle fill="#D9083C" cx="1.334" cy="-66.583" r="2"/>
	<circle fill="#D9083C" cx="1.334" cy="-78.583" r="2"/>
	<circle fill="#D9083C" cx="1.334" cy="-90.583" r="2"/>
	<circle fill="#D9083C" cx="13" cy="-78.583" r="2"/>
	<circle fill="#D9083C" cx="13" cy="-90.583" r="2"/>
	<circle fill="#D9083C" cx="24.662" cy="-90.583" r="2"/>
	<circle fill="#D9083C" cx="25.334" cy="-54.583" r="2"/>
	<circle fill="#D9083C" cx="13.334" cy="-54.583" r="2"/>
	<circle fill="#D9083C" cx="25.334" cy="-66.583" r="2"/>
	<circle fill="#D9083C" cx="13.334" cy="-66.583" r="2"/>
	<circle fill="#D9083C" cx="25.334" cy="-42.833" r="2"/>
	<circle fill="#D9083C" cx="13.334" cy="-42.833" r="2"/>
	<circle fill="#D9083C" cx="25.334" cy="-31.583" r="2"/>
	<circle fill="#D9083C" cx="13.334" cy="-31.583" r="2"/>
	<circle fill="#D9083C" cx="25.334" cy="-19.833" r="2"/>
	<circle fill="#D9083C" cx="13.334" cy="-19.833" r="2"/>
	<circle fill="#D9083C" cx="1.084" cy="-54.583" r="2"/>
	<circle fill="#D9083C" cx="1.084" cy="-42.833" r="2"/>
	<circle fill="#D9083C" cx="1.084" cy="-31.583" r="2"/>
	<circle fill="#D9083C" cx="1.084" cy="-19.833" r="2"/>
	<circle fill="#D9083C" cx="25.334" cy="-9.083" r="2"/>
	<circle fill="#D9083C" cx="13.334" cy="-9.083" r="2"/>
	<circle fill="#D9083C" cx="25.334" cy="2.167" r="2"/>
	<circle fill="#D9083C" cx="13.334" cy="2.167" r="2"/>
	<circle fill="#D9083C" cx="25.334" cy="13.917" r="2"/>
	<circle fill="#D9083C" cx="13.334" cy="13.917" r="2"/>
	<circle fill="#D9083C" cx="1.084" cy="-9.083" r="2"/>
	<circle fill="#D9083C" cx="1.084" cy="2.167" r="2"/>
	<circle fill="#D9083C" cx="1.084" cy="13.917" r="2"/>
	<circle fill="#D9083C" cx="25.334" cy="26.833" r="2"/>
	<circle fill="#D9083C" cx="13.334" cy="26.833" r="2"/>
	<circle fill="#D9083C" cx="25.334" cy="38.083" r="2"/>
	<circle fill="#D9083C" cx="13.334" cy="38.083" r="2"/>
	<circle fill="#D9083C" cx="25.334" cy="49.833" r="2"/>
	<circle fill="#D9083C" cx="13.334" cy="49.833" r="2"/>
	<circle fill="#D9083C" cx="1.084" cy="26.833" r="2"/>
	<circle fill="#D9083C" cx="1.084" cy="38.083" r="2"/>
	<circle fill="#D9083C" cx="1.084" cy="49.833" r="2"/>
	<circle fill="#D9083C" cx="25.334" cy="61.833" r="2"/>
	<circle fill="#D9083C" cx="13.334" cy="61.833" r="2"/>
	<circle fill="#D9083C" cx="25.334" cy="73.083" r="2"/>
	<circle fill="#D9083C" cx="13.334" cy="73.083" r="2"/>
	<circle fill="#D9083C" cx="25.334" cy="84.833" r="2"/>
	<circle fill="#D9083C" cx="13.334" cy="84.833" r="2"/>
	<circle fill="#D9083C" cx="1.084" cy="61.833" r="2"/>
	<circle fill="#D9083C" cx="1.084" cy="73.083" r="2"/>
	<circle fill="#D9083C" cx="1.084" cy="84.833" r="2"/>
	<circle fill="#D9083C" cx="-11.833" cy="97.396" r="2"/>
	<circle fill="#D9083C" cx="-23.833" cy="97.396" r="2"/>
	<circle fill="#D9083C" cx="-11.833" cy="109.146" r="2"/>
	<circle fill="#D9083C" cx="-23.833" cy="109.146" r="2"/>
	<circle fill="#D9083C" cx="-11.833" cy="121.146" r="2"/>
	<circle fill="#D9083C" cx="-23.833" cy="121.146" r="2"/>
	<circle fill="#D9083C" cx="-11.833" cy="132.396" r="2"/>
	<circle fill="#D9083C" cx="-23.833" cy="132.396" r="2"/>
	<circle fill="#D9083C" cx="-11.833" cy="144.146" r="2"/>
	<circle fill="#D9083C" cx="-23.833" cy="144.146" r="2"/>
	<circle fill="#D9083C" cx="25.334" cy="97.396" r="2"/>
	<circle fill="#D9083C" cx="13.334" cy="97.396" r="2"/>
	<circle fill="#D9083C" cx="25.334" cy="109.146" r="2"/>
	<circle fill="#D9083C" cx="13.334" cy="109.146" r="2"/>
	<circle fill="#D9083C" cx="1.084" cy="97.396" r="2"/>
	<circle fill="#D9083C" cx="1.084" cy="109.146" r="2"/>
	<circle fill="#D9083C" cx="25.334" cy="121.146" r="2"/>
	<circle fill="#D9083C" cx="13.334" cy="121.146" r="2"/>
	<circle fill="#D9083C" cx="25.334" cy="132.396" r="2"/>
	<circle fill="#D9083C" cx="13.334" cy="132.396" r="2"/>
	<circle fill="#D9083C" cx="25.334" cy="144.146" r="2"/>
	<circle fill="#D9083C" cx="13.334" cy="144.146" r="2"/>
	<circle fill="#D9083C" cx="1.084" cy="121.146" r="2"/>
	<circle fill="#D9083C" cx="1.084" cy="132.396" r="2"/>
	<circle fill="#D9083C" cx="1.084" cy="144.146" r="2"/>
	<circle fill="#D9083C" cx="25.334" cy="-78.583" r="2"/>
</g>
<g>
	<circle fill="#D9083C" cx="86.167" cy="-54.583" r="2"/>
	<circle fill="#D9083C" cx="98.167" cy="-54.583" r="2"/>
	<circle fill="#D9083C" cx="110.167" cy="-54.583" r="2"/>
	<circle fill="#D9083C" cx="86.167" cy="-66.583" r="2"/>
	<circle fill="#D9083C" cx="98.167" cy="-66.583" r="2"/>
	<circle fill="#D9083C" cx="110.167" cy="-66.583" r="2"/>
	<circle fill="#D9083C" cx="86.167" cy="-42.833" r="2"/>
	<circle fill="#D9083C" cx="98.167" cy="-42.833" r="2"/>
	<circle fill="#D9083C" cx="110.167" cy="-42.833" r="2"/>
	<circle fill="#D9083C" cx="86.167" cy="-31.583" r="2"/>
	<circle fill="#D9083C" cx="98.167" cy="-31.583" r="2"/>
	<circle fill="#D9083C" cx="110.167" cy="-31.583" r="2"/>
	<circle fill="#D9083C" cx="86.167" cy="-19.833" r="2"/>
	<circle fill="#D9083C" cx="98.167" cy="-19.833" r="2"/>
	<circle fill="#D9083C" cx="110.167" cy="-19.833" r="2"/>
	<circle fill="#D9083C" cx="122.417" cy="-54.583" r="2"/>
	<circle fill="#D9083C" cx="122.417" cy="-42.833" r="2"/>
	<circle fill="#D9083C" cx="122.417" cy="-31.583" r="2"/>
	<circle fill="#D9083C" cx="122.417" cy="-19.833" r="2"/>
	<circle fill="#D9083C" cx="133.25" cy="-42.833" r="2"/>
	<circle fill="#D9083C" cx="133.25" cy="-31.583" r="2"/>
	<circle fill="#D9083C" cx="133.25" cy="-19.833" r="2"/>
	<circle fill="#D9083C" cx="86.167" cy="-9.083" r="2"/>
	<circle fill="#D9083C" cx="98.167" cy="-9.083" r="2"/>
	<circle fill="#D9083C" cx="110.167" cy="-9.083" r="2"/>
	<circle fill="#D9083C" cx="86.167" cy="2.167" r="2"/>
	<circle fill="#D9083C" cx="98.167" cy="2.167" r="2"/>
	<circle fill="#D9083C" cx="86.167" cy="13.917" r="2"/>
	<circle fill="#D9083C" cx="98.167" cy="13.917" r="2"/>
	<circle fill="#D9083C" cx="122.417" cy="-9.083" r="2"/>
	<circle fill="#D9083C" cx="86.167" cy="26.833" r="2"/>
	<circle fill="#D9083C" cx="98.167" cy="26.833" r="2"/>
	<circle fill="#D9083C" cx="86.167" cy="38.083" r="2"/>
	<circle fill="#D9083C" cx="98.167" cy="38.083" r="2"/>
	<circle fill="#D9083C" cx="86.167" cy="49.833" r="2"/>
	<circle fill="#D9083C" cx="98.167" cy="49.833" r="2"/>
	<circle fill="#D9083C" cx="86.167" cy="61.833" r="2"/>
	<circle fill="#D9083C" cx="98.167" cy="61.833" r="2"/>
	<circle fill="#D9083C" cx="86.167" cy="73.083" r="2"/>
	<circle fill="#D9083C" cx="98.167" cy="73.083" r="2"/>
	<circle fill="#D9083C" cx="86.167" cy="84.833" r="2"/>
	<circle fill="#D9083C" cx="98.167" cy="84.833" r="2"/>
	<circle fill="#D9083C" cx="162.75" cy="-9.083" r="2"/>
	<circle fill="#D9083C" cx="153.667" cy="-9.083" r="2"/>
	<circle fill="#D9083C" cx="143.417" cy="-9.083" r="2"/>
	<circle fill="#D9083C" cx="133.417" cy="-9.083" r="2"/>
	<circle fill="#D9083C" cx="144" cy="-31.583" r="2"/>
	<circle fill="#D9083C" cx="153" cy="-19.833" r="2"/>
	<circle fill="#D9083C" cx="143" cy="-19.833" r="2"/>
	<path fill="#D9083C" d="M144-29.833c-1.104,0-2-0.896-2-2c0-1.105,0.896-2,2-2"/>
	<circle fill="#D9083C" cx="37.458" cy="-147.707" r="2"/>
	<circle fill="#D9083C" cx="37.458" cy="-135.958" r="2"/>
	<circle fill="#D9083C" cx="37.458" cy="-124.708" r="2"/>
	<circle fill="#D9083C" cx="37.458" cy="-112.958" r="2"/>
	<circle fill="#D9083C" cx="48.292" cy="-135.958" r="2"/>
	<circle fill="#D9083C" cx="48.292" cy="-124.708" r="2"/>
	<circle fill="#D9083C" cx="48.292" cy="-112.958" r="2"/>
	<circle fill="#D9083C" cx="37.458" cy="-102.208" r="2"/>
	<circle fill="#D9083C" cx="77.792" cy="-102.208" r="2"/>
	<circle fill="#D9083C" cx="68.708" cy="-102.208" r="2"/>
	<circle fill="#D9083C" cx="58.458" cy="-102.208" r="2"/>
	<circle fill="#D9083C" cx="48.458" cy="-102.208" r="2"/>
	<circle fill="#D9083C" cx="59.042" cy="-124.708" r="2"/>
	<circle fill="#D9083C" cx="68.042" cy="-112.958" r="2"/>
	<circle fill="#D9083C" cx="58.042" cy="-112.958" r="2"/>
	<path fill="#D9083C" d="M59.042-122.958c-1.104,0-2-0.896-2-2c0-1.105,0.896-2,2-2"/>
	<circle fill="#D9083C" cx="86.167" cy="-78.583" r="2"/>
	<circle fill="#D9083C" cx="98.167" cy="-78.583" r="2"/>
	<circle fill="#D9083C" cx="86.167" cy="-90.583" r="2"/>
	<circle fill="#D9083C" cx="73" cy="-66.583" r="2"/>
	<circle fill="#D9083C" cx="73" cy="-78.583" r="2"/>
	<circle fill="#D9083C" cx="73" cy="-90.583" r="2"/>
	<circle fill="#D9083C" cx="61.333" cy="-78.583" r="2"/>
	<circle fill="#D9083C" cx="61.333" cy="-90.583" r="2"/>
	<circle fill="#D9083C" cx="49.672" cy="-90.583" r="2"/>
	<circle fill="#D9083C" cx="37" cy="-54.583" r="2"/>
	<circle fill="#D9083C" cx="49" cy="-54.583" r="2"/>
	<circle fill="#D9083C" cx="61" cy="-54.583" r="2"/>
	<circle fill="#D9083C" cx="37" cy="-66.583" r="2"/>
	<circle fill="#D9083C" cx="49" cy="-66.583" r="2"/>
	<circle fill="#D9083C" cx="61" cy="-66.583" r="2"/>
	<circle fill="#D9083C" cx="37" cy="-42.833" r="2"/>
	<circle fill="#D9083C" cx="49" cy="-42.833" r="2"/>
	<circle fill="#D9083C" cx="61" cy="-42.833" r="2"/>
	<circle fill="#D9083C" cx="37" cy="-31.583" r="2"/>
	<circle fill="#D9083C" cx="49" cy="-31.583" r="2"/>
	<circle fill="#D9083C" cx="61" cy="-31.583" r="2"/>
	<circle fill="#D9083C" cx="37" cy="-19.833" r="2"/>
	<circle fill="#D9083C" cx="49" cy="-19.833" r="2"/>
	<circle fill="#D9083C" cx="61" cy="-19.833" r="2"/>
	<circle fill="#D9083C" cx="73.25" cy="-54.583" r="2"/>
	<circle fill="#D9083C" cx="73.25" cy="-42.833" r="2"/>
	<circle fill="#D9083C" cx="73.25" cy="-31.583" r="2"/>
	<circle fill="#D9083C" cx="73.25" cy="-19.833" r="2"/>
	<circle fill="#D9083C" cx="37" cy="-9.083" r="2"/>
	<circle fill="#D9083C" cx="49" cy="-9.083" r="2"/>
	<circle fill="#D9083C" cx="61" cy="-9.083" r="2"/>
	<circle fill="#D9083C" cx="37" cy="2.167" r="2"/>
	<circle fill="#D9083C" cx="49" cy="2.167" r="2"/>
	<circle fill="#D9083C" cx="61" cy="2.167" r="2"/>
	<circle fill="#D9083C" cx="37" cy="13.917" r="2"/>
	<circle fill="#D9083C" cx="49" cy="13.917" r="2"/>
	<circle fill="#D9083C" cx="61" cy="13.917" r="2"/>
	<circle fill="#D9083C" cx="73.25" cy="-9.083" r="2"/>
	<circle fill="#D9083C" cx="73.25" cy="2.167" r="2"/>
	<circle fill="#D9083C" cx="73.25" cy="13.917" r="2"/>
	<circle fill="#D9083C" cx="37" cy="26.833" r="2"/>
	<circle fill="#D9083C" cx="49" cy="26.833" r="2"/>
	<circle fill="#D9083C" cx="61" cy="26.833" r="2"/>
	<circle fill="#D9083C" cx="37" cy="38.083" r="2"/>
	<circle fill="#D9083C" cx="49" cy="38.083" r="2"/>
	<circle fill="#D9083C" cx="61" cy="38.083" r="2"/>
	<circle fill="#D9083C" cx="37" cy="49.833" r="2"/>
	<circle fill="#D9083C" cx="49" cy="49.833" r="2"/>
	<circle fill="#D9083C" cx="61" cy="49.833" r="2"/>
	<circle fill="#D9083C" cx="73.25" cy="26.833" r="2"/>
	<circle fill="#D9083C" cx="73.25" cy="38.083" r="2"/>
	<circle fill="#D9083C" cx="73.25" cy="49.833" r="2"/>
	<circle fill="#D9083C" cx="37" cy="61.833" r="2"/>
	<circle fill="#D9083C" cx="49" cy="61.833" r="2"/>
	<circle fill="#D9083C" cx="61" cy="61.833" r="2"/>
	<circle fill="#D9083C" cx="37" cy="73.083" r="2"/>
	<circle fill="#D9083C" cx="49" cy="73.083" r="2"/>
	<circle fill="#D9083C" cx="61" cy="73.083" r="2"/>
	<circle fill="#D9083C" cx="37" cy="84.833" r="2"/>
	<circle fill="#D9083C" cx="49" cy="84.833" r="2"/>
	<circle fill="#D9083C" cx="61" cy="84.833" r="2"/>
	<circle fill="#D9083C" cx="73.25" cy="61.833" r="2"/>
	<circle fill="#D9083C" cx="73.25" cy="73.083" r="2"/>
	<circle fill="#D9083C" cx="73.25" cy="84.833" r="2"/>
	<circle fill="#D9083C" cx="86.167" cy="97.396" r="2"/>
	<circle fill="#D9083C" cx="98.167" cy="97.396" r="2"/>
	<circle fill="#D9083C" cx="86.167" cy="109.146" r="2"/>
	<circle fill="#D9083C" cx="98.167" cy="109.146" r="2"/>
	<circle fill="#D9083C" cx="86.167" cy="121.146" r="2"/>
	<circle fill="#D9083C" cx="98.167" cy="121.146" r="2"/>
	<circle fill="#D9083C" cx="86.167" cy="132.396" r="2"/>
	<circle fill="#D9083C" cx="98.167" cy="132.396" r="2"/>
	<circle fill="#D9083C" cx="86.167" cy="144.146" r="2"/>
	<circle fill="#D9083C" cx="98.167" cy="144.146" r="2"/>
	<circle fill="#D9083C" cx="37" cy="97.396" r="2"/>
	<circle fill="#D9083C" cx="49" cy="97.396" r="2"/>
	<circle fill="#D9083C" cx="61" cy="97.396" r="2"/>
	<circle fill="#D9083C" cx="37" cy="109.146" r="2"/>
	<circle fill="#D9083C" cx="49" cy="109.146" r="2"/>
	<circle fill="#D9083C" cx="61" cy="109.146" r="2"/>
	<circle fill="#D9083C" cx="73.25" cy="97.396" r="2"/>
	<circle fill="#D9083C" cx="73.25" cy="109.146" r="2"/>
	<circle fill="#D9083C" cx="37" cy="121.146" r="2"/>
	<circle fill="#D9083C" cx="49" cy="121.146" r="2"/>
	<circle fill="#D9083C" cx="61" cy="121.146" r="2"/>
	<circle fill="#D9083C" cx="37" cy="132.396" r="2"/>
	<circle fill="#D9083C" cx="49" cy="132.396" r="2"/>
	<circle fill="#D9083C" cx="61" cy="132.396" r="2"/>
	<circle fill="#D9083C" cx="37" cy="144.146" r="2"/>
	<circle fill="#D9083C" cx="49" cy="144.146" r="2"/>
	<circle fill="#D9083C" cx="61" cy="144.146" r="2"/>
	<circle fill="#D9083C" cx="73.25" cy="121.146" r="2"/>
	<circle fill="#D9083C" cx="73.25" cy="132.396" r="2"/>
	<circle fill="#D9083C" cx="73.25" cy="144.146" r="2"/>
	<circle fill="#D9083C" cx="-12.833" cy="154.917" r="2"/>
	<circle fill="#D9083C" cx="-24.833" cy="154.917" r="2"/>
	<circle fill="#D9083C" cx="24.334" cy="154.917" r="2"/>
	<circle fill="#D9083C" cx="12.334" cy="154.917" r="2"/>
	<circle fill="#D9083C" cx="0.084" cy="154.917" r="2"/>
	<circle fill="#D9083C" cx="86.167" cy="154.917" r="2"/>
	<circle fill="#D9083C" cx="98.167" cy="154.917" r="2"/>
	<circle fill="#D9083C" cx="37" cy="154.917" r="2"/>
	<circle fill="#D9083C" cx="49" cy="154.917" r="2"/>
	<circle fill="#D9083C" cx="61" cy="154.917" r="2"/>
	<circle fill="#D9083C" cx="73.25" cy="154.917" r="2"/>
	<circle fill="#D9083C" cx="37" cy="-78.583" r="2"/>
	<circle fill="#D9083C" cx="49" cy="-78.583" r="2"/>
	<circle fill="#D9083C" cx="37" cy="-90.583" r="2"/>
</g>
</svg>
