<?xml version="1.0" encoding="utf-8"?>
<!-- Generator: Adobe Illustrator 13.0.0, SVG Export Plug-In . SVG Version: 6.00 Build 14948)  -->
<!DOCTYPE svg PUBLIC "-//W3C//DTD SVG 1.1//EN" "http://www.w3.org/Graphics/SVG/1.1/DTD/svg11.dtd">
<svg version="1.1" id="Layer_1" xmlns="http://www.w3.org/2000/svg" xmlns:xlink="http://www.w3.org/1999/xlink" x="0px" y="0px"
	 width="269.333px" height="319.335px" viewBox="-98.832 -154.168 269.333 319.335"
	 enable-background="new -98.832 -154.168 269.333 319.335" xml:space="preserve">
<g>
	<circle fill="#D9083C" cx="90.667" cy="68.666" r="2"/>
	<circle fill="#D9083C" cx="102.667" cy="68.666" r="2"/>
	<circle fill="#D9083C" cx="114.667" cy="68.666" r="2"/>
	<circle fill="#D9083C" cx="90.667" cy="80.666" r="2"/>
	<circle fill="#D9083C" cx="102.667" cy="80.666" r="2"/>
	<circle fill="#D9083C" cx="114.667" cy="80.666" r="2"/>
	<circle fill="#D9083C" cx="90.667" cy="56.916" r="2"/>
	<circle fill="#D9083C" cx="102.667" cy="56.916" r="2"/>
	<circle fill="#D9083C" cx="114.667" cy="56.916" r="2"/>
	<circle fill="#D9083C" cx="90.667" cy="45.666" r="2"/>
	<circle fill="#D9083C" cx="102.667" cy="45.666" r="2"/>
	<circle fill="#D9083C" cx="114.667" cy="45.666" r="2"/>
	<circle fill="#D9083C" cx="90.667" cy="33.916" r="2"/>
	<circle fill="#D9083C" cx="102.667" cy="33.916" r="2"/>
	<circle fill="#D9083C" cx="114.667" cy="33.916" r="2"/>
	<circle fill="#D9083C" cx="126.917" cy="68.666" r="2"/>
	<circle fill="#D9083C" cx="126.917" cy="56.916" r="2"/>
	<circle fill="#D9083C" cx="126.917" cy="45.666" r="2"/>
	<circle fill="#D9083C" cx="126.917" cy="33.916" r="2"/>
	<circle fill="#D9083C" cx="137.75" cy="56.916" r="2"/>
	<circle fill="#D9083C" cx="137.75" cy="45.666" r="2"/>
	<circle fill="#D9083C" cx="137.75" cy="33.916" r="2"/>
	<circle fill="#D9083C" cx="90.667" cy="23.166" r="2"/>
	<circle fill="#D9083C" cx="102.667" cy="23.166" r="2"/>
	<circle fill="#D9083C" cx="114.667" cy="23.166" r="2"/>
	<circle fill="#D9083C" cx="90.667" cy="11.917" r="2"/>
	<circle fill="#D9083C" cx="102.667" cy="11.917" r="2"/>
	<circle fill="#D9083C" cx="90.667" cy="0.167" r="2"/>
	<circle fill="#D9083C" cx="102.667" cy="0.167" r="2"/>
	<circle fill="#D9083C" cx="126.917" cy="23.166" r="2"/>
	<circle fill="#D9083C" cx="90.667" cy="-12.75" r="2"/>
	<circle fill="#D9083C" cx="102.667" cy="-12.75" r="2"/>
	<circle fill="#D9083C" cx="90.667" cy="-24" r="2"/>
	<circle fill="#D9083C" cx="102.667" cy="-24" r="2"/>
	<circle fill="#D9083C" cx="90.667" cy="-35.75" r="2"/>
	<circle fill="#D9083C" cx="102.667" cy="-35.75" r="2"/>
	<circle fill="#D9083C" cx="90.667" cy="-47.75" r="2"/>
	<circle fill="#D9083C" cx="102.667" cy="-47.75" r="2"/>
	<circle fill="#D9083C" cx="90.667" cy="-59" r="2"/>
	<circle fill="#D9083C" cx="102.667" cy="-59" r="2"/>
	<circle fill="#D9083C" cx="90.667" cy="-70.75" r="2"/>
	<circle fill="#D9083C" cx="102.667" cy="-70.75" r="2"/>
	<circle fill="#D9083C" cx="167.25" cy="23.167" r="2"/>
	<circle fill="#D9083C" cx="158.167" cy="23.167" r="2"/>
	<circle fill="#D9083C" cx="147.917" cy="23.167" r="2"/>
	<circle fill="#D9083C" cx="137.917" cy="23.167" r="2"/>
	<circle fill="#D9083C" cx="148.5" cy="45.666" r="2"/>
	<circle fill="#D9083C" cx="157.5" cy="33.916" r="2"/>
	<circle fill="#D9083C" cx="147.5" cy="33.916" r="2"/>
	<path fill="#D9083C" d="M148.5,47.916c-1.104,0-2-0.895-2-2c0-1.104,0.896-2,2-2"/>
	<circle fill="#D9083C" cx="52.791" cy="150.041" r="2"/>
	<circle fill="#D9083C" cx="52.791" cy="138.791" r="2"/>
	<circle fill="#D9083C" cx="52.791" cy="127.041" r="2"/>
	<circle fill="#D9083C" cx="82.291" cy="116.292" r="2"/>
	<circle fill="#D9083C" cx="73.209" cy="116.292" r="2"/>
	<circle fill="#D9083C" cx="62.959" cy="116.292" r="2"/>
	<circle fill="#D9083C" cx="52.959" cy="116.292" r="2"/>
	<circle fill="#D9083C" cx="63.541" cy="138.791" r="2"/>
	<circle fill="#D9083C" cx="72.541" cy="127.041" r="2"/>
	<circle fill="#D9083C" cx="62.541" cy="127.041" r="2"/>
	<path fill="#D9083C" d="M63.541,141.041c-1.104,0-2-0.895-2-2c0-1.104,0.896-2,2-2"/>
	<circle fill="#D9083C" cx="90.667" cy="92.666" r="2"/>
	<circle fill="#D9083C" cx="102.667" cy="92.666" r="2"/>
	<circle fill="#D9083C" cx="90.667" cy="104.666" r="2"/>
	<circle fill="#D9083C" cx="77.5" cy="80.666" r="2"/>
	<circle fill="#D9083C" cx="77.5" cy="92.666" r="2"/>
	<circle fill="#D9083C" cx="77.5" cy="104.666" r="2"/>
	<circle fill="#D9083C" cx="65.834" cy="92.666" r="2"/>
	<circle fill="#D9083C" cx="65.834" cy="104.666" r="2"/>
	<circle fill="#D9083C" cx="54.173" cy="104.666" r="2"/>
	<circle fill="#D9083C" cx="53.5" cy="68.666" r="2"/>
	<circle fill="#D9083C" cx="65.5" cy="68.666" r="2"/>
	<circle fill="#D9083C" cx="53.5" cy="80.666" r="2"/>
	<circle fill="#D9083C" cx="65.5" cy="80.666" r="2"/>
	<circle fill="#D9083C" cx="53.5" cy="56.916" r="2"/>
	<circle fill="#D9083C" cx="65.5" cy="56.916" r="2"/>
	<circle fill="#D9083C" cx="53.5" cy="45.666" r="2"/>
	<circle fill="#D9083C" cx="65.5" cy="45.666" r="2"/>
	<circle fill="#D9083C" cx="53.5" cy="33.916" r="2"/>
	<circle fill="#D9083C" cx="65.5" cy="33.916" r="2"/>
	<circle fill="#D9083C" cx="77.75" cy="68.666" r="2"/>
	<circle fill="#D9083C" cx="77.75" cy="56.916" r="2"/>
	<circle fill="#D9083C" cx="77.75" cy="45.666" r="2"/>
	<circle fill="#D9083C" cx="77.75" cy="33.916" r="2"/>
	<circle fill="#D9083C" cx="53.5" cy="23.166" r="2"/>
	<circle fill="#D9083C" cx="65.5" cy="23.166" r="2"/>
	<circle fill="#D9083C" cx="53.5" cy="11.917" r="2"/>
	<circle fill="#D9083C" cx="65.5" cy="11.917" r="2"/>
	<circle fill="#D9083C" cx="53.5" cy="0.167" r="2"/>
	<circle fill="#D9083C" cx="65.5" cy="0.167" r="2"/>
	<circle fill="#D9083C" cx="77.75" cy="23.166" r="2"/>
	<circle fill="#D9083C" cx="77.75" cy="11.917" r="2"/>
	<circle fill="#D9083C" cx="77.75" cy="0.167" r="2"/>
	<circle fill="#D9083C" cx="53.5" cy="-12.75" r="2"/>
	<circle fill="#D9083C" cx="65.5" cy="-12.75" r="2"/>
	<circle fill="#D9083C" cx="53.5" cy="-24" r="2"/>
	<circle fill="#D9083C" cx="65.5" cy="-24" r="2"/>
	<circle fill="#D9083C" cx="53.5" cy="-35.75" r="2"/>
	<circle fill="#D9083C" cx="65.5" cy="-35.75" r="2"/>
	<circle fill="#D9083C" cx="77.75" cy="-12.75" r="2"/>
	<circle fill="#D9083C" cx="77.75" cy="-24" r="2"/>
	<circle fill="#D9083C" cx="77.75" cy="-35.75" r="2"/>
	<circle fill="#D9083C" cx="53.5" cy="-47.75" r="2"/>
	<circle fill="#D9083C" cx="65.5" cy="-47.75" r="2"/>
	<circle fill="#D9083C" cx="53.5" cy="-59" r="2"/>
	<circle fill="#D9083C" cx="65.5" cy="-59" r="2"/>
	<circle fill="#D9083C" cx="53.5" cy="-70.75" r="2"/>
	<circle fill="#D9083C" cx="65.5" cy="-70.75" r="2"/>
	<circle fill="#D9083C" cx="77.75" cy="-47.75" r="2"/>
	<circle fill="#D9083C" cx="77.75" cy="-59" r="2"/>
	<circle fill="#D9083C" cx="77.75" cy="-70.75" r="2"/>
	<circle fill="#D9083C" cx="90.667" cy="-83.312" r="2"/>
	<circle fill="#D9083C" cx="102.667" cy="-83.312" r="2"/>
	<circle fill="#D9083C" cx="90.667" cy="-95.062" r="2"/>
	<circle fill="#D9083C" cx="102.667" cy="-95.062" r="2"/>
	<circle fill="#D9083C" cx="90.667" cy="-107.062" r="2"/>
	<circle fill="#D9083C" cx="102.667" cy="-107.062" r="2"/>
	<circle fill="#D9083C" cx="90.667" cy="-118.312" r="2"/>
	<circle fill="#D9083C" cx="102.667" cy="-118.312" r="2"/>
	<circle fill="#D9083C" cx="90.667" cy="-130.062" r="2"/>
	<circle fill="#D9083C" cx="102.667" cy="-130.062" r="2"/>
	<circle fill="#D9083C" cx="53.5" cy="-83.312" r="2"/>
	<circle fill="#D9083C" cx="65.5" cy="-83.312" r="2"/>
	<circle fill="#D9083C" cx="53.5" cy="-95.062" r="2"/>
	<circle fill="#D9083C" cx="65.5" cy="-95.062" r="2"/>
	<circle fill="#D9083C" cx="77.75" cy="-83.312" r="2"/>
	<circle fill="#D9083C" cx="77.75" cy="-95.062" r="2"/>
	<circle fill="#D9083C" cx="53.5" cy="-107.062" r="2"/>
	<circle fill="#D9083C" cx="65.5" cy="-107.062" r="2"/>
	<circle fill="#D9083C" cx="53.5" cy="-118.312" r="2"/>
	<circle fill="#D9083C" cx="65.5" cy="-118.312" r="2"/>
	<circle fill="#D9083C" cx="53.5" cy="-130.062" r="2"/>
	<circle fill="#D9083C" cx="65.5" cy="-130.062" r="2"/>
	<circle fill="#D9083C" cx="77.75" cy="-107.062" r="2"/>
	<circle fill="#D9083C" cx="77.75" cy="-118.312" r="2"/>
	<circle fill="#D9083C" cx="77.75" cy="-130.062" r="2"/>
	<circle fill="#D9083C" cx="53.5" cy="92.666" r="2"/>
</g>
<g>
	<circle fill="#D9083C" cx="-8.332" cy="68.666" r="2"/>
	<circle fill="#D9083C" cx="-20.332" cy="68.666" r="2"/>
	<circle fill="#D9083C" cx="-32.332" cy="68.666" r="2"/>
	<circle fill="#D9083C" cx="-8.332" cy="80.666" r="2"/>
	<circle fill="#D9083C" cx="-20.332" cy="80.666" r="2"/>
	<circle fill="#D9083C" cx="-32.332" cy="80.666" r="2"/>
	<circle fill="#D9083C" cx="-8.332" cy="56.916" r="2"/>
	<circle fill="#D9083C" cx="-20.332" cy="56.916" r="2"/>
	<circle fill="#D9083C" cx="-32.332" cy="56.916" r="2"/>
	<circle fill="#D9083C" cx="-8.332" cy="45.666" r="2"/>
	<circle fill="#D9083C" cx="-20.332" cy="45.666" r="2"/>
	<circle fill="#D9083C" cx="-32.332" cy="45.666" r="2"/>
	<circle fill="#D9083C" cx="-8.332" cy="33.916" r="2"/>
	<circle fill="#D9083C" cx="-20.332" cy="33.916" r="2"/>
	<circle fill="#D9083C" cx="-32.332" cy="33.916" r="2"/>
	<circle fill="#D9083C" cx="-44.582" cy="68.666" r="2"/>
	<circle fill="#D9083C" cx="-44.582" cy="56.916" r="2"/>
	<circle fill="#D9083C" cx="-44.582" cy="45.666" r="2"/>
	<circle fill="#D9083C" cx="-44.582" cy="33.916" r="2"/>
	<circle fill="#D9083C" cx="-55.415" cy="56.916" r="2"/>
	<circle fill="#D9083C" cx="-55.415" cy="45.666" r="2"/>
	<circle fill="#D9083C" cx="-55.415" cy="33.916" r="2"/>
	<circle fill="#D9083C" cx="-8.332" cy="23.166" r="2"/>
	<circle fill="#D9083C" cx="-20.332" cy="23.166" r="2"/>
	<circle fill="#D9083C" cx="-32.332" cy="23.166" r="2"/>
	<circle fill="#D9083C" cx="-8.332" cy="11.917" r="2"/>
	<circle fill="#D9083C" cx="-20.332" cy="11.917" r="2"/>
	<circle fill="#D9083C" cx="-8.332" cy="0.167" r="2"/>
	<circle fill="#D9083C" cx="-20.332" cy="0.167" r="2"/>
	<circle fill="#D9083C" cx="-44.582" cy="23.166" r="2"/>
	<circle fill="#D9083C" cx="-8.332" cy="-12.75" r="2"/>
	<circle fill="#D9083C" cx="-20.332" cy="-12.75" r="2"/>
	<circle fill="#D9083C" cx="-8.332" cy="-24" r="2"/>
	<circle fill="#D9083C" cx="-20.332" cy="-24" r="2"/>
	<circle fill="#D9083C" cx="-8.332" cy="-35.75" r="2"/>
	<circle fill="#D9083C" cx="-20.332" cy="-35.75" r="2"/>
	<circle fill="#D9083C" cx="-8.332" cy="-47.75" r="2"/>
	<circle fill="#D9083C" cx="-20.332" cy="-47.75" r="2"/>
	<circle fill="#D9083C" cx="-8.332" cy="-59" r="2"/>
	<circle fill="#D9083C" cx="-20.332" cy="-59" r="2"/>
	<circle fill="#D9083C" cx="-8.332" cy="-70.75" r="2"/>
	<circle fill="#D9083C" cx="-20.332" cy="-70.75" r="2"/>
	<circle fill="#D9083C" cx="-84.915" cy="23.167" r="2"/>
	<circle fill="#D9083C" cx="-75.832" cy="23.167" r="2"/>
	<circle fill="#D9083C" cx="-65.582" cy="23.167" r="2"/>
	<circle fill="#D9083C" cx="-55.582" cy="23.167" r="2"/>
	<circle fill="#D9083C" cx="-66.165" cy="45.666" r="2"/>
	<circle fill="#D9083C" cx="-75.165" cy="33.916" r="2"/>
	<circle fill="#D9083C" cx="-65.165" cy="33.916" r="2"/>
	<path fill="#D9083C" d="M-66.165,43.916c1.104,0,2,0.896,2,2c0,1.105-0.896,2-2,2"/>
	<circle fill="#D9083C" cx="40.377" cy="161.791" r="2"/>
	<circle fill="#D9083C" cx="40.377" cy="150.041" r="2"/>
	<circle fill="#D9083C" cx="40.377" cy="138.791" r="2"/>
	<circle fill="#D9083C" cx="40.377" cy="127.041" r="2"/>
	<circle fill="#D9083C" cx="29.543" cy="150.041" r="2"/>
	<circle fill="#D9083C" cx="29.543" cy="138.791" r="2"/>
	<circle fill="#D9083C" cx="29.543" cy="127.041" r="2"/>
	<circle fill="#D9083C" cx="40.377" cy="116.291" r="2"/>
	<circle fill="#D9083C" cx="0.043" cy="116.292" r="2"/>
	<circle fill="#D9083C" cx="9.126" cy="116.292" r="2"/>
	<circle fill="#D9083C" cx="19.376" cy="116.292" r="2"/>
	<circle fill="#D9083C" cx="29.377" cy="116.292" r="2"/>
	<circle fill="#D9083C" cx="18.793" cy="138.791" r="2"/>
	<circle fill="#D9083C" cx="9.793" cy="127.041" r="2"/>
	<circle fill="#D9083C" cx="19.793" cy="127.041" r="2"/>
	<path fill="#D9083C" d="M18.793,137.041c1.104,0,2,0.896,2,2c0,1.105-0.896,2-2,2"/>
	<circle fill="#D9083C" cx="-8.332" cy="92.666" r="2"/>
	<circle fill="#D9083C" cx="-20.332" cy="92.666" r="2"/>
	<circle fill="#D9083C" cx="-8.332" cy="104.666" r="2"/>
	<circle fill="#D9083C" cx="4.835" cy="80.666" r="2"/>
	<circle fill="#D9083C" cx="4.835" cy="92.666" r="2"/>
	<circle fill="#D9083C" cx="4.835" cy="104.666" r="2"/>
	<circle fill="#D9083C" cx="16.501" cy="92.666" r="2"/>
	<circle fill="#D9083C" cx="16.501" cy="104.666" r="2"/>
	<circle fill="#D9083C" cx="28.162" cy="104.666" r="2"/>
	<circle fill="#D9083C" cx="40.835" cy="68.666" r="2"/>
	<circle fill="#D9083C" cx="28.835" cy="68.666" r="2"/>
	<circle fill="#D9083C" cx="16.835" cy="68.666" r="2"/>
	<circle fill="#D9083C" cx="40.835" cy="80.666" r="2"/>
	<circle fill="#D9083C" cx="28.835" cy="80.666" r="2"/>
	<circle fill="#D9083C" cx="16.835" cy="80.666" r="2"/>
	<circle fill="#D9083C" cx="40.835" cy="56.916" r="2"/>
	<circle fill="#D9083C" cx="28.835" cy="56.916" r="2"/>
	<circle fill="#D9083C" cx="16.835" cy="56.916" r="2"/>
	<circle fill="#D9083C" cx="40.835" cy="45.666" r="2"/>
	<circle fill="#D9083C" cx="28.835" cy="45.666" r="2"/>
	<circle fill="#D9083C" cx="16.835" cy="45.666" r="2"/>
	<circle fill="#D9083C" cx="40.835" cy="33.916" r="2"/>
	<circle fill="#D9083C" cx="28.835" cy="33.916" r="2"/>
	<circle fill="#D9083C" cx="16.835" cy="33.916" r="2"/>
	<circle fill="#D9083C" cx="4.585" cy="68.666" r="2"/>
	<circle fill="#D9083C" cx="4.585" cy="56.916" r="2"/>
	<circle fill="#D9083C" cx="4.585" cy="45.666" r="2"/>
	<circle fill="#D9083C" cx="4.585" cy="33.916" r="2"/>
	<circle fill="#D9083C" cx="40.835" cy="23.166" r="2"/>
	<circle fill="#D9083C" cx="28.835" cy="23.166" r="2"/>
	<circle fill="#D9083C" cx="16.835" cy="23.166" r="2"/>
	<circle fill="#D9083C" cx="40.835" cy="11.917" r="2"/>
	<circle fill="#D9083C" cx="28.835" cy="11.917" r="2"/>
	<circle fill="#D9083C" cx="16.835" cy="11.917" r="2"/>
	<circle fill="#D9083C" cx="40.835" cy="0.167" r="2"/>
	<circle fill="#D9083C" cx="28.835" cy="0.167" r="2"/>
	<circle fill="#D9083C" cx="16.835" cy="0.167" r="2"/>
	<circle fill="#D9083C" cx="4.585" cy="23.166" r="2"/>
	<circle fill="#D9083C" cx="4.585" cy="11.917" r="2"/>
	<circle fill="#D9083C" cx="4.585" cy="0.167" r="2"/>
	<circle fill="#D9083C" cx="40.835" cy="-12.75" r="2"/>
	<circle fill="#D9083C" cx="28.835" cy="-12.75" r="2"/>
	<circle fill="#D9083C" cx="16.835" cy="-12.75" r="2"/>
	<circle fill="#D9083C" cx="40.835" cy="-24" r="2"/>
	<circle fill="#D9083C" cx="28.835" cy="-24" r="2"/>
	<circle fill="#D9083C" cx="16.835" cy="-24" r="2"/>
	<circle fill="#D9083C" cx="40.835" cy="-35.75" r="2"/>
	<circle fill="#D9083C" cx="28.835" cy="-35.75" r="2"/>
	<circle fill="#D9083C" cx="16.835" cy="-35.75" r="2"/>
	<circle fill="#D9083C" cx="4.585" cy="-12.75" r="2"/>
	<circle fill="#D9083C" cx="4.585" cy="-24" r="2"/>
	<circle fill="#D9083C" cx="4.585" cy="-35.75" r="2"/>
	<circle fill="#D9083C" cx="40.835" cy="-47.75" r="2"/>
	<circle fill="#D9083C" cx="28.835" cy="-47.75" r="2"/>
	<circle fill="#D9083C" cx="16.835" cy="-47.75" r="2"/>
	<circle fill="#D9083C" cx="40.835" cy="-59" r="2"/>
	<circle fill="#D9083C" cx="28.835" cy="-59" r="2"/>
	<circle fill="#D9083C" cx="16.835" cy="-59" r="2"/>
	<circle fill="#D9083C" cx="40.835" cy="-70.75" r="2"/>
	<circle fill="#D9083C" cx="28.835" cy="-70.75" r="2"/>
	<circle fill="#D9083C" cx="16.835" cy="-70.75" r="2"/>
	<circle fill="#D9083C" cx="4.585" cy="-47.75" r="2"/>
	<circle fill="#D9083C" cx="4.585" cy="-59" r="2"/>
	<circle fill="#D9083C" cx="4.585" cy="-70.75" r="2"/>
	<circle fill="#D9083C" cx="-8.332" cy="-83.312" r="2"/>
	<circle fill="#D9083C" cx="-20.332" cy="-83.312" r="2"/>
	<circle fill="#D9083C" cx="-8.332" cy="-95.062" r="2"/>
	<circle fill="#D9083C" cx="-20.332" cy="-95.062" r="2"/>
	<circle fill="#D9083C" cx="-8.332" cy="-107.062" r="2"/>
	<circle fill="#D9083C" cx="-20.332" cy="-107.062" r="2"/>
	<circle fill="#D9083C" cx="-8.332" cy="-118.312" r="2"/>
	<circle fill="#D9083C" cx="-20.332" cy="-118.312" r="2"/>
	<circle fill="#D9083C" cx="-8.332" cy="-130.062" r="2"/>
	<circle fill="#D9083C" cx="-20.332" cy="-130.062" r="2"/>
	<circle fill="#D9083C" cx="40.835" cy="-83.312" r="2"/>
	<circle fill="#D9083C" cx="28.835" cy="-83.312" r="2"/>
	<circle fill="#D9083C" cx="16.835" cy="-83.312" r="2"/>
	<circle fill="#D9083C" cx="40.835" cy="-95.062" r="2"/>
	<circle fill="#D9083C" cx="28.835" cy="-95.062" r="2"/>
	<circle fill="#D9083C" cx="16.835" cy="-95.062" r="2"/>
	<circle fill="#D9083C" cx="4.585" cy="-83.312" r="2"/>
	<circle fill="#D9083C" cx="4.585" cy="-95.062" r="2"/>
	<circle fill="#D9083C" cx="40.835" cy="-107.062" r="2"/>
	<circle fill="#D9083C" cx="28.835" cy="-107.062" r="2"/>
	<circle fill="#D9083C" cx="16.835" cy="-107.062" r="2"/>
	<circle fill="#D9083C" cx="40.835" cy="-118.312" r="2"/>
	<circle fill="#D9083C" cx="28.835" cy="-118.312" r="2"/>
	<circle fill="#D9083C" cx="16.835" cy="-118.312" r="2"/>
	<circle fill="#D9083C" cx="40.835" cy="-130.062" r="2"/>
	<circle fill="#D9083C" cx="28.835" cy="-130.062" r="2"/>
	<circle fill="#D9083C" cx="16.835" cy="-130.062" r="2"/>
	<circle fill="#D9083C" cx="4.585" cy="-107.062" r="2"/>
	<circle fill="#D9083C" cx="4.585" cy="-118.312" r="2"/>
	<circle fill="#D9083C" cx="4.585" cy="-130.062" r="2"/>
	<circle fill="#D9083C" cx="90.667" cy="-140.834" r="2"/>
	<circle fill="#D9083C" cx="102.667" cy="-140.834" r="2"/>
	<circle fill="#D9083C" cx="53.5" cy="-140.834" r="2"/>
	<circle fill="#D9083C" cx="65.5" cy="-140.834" r="2"/>
	<circle fill="#D9083C" cx="77.75" cy="-140.834" r="2"/>
	<circle fill="#D9083C" cx="-8.332" cy="-140.834" r="2"/>
	<circle fill="#D9083C" cx="-20.332" cy="-140.834" r="2"/>
	<circle fill="#D9083C" cx="40.835" cy="-140.834" r="2"/>
	<circle fill="#D9083C" cx="28.835" cy="-140.834" r="2"/>
	<circle fill="#D9083C" cx="16.835" cy="-140.834" r="2"/>
	<circle fill="#D9083C" cx="4.585" cy="-140.834" r="2"/>
	<circle fill="#D9083C" cx="40.835" cy="92.666" r="2"/>
	<circle fill="#D9083C" cx="28.835" cy="92.666" r="2"/>
	<circle fill="#D9083C" cx="40.835" cy="104.666" r="2"/>
</g>
</svg>
