<?xml version="1.0" encoding="utf-8"?>
<!-- Generator: Adobe Illustrator 13.0.0, SVG Export Plug-In . SVG Version: 6.00 Build 14948)  -->
<!DOCTYPE svg PUBLIC "-//W3C//DTD SVG 1.1//EN" "http://www.w3.org/Graphics/SVG/1.1/DTD/svg11.dtd">
<svg version="1.1" id="Layer_1" xmlns="http://www.w3.org/2000/svg" xmlns:xlink="http://www.w3.org/1999/xlink" x="0px" y="0px"
	 width="510.236px" height="226.771px" viewBox="50.882 282.614 510.236 226.771"
	 enable-background="new 50.882 282.614 510.236 226.771" xml:space="preserve">
<g>
	<g>
		<path stroke="#FFFFFF" stroke-width="5" d="M374.447,95.902c6.045-18.374,21.917-32.75,42.325-34.345
			c23.43,1.596,37.788,16.771,43.083,34.345h47.615c-5.289-23.166-19.652-44.731-44.596-57.513
			c-12.848-6.389-27.965-11.98-46.104-11.98c-18.143,0-33.258,5.59-46.104,11.98l0,0c-24.942,12.781-39.303,34.347-44.594,57.513
			H374.447z"/>
		<polygon stroke="#FFFFFF" stroke-width="5" points="325.316,120.664 325.316,198.945 372.179,198.945 372.179,187.76 
			372.179,146.224 463.632,145.424 463.632,200.541 509.736,200.541 509.736,120.664 		"/>
		<path stroke="#FFFFFF" stroke-width="5" d="M374.447,95.902c6.045-18.374,21.917-32.75,42.325-34.345
			c23.43,1.596,37.788,16.771,43.083,34.345h47.615c-5.289-23.166-19.652-44.731-44.596-57.513
			c-12.848-6.389-27.965-11.98-46.104-11.98c-18.143,0-33.258,5.59-46.104,11.98l0,0c-24.942,12.781-39.303,34.347-44.594,57.513
			H374.447z"/>
		<path stroke="#FFFFFF" stroke-width="5" d="M374.447,95.902c6.045-18.374,21.917-32.75,42.325-34.345
			c23.43,1.596,37.788,16.771,43.083,34.345h47.615c-5.289-23.166-19.652-44.731-44.596-57.513
			c-12.848-6.389-27.965-11.98-46.104-11.98c-18.143,0-33.258,5.59-46.104,11.98l0,0c-24.942,12.781-39.303,34.347-44.594,57.513
			H374.447z"/>
		<polygon stroke="#FFFFFF" stroke-width="5" points="325.316,120.664 325.316,198.945 371.422,198.945 371.422,187.76 
			371.422,146.224 463.632,145.424 463.632,200.541 509.736,200.541 509.736,120.664 		"/>
		<polygon stroke="#FFFFFF" stroke-width="5" points="325.316,120.664 325.316,198.945 371.422,198.945 371.422,187.76 
			371.422,146.224 463.632,145.424 463.632,200.541 509.736,200.541 509.736,120.664 		"/>
	</g>
	<g>
		<path stroke="#FFFFFF" stroke-width="5" d="M4.85,130.248h105.058V95.902H4.85C3.338,107.083,3.338,119.067,4.85,130.248z"/>
		<path stroke="#FFFFFF" stroke-width="5" d="M92.527,27.208c-34.77,0-58.2,14.377-73.317,34.35h212.387v-34.35H92.527z"/>
		<path stroke="#FFFFFF" stroke-width="5" d="M115.201,199.744h40.417v-35.148H18.453
			C37.349,185.365,69.849,199.744,115.201,199.744z"/>
		<path stroke="#FFFFFF" stroke-width="5" d="M4.85,130.248h105.058V95.902H4.85C2.581,107.083,2.581,119.067,4.85,130.248"/>
		<path stroke="#FFFFFF" stroke-width="5" d="M5.126,130.248h122.115V95.902H5.126C2.489,107.083,2.489,119.067,5.126,130.248z"/>
	</g>
	<g>
		<path fill="#FFFFFF" d="M380.498,188.65c0.812-0.409,0.535,0.724,0.732,1.184C380.815,189.685,380.719,189.08,380.498,188.65z"/>
		<path fill="#FFFFFF" d="M339.589,40.053c0.912,0.292,1.439,1.13,2.351,1.423C341.244,42.256,339.297,40.718,339.589,40.053z"/>
		<path fill="#FFFFFF" d="M343.735,42.736C343.278,43.66,342.548,42.022,343.735,42.736L343.735,42.736z"/>
		<path fill="#FFFFFF" d="M277.908,56.402c-0.404,0.682-0.507,1.579-1.813,1.631c-0.878,4.592-3.283,8.112-2.854,13.622
			c-1.342-0.104-2.703-0.177-4.417,0.251C271.045,66.172,272.415,59.843,277.908,56.402z"/>
		<path fill="#FFFFFF" d="M240.965,170.22c0.288-1.435,2.398-1.592,2.606-3.081c-1.179-3.738,2.208-8.66,6.639-8.515
			c4.771,0.156,2.186,7.211,0.084,9.432C247.847,170.637,244.009,171.557,240.965,170.22z"/>
		<path fill="#FFFFFF" d="M322.797,155.053c0.811-0.412,0.534,0.723,0.731,1.184C323.113,156.089,323.017,155.482,322.797,155.053z"
			/>
		<path fill="#FFFFFF" d="M260.464,101.596C260.007,102.544,258.645,101.587,260.464,101.596L260.464,101.596z"/>
		<polygon stroke="#FFFFFF" stroke-width="0.25" points="361.334,132.357 377.956,186.333 378.339,203.887 366.159,201.889 		"/>
		<path stroke="#FFFFFF" d="M225.833,104.559c0,0,8.199,10.008,6.873,11.235c-1.331,1.228,34.376,9.812,26.727,28.552
			c-7.648,18.736,17.658,25.906,17.658,25.906s-3.227-8.294,9.395-13.237c12.618-4.937,19.406-3.976,19.406-3.976
			s-31.934-51.583-52.393-53.768c-20.456-2.188-38.454,2.697-38.454,2.697L225.833,104.559z"/>
		<path stroke="#FFFFFF" stroke-width="0.25" d="M311.286,145.904c-11.866-11.509-24.223-35.317-41.617-44.336
			c-28.79-14.919-66.362-1.652-66.54-1.164c0,0,14.941-38.75,44.654-37.465c29.717,1.284,45.471-2.042,49.161-8.471
			c3.691-6.428,6.78-26.419,6.78-26.419s35.912,9.525,41.18,16.525c5.26,6.996,15.613,43.521,18.756,54.074
			c3.454,11.605,0.16,21.793,0.16,21.793s-0.439,10.09-11.09,19.308c-3.051,2.643,16.057,48.81,13.936,68.65
			c-1.826,17.086-24.547,8.303-30.538,9.581C331.267,219.012,316.014,150.49,311.286,145.904z"/>
		<path stroke="#FF0000" stroke-width="0.25" d="M345.159,58.98c-2.652-0.515-5.359-0.977-7.541-1.908
			c-1.964-2.868-3.692-5.95-5.141-9.28c1.52-1.946,3.675-4.167,5.482-3.795C341.593,44.752,343.886,55.393,345.159,58.98z"/>
		<path stroke="#FFFFFF" stroke-width="0.25" d="M288.986,10.295c0.401,0.053,0.803,0.11,1.203,0.165
			c4.885,1.62,9.969,3.898,13.57,5.921c1.375,0.771,3.378,0.929,3.756,2.774c-0.045,2.18-2.29,1.217-3.459,1.793
			c-1.04,0.926-2.618,1.089-3.857,1.736c-7.138-3.325-13.641-7.204-21.689-9.744C280.618,10.078,285.808,11.629,288.986,10.295z"/>
		<path stroke="#FFFFFF" stroke-width="0.25" d="M319.594,28.363c-0.478,2.143-2.224-0.338-3.492-0.015
			c3.683,4.626,8.92,7.831,11.222,13.716c-2.975-0.296-4.734,1.242-7.182,1.754c-5.419-4.906-9.733-10.812-16.568-14.431
			C306.414,22.741,314.61,24.648,319.594,28.363z"/>
		<path fill="#FFFFFF" stroke="#000000" d="M297.349,12.726c1.784,0.241,3.566,0.475,5.348,0.711
			c28.627,6.899,44.243,25.649,52.268,51.313c-5.661-2.025-12.059-3.374-18.458-4.731c-0.753-2.923-1.798-5.535-2.948-8.082
			c-1.085-2.395-2.802-4.516-3.434-7.246c0.9-1.081,3.942,1.054,4.353-0.774c-2.308-1.245-5.234-1.626-7.104-2.304
			c-2.15-3.871-5.396-6.534-8.57-9.743c-0.803-0.809-2.409-1.881-2.317-3.475c2.624-0.117,4.055,2.947,5.958,2.159
			c-2.246-1.411-4.107-3.172-6.896-4.09c-0.604-1.049-0.474-2.759-1.983-2.982c-2.53-1.326-5.193-0.59-7.59-1.46
			c-1.198-0.443-2.352-2.011-3.563-2.738c-2.717-1.636-5.608-2.965-8.426-4.292c-1.052-0.498-3.484-0.074-3.614-2.295
			C292.214,11.981,295.591,13.575,297.349,12.726z M324.2,32.136c2.012,2.822-0.478-1.84-1.477-0.637
			C323.224,31.7,323.381,32.226,324.2,32.136z"/>
		<g>
			<path stroke="#FFFFFF" d="M278.265,11.549c0.266,0.039,0.531,0.071,0.8,0.11c7.798,3.289,15.571,6.603,22.388,10.745
				c-3.58,3.425-8.722-0.619-13.125-2.694c-2.037-0.959-4.331-2.134-6.56-3.159c-2.024-0.937-5.771-1.527-5.605-4.384
				C277.148,12.366,277.851,12.165,278.265,11.549z"/>
			<path stroke="#FFFFFF" d="M320.953,43.474c-2.36,3.681-3.78,0.857-6.39-1.762c-3.526-3.543-8.765-7.293-12.881-9.406
				c0.012-2.426,1.462-2.696,2.042-4.256C310.677,32.095,316.11,37.516,320.953,43.474z"/>
			<path stroke="#FFFFFF" stroke-width="0.25" d="M332.202,46.851c2.848,2.988,5.117,6.497,6.078,11.213
				C331.951,58.187,327.591,51.855,332.202,46.851z"/>
		</g>
		<path stroke="#FFFFFF" d="M211.844,179.755l-1.105-0.587l-2.124-1.124l-0.789-0.407l-1.356-0.72l-0.674-0.36l0.077-0.32
			c-2.449-1.909-3.759-4.202-4.826-6.069c-0.337-0.556-1.144-1.896-0.548-3.619l0.915-2.636l0.438-1.268l1.14,0.775l2.171,1.493
			l0.255,0.174c0.259,0.188,0.474,0.339,0.684,0.44c0.193,0.063,0.324,0.091,0.425,0.098c0.056,0.005,0.101,0.005,0.151,0.01
			c0.212,0.009,0.435,0.028,0.674,0.052c0.629,0.075,1.173,0.229,1.644,0.484c0.788,0.461,1.174,0.964,1.464,1.334l0.146,0.184
			c0.624,0.759,1.526,1.496,2.396,1.956c0.336,0.182,0.649,0.312,0.926,0.379c0.429,0.11,0.823,0.189,1.22,0.236
			c1.66,0.187,3.201-0.204,5.156-1.293c0.214-0.132,0.464-0.245,0.705-0.368c0.167-0.077,0.27-0.128,0.338-0.17
			c1.659-1.152,3.78-4.552,4.268-6.834c0.093-0.471,0.171-1.234,0.188-1.66l-0.031-0.11c-0.067-0.259-0.121-0.536-0.158-0.788
			c-0.45-2.217,0.723-3.679,1.978-4.283l0.765-0.375l0.407-0.198l0.429,0.157l0.765,0.268c0.191,0.063,0.352,0.143,0.51,0.228
			c1.834,0.964,2.038,2.875,2.142,3.804l0.033,0.297l0.058,0.283l0.053,0.284c0.169,0.771,0.318,1.552,0.317,2.415
			c-0.002,2.467-0.977,5.188-1.896,6.905c-2.16,4.03-5.697,7.424-9.731,9.308c-2.534,1.189-5.262,1.656-7.907,1.35
			c-0.508-0.053-1.018-0.142-1.521-0.257L211.844,179.755L211.844,179.755z"/>
		<path stroke="#FFFFFF" d="M225.137,150.284l0.788,0.419l1.507,0.796l0.564,0.293l0.966,0.516l0.48,0.247l-0.06,0.231
			c1.745,1.36,2.676,2.992,3.434,4.317c0.244,0.398,0.815,1.351,0.394,2.575l-0.651,1.882l-0.314,0.896l-0.81-0.546l-1.545-1.063
			l-0.18-0.127c-0.184-0.133-0.336-0.238-0.488-0.32c-0.139-0.04-0.228-0.054-0.3-0.066c-0.044,0-0.078-0.006-0.111-0.006
			c-0.152-0.007-0.31-0.018-0.477-0.033c-0.45-0.049-0.835-0.165-1.173-0.342c-0.56-0.333-0.836-0.689-1.04-0.946l-0.106-0.133
			c-0.444-0.545-1.088-1.068-1.704-1.397c-0.244-0.124-0.461-0.215-0.662-0.261c-0.305-0.087-0.587-0.144-0.868-0.172
			c-1.177-0.135-2.275,0.137-3.666,0.92c-0.158,0.091-0.329,0.177-0.505,0.258c-0.115,0.056-0.191,0.087-0.241,0.117
			c-1.175,0.825-2.683,3.241-3.03,4.869c-0.066,0.331-0.126,0.877-0.138,1.178l0.021,0.079c0.049,0.187,0.089,0.377,0.116,0.566
			c0.314,1.569-0.516,2.616-1.407,3.044l-0.55,0.267l-0.289,0.14l-0.304-0.11l-0.543-0.19c-0.135-0.047-0.25-0.108-0.363-0.166
			c-1.3-0.684-1.453-2.05-1.525-2.702l-0.024-0.209l-0.039-0.21l-0.039-0.196c-0.119-0.551-0.223-1.104-0.227-1.716
			c0.001-1.753,0.696-3.692,1.349-4.916c1.54-2.866,4.063-5.282,6.926-6.619c1.801-0.849,3.744-1.181,5.626-0.964
			c0.364,0.04,0.724,0.099,1.087,0.184L225.137,150.284L225.137,150.284z"/>
		<path stroke="#FFFFFF" stroke-width="0.25" d="M283.664,69.218c-0.491,0.056-0.935,0.059-1.364,0.006
			c-1.945-0.213-4.238-1.594-6.663-3.05c-0.58-0.348-1.152-0.692-1.699-1.006l-0.599-0.338c-5.673-3.258-13.435-7.709-20.651-9.146
			l-2.592-0.521l0.412-2.606c0.88-5.66,3.86-8.398,6.488-10.823c0.399-0.36,0.802-0.726,1.188-1.101l1.18-1.142l1.567,0.496
			c9.889,3.153,20.04,9.683,26.807,14.314c0.564,0.389,1.162,0.747,1.757,1.106c2.283,1.391,4.864,2.967,6.245,5.945l0.551,1.191
			l-0.571,1.175c-1.308,2.686-4.02,3.265-5.81,3.646c-0.364,0.076-0.724,0.147-1.049,0.243c-0.447,0.139-0.958,0.33-1.484,0.524
			C286.156,68.594,284.897,69.069,283.664,69.218L283.664,69.218z"/>
		<path stroke="#FFFFFF" stroke-width="0.25" d="M193.805,212.603c-5.242,0.638-10.741,0.729-16.351,0.283
			c-19.862-1.562-30.365-8.802-40.022-19.196c-10.901-11.745-28.833-37.424-26.366-77.492c1.556-25.346,10.958-41.733,20.879-55.675
			c7.327-10.302,25.247-26.643,26.005-27.329l0.573-0.521l0.755-0.152c0.614-0.111,15.076-2.885,22.9-3.834l1.189-0.137
			c21.141-2.21,51.85-0.131,72.813,9.514l2.16,0.99l-0.67,2.279c-0.869,2.963-3.245,4.076-4.819,4.816
			c-0.579,0.268-1.122,0.521-1.438,0.784c-0.546,0.451-1.071,1.13-1.633,1.847c-0.989,1.272-2.12,2.72-3.894,3.653l-0.848,0.448
			l-0.943-0.178c-12.364-2.334-23.979-2.87-34.533-1.594c-4.074,0.491-8.096,1.263-11.934,2.292l-4.154,1.117l0.727-4.237
			c0.038-0.247,0.084-0.484,0.138-0.711c-1.376,1.597-2.705,3.436-3.952,5.475l-0.569,0.932l-1.045,0.285
			c-6.34,1.749-12.509,4.78-19.417,9.535c-0.583,0.404-1.157,0.831-1.728,1.27c-1.49,1.119-3.034,2.291-4.875,3.11l-3.76,1.673
			c-0.375,0.998-0.789,1.983-1.252,2.941c-1.015,2.091-2.397,3.816-3.73,5.492c-0.83,1.051-1.621,2.035-2.22,3.007
			c-6.386,10.281-13.281,22.878-14.302,42.403c-0.2,3.765,0.009,6.963,0.232,10.34c0.132,2.056,0.266,4.111,0.306,6.287
			c0.013,0.443,0.254,0.963,0.655,1.774c0.243,0.49,0.49,1.005,0.702,1.549c1.213,3.039,1.846,6.105,2.615,9.937
			c1.647,3.195,3.85,6.364,6.184,9.71l1.773,2.568c0.418,0.603,0.745,1.226,1.062,1.85c0.285,0.555,0.532,1.031,0.813,1.357
			c0.113,0.136,0.461,0.386,0.745,0.586c0.514,0.375,1.153,0.835,1.76,1.467c9.764,10.301,22.536,20.974,43.163,22.026
			c2,0.103,4.129,0.015,6.338-0.247c5.381-0.65,10.519-2.321,13.746-4.472c0.122-0.087,0.431-0.255,0.776-0.428
			c0.101-0.053,0.216-0.106,0.31-0.164c1.516-1.459,3.687-3.055,5.801-4.6c1.812-1.328,3.689-2.701,4.757-3.736
			c0.131-0.117,0.372-0.484,0.556-0.752c0.383-0.577,0.81-1.228,1.444-1.779l2.821-2.49l0.196,0.441
			c0.482-0.752,0.961-1.574,1.333-2.205c0.416-0.722,0.825-1.415,1.21-2.021l0.23-0.363l0.331-0.273
			c1.287-1.079,2.284-3.005,3.331-5.048c1.206-2.321,2.44-4.722,4.415-6.494l7.082-6.361l-2.603,9.157
			C241.65,191.319,221.318,209.282,193.805,212.603L193.805,212.603z"/>
		<path fill="#FFFFFF" stroke="#000000" d="M294.958,65.334l-2.402-2.204c-8.171-7.509-20.384-14.013-31.168-19.756l-3.415-1.827
			l-1.363-0.73l-0.03-0.493c-0.548,0.136-1.117,0.256-1.738,0.331l-0.528,0.052l-0.719,0.05l-0.662-0.306
			c-27.106-12.83-61.751-10.394-75.392-8.743c-5.011,0.604-9.892,1.398-14.495,2.355l-3.786,0.79l0.495-3.839l0.083-0.695
			l0.156-1.394l1.224-0.835c16.634-9.547,33.75-15.436,50.875-17.504c3.827-0.462,7.685-0.735,11.475-0.805l3.684-0.074
			l-0.973,3.556c-0.303,1.1-0.655,2.112-1.029,3.074c0.506-0.431,1.016-0.93,1.547-1.445c1.96-1.879,4.18-4.006,6.998-4.856
			c0.802-0.237,1.696-0.424,2.657-0.536c3.022-0.365,6.349-0.079,9.278,0.174l1.309,0.113c12.972,1.042,27.896,5.799,36.297,11.57
			l2.047,1.405l-1.19,2.182c-0.654,1.201-1.396,2.196-2.151,3.114c1.645-0.769,3.304-1.436,5.081-1.647
			c0.688-0.086,1.373-0.095,2.029-0.029c3.407,0.331,20.203,10.562,23.706,21.416l0.894,2.77l-2.821,0.732
			c-4.123,1.077-10.111,4.99-14.201,11.295L294.958,65.334L294.958,65.334z"/>
		<path stroke="#FFFFFF" stroke-width="0.25" d="M198.591,216.259c-11.786,1.421-23.637-0.235-35.225-4.914l-3.193-1.289
			l1.961-2.831c0.772-1.122,1.919-1.799,3.313-1.965c1.272-0.15,2.47,0.166,3.35,0.39c0.211,0.053,0.402,0.111,0.566,0.134
			c8.636,1.483,16.821,1.776,24.323,0.874c20.676-2.494,36.812-14.301,46.674-34.123c3.403-6.85,6.083-15.018,8.906-23.668
			l0.878-2.678l5.347,0.531c1.533,12.567-4.583,31.451-9.584,40.265c-2.415,4.242-6.012,8.449-11.332,13.251
			c-4.605,4.147-8.887,7.073-13.874,9.494C213.637,213.143,206.201,215.335,198.591,216.259L198.591,216.259z"/>
		<path fill="#FFFFFF" stroke="#FFFFFF" d="M252.757,147.058c1.385,11.33-4.161,29.615-9.247,38.563
			c-2.667,4.7-6.71,8.902-10.778,12.564c-4.153,3.742-8.216,6.634-13.23,9.06c-15.774,7.629-35.046,9.649-55.107,1.544
			c1.055-1.524,3.321-0.491,4.506-0.291c35.46,6.08,60.458-7.664,73.918-34.738C246.661,166.035,249.497,156.984,252.757,147.058z"
			/>
		<path stroke="#FFFFFF" d="M206.047,174.649l-1.145-0.452l-0.463-0.183l-1.311-0.542c-0.352-0.143-0.737-0.333-1.103-0.549
			c-3.999-2.352-4.552-6.788-4.758-8.461l-0.055-0.446l-0.096-0.424l-0.089-0.409c-0.342-1.545-0.65-3.054-0.695-4.727
			c-0.126-4.813,1.471-9.969,3.003-13.191c3.58-7.508,9.649-13.74,16.652-17.113c2.501-1.203,5.138-1.977,7.829-2.3
			c2.036-0.248,4.096-0.233,6.113,0.046c0.298,0.042,0.601,0.096,0.904,0.15l0.476-1.681l3.08,1.821l1.239,0.736l3.547,2.069
			l1.342,0.791l2.251,1.324l0.752,0.441l1.711,1.009l-0.182,0.86c3.766,3.51,5.937,7.441,7.723,10.66
			c0.671,1.145,2.458,4.209,1.285,8.172l-1.368,4.641l-0.45,1.542l-1.12,3.817l-3.173-2.376l-1.287-0.966l-3.656-2.759l-0.421-0.317
			l-0.233-0.173c-0.209-0.154-0.397-0.305-0.581-0.43c-0.059-0.005-0.114-0.005-0.173-0.01c-0.467-0.045-0.789-0.076-1.112-0.121
			c-0.882-0.122-2.236-0.392-3.656-1.224l-0.02-0.009l-0.321-0.205c-1.391-0.899-2.265-2.104-2.789-2.832l-0.225-0.296
			c-0.877-1.128-2.196-2.298-3.413-3.012c-0.517-0.305-0.881-0.45-1.095-0.518c-0.666-0.199-1.27-0.338-1.85-0.416
			c-0.734-0.102-1.428-0.117-2.114-0.033c-1.411,0.174-2.909,0.749-4.727,1.804c-0.398,0.241-0.834,0.462-1.274,0.677l-0.313,0.157
			c-1.885,1.383-5.055,6.725-5.673,10.374c-0.1,0.575-0.177,1.57-0.203,2.259c0.137,0.546,0.253,1.104,0.326,1.619
			c1.104,5.051-1.622,8.481-4.305,9.814l-1.234,0.614l-0.453,0.228L206.047,174.649L206.047,174.649z"/>
		<path stroke="#FFFFFF" d="M236.904,190.388c-0.651,0.08-1.313,0.075-1.968-0.017c-0.464-0.066-0.96-0.182-1.464-0.348l-4.271-1.47
			l-1.41-0.492l-3.192-1.104l1.733-2.912l0.771-1.282l2.473-4.102l0.285-0.46c0.401-0.669,0.627-1.033,0.765-1.336
			c0.021-0.162,0.037-0.349,0.046-0.479c0.143-1.361,0.343-3.229,1.336-5.123c0.763-1.479,1.873-2.492,2.403-2.98l0.201-0.203
			c1.348-1.365,3.029-3.831,3.558-5.831c1.004-3.738,0.764-6.768-0.825-10.481c-0.185-0.438-0.345-0.862-0.491-1.274l-0.193-0.541
			c-0.459-0.815-2.246-2.597-4.482-3.911c-1.192-0.698-2.378-1.19-3.244-1.349c-0.469-0.058-1.033-0.093-1.458-0.091
			c-0.392,0.131-0.765,0.243-1.117,0.327c-0.536,0.178-1.098,0.302-1.658,0.374c-0.68,0.08-1.361,0.079-2.021-0.008
			c-0.958-0.137-1.9-0.46-2.796-0.973c-1.646-0.98-2.894-2.521-3.556-4.364l-0.473-1.323l-0.148-0.408l-0.319-0.882l0.29-0.896
			l0.135-0.415l0.486-1.388c1.753-5.143,6.396-6.092,7.923-6.405l0.031-0.003l0.28-0.055l0.692-0.226
			c0.887-0.289,2.281-0.752,3.816-0.938l0.55-0.054c1.158-0.095,2.416-0.05,3.709,0.131c2.85,0.395,5.92,1.469,8.448,2.933
			c6.577,3.873,11.881,10.521,14.544,18.262c1.923,5.573,2.225,11.751,0.884,17.607l0.782,0.469l-1.073,2.268l-0.479,1.017
			l-1.557,3.282l-0.725,1.497l-1.161,2.435l-0.393,0.813l-0.947,2.001l-0.728-0.174c-3.069,4.147-6.498,6.679-9.316,8.766
			C240.832,188.857,239.204,190.116,236.904,190.388L236.904,190.388z"/>
		<path stroke="#FFFFFF" d="M192.816,70.7l-0.811-2.738c-1.577-5.325-0.161-14.572,2.115-18.978
			c1.079-1.917,2.984-2.201,3.898-2.341c0.132-0.024,0.272-0.034,0.393-0.063c3.508-0.938,7.369-1.666,11.474-2.165
			c7.381-0.889,21.924-1.739,36.369,2.612l3.52,1.057l-2.012,3.087c-1.29,1.975-2.259,4.579-3.287,7.335
			c-0.468,1.269-0.941,2.537-1.445,3.753l-0.775,1.875l-2.021-0.191c-7.164-0.671-14.032-0.588-20.992,0.251
			c-7.506,0.912-15.046,2.684-23.725,5.597L192.816,70.7L192.816,70.7z"/>
		<path stroke="#FFFFFF" d="M272.867,72.366l-0.964,0.118l-0.867-0.514c-6.553-4.091-12.938-6.144-20.704-6.657l-2.242-0.144
			l-0.305-2.231c-0.517-3.809,0.738-7.42,1.844-10.602c0.293-0.839,0.575-1.647,0.802-2.421l0.514-1.736l1.832-0.219
			c0.299-0.033,2.607-0.241,3.547,1.95c9.293,2.425,16.743,6.713,23.96,10.878l2.299,1.313c0.461,0.269,0.878,0.593,1.278,0.941
			c0.132,0.106,0.258,0.225,0.392,0.31c-0.078-0.05-0.368-0.17-0.742-0.129c-0.152,0.019-0.255,0.06-0.306,0.083l3.235,4.274
			c-1.679,2.02-4.041,2.328-5.775,2.546c-0.52,0.067-1.027,0.12-1.492,0.257c-0.745,0.208-1.442,0.485-2.13,0.753
			C275.744,71.647,274.403,72.182,272.867,72.366L272.867,72.366z"/>
		<path stroke="#FFFFFF" d="M163.803,91.241l-1.434-2.195c-1.816-2.776-2.667-6.506-3.147-9.068
			c-1.069-5.63-1.115-11.078-0.159-17.673l0.327-2.214l2.239-0.131c1.066-0.063,2.031,0.322,2.707,1.045
			c6.886-4.963,14.134-9.228,23.293-10.988l0.914-0.179l0.831,0.417c1.057,0.527,1.782,1.396,2.046,2.434
			c0.438,1.731-0.546,3.124-1.019,3.788c-0.065,0.14-0.217,0.53-0.384,0.954c-0.267,0.669-0.543,1.356-0.696,2.035
			c-0.345,1.533-0.346,3.474-0.343,5.35c0.003,2.281,0.011,4.433-0.604,6.157c-0.908,2.55-4.205,4.836-8.769,7.794
			c-1.176,0.761-2.288,1.483-2.812,1.911c-1.638,1.333-3.038,2.692-4.399,4.004c-2.056,1.986-3.995,3.867-6.326,5.234
			L163.803,91.241L163.803,91.241z"/>
		<path stroke="#FFFFFF" d="M205.125,201.385c-4.297,0.518-8.681,0.511-12.689-0.021c-17.358-2.325-34.156-11.981-46.075-26.482
			c-11.407-13.877-16.812-32.704-14.917-51.819l-0.131-0.121l-0.103-1.428l0.557-4.902l0.234-2.043l0.443-0.078
			c2.683-17.934,10.524-29.945,17.46-40.563l0.374-0.593c1.062-1.689,2.667-4.239,5.583-4.59l3.796-0.457l-0.639,3.735l-0.354,1.673
			c-0.662,3.096-1.229,5.77-1.254,8.885c-0.018,1.988,0.48,4.066,0.956,6.075c0.598,2.514,1.16,4.898,0.815,7.223
			c-0.226,1.468-1.078,3.154-1.828,4.641c-0.22,0.443-0.435,0.857-0.602,1.235c-3.3,7.176-6.89,19.321-6.15,29.925
			c1.124,15.957,6.327,27.69,17.4,39.226c0.676,0.706,1.34,1.481,1.995,2.266c0.878,1.049,1.708,2.034,2.496,2.697
			c8.412,7.082,25.608,11.593,38.335,10.057c1.148-0.138,2.252-0.326,3.321-0.57c3.026-0.669,7.38-2.282,9.543-3.368
			c0.624-0.304,1.381-0.979,2.105-1.617c0.685-0.614,1.365-1.197,2.039-1.659c0.128-0.082,0.271-0.206,0.438-0.339
			c0.865-0.701,2.178-1.769,3.835-1.97c1.53-0.178,2.947,0.402,3.989,1.627l0.652,0.771l-0.003,1.005
			c0.009,4.97-3.886,7.537-6.73,9.415c-0.641,0.42-1.263,0.824-1.801,1.246c-0.78,0.608-1.568,1.256-2.355,1.9
			c-2.365,1.945-4.812,3.959-7.42,5.262C214.745,199.483,210.136,200.78,205.125,201.385L205.125,201.385z"/>
		<path stroke="#FFFFFF" d="M359.743,203.574c-0.142,2.24-0.291,4.491-0.432,6.733c-0.873,2.1-0.707,5.573-2.071,7.01
			c-1.844-0.771-1.835-3.059-2.601-4.674c-4.932-10.461-11.906-19.44-24.372-22.255c1.928,3.676,5.145,7.001,7.33,11.374
			c2.179,4.352,3.844,9.286,3.827,15.654c-0.227,0.515-1.236-0.021-1.328,0.67c-3.751-0.243-7.504-0.486-11.246-0.73
			c-0.362-0.563-1.06-0.781-1.884-0.876c-3.578-10.557-7.577-20.084-13.331-28.298c-4.351-6.226-9.872-11.129-15.091-16.017
			c-1.781-1.668-3.702-3.416-5.12-5.59c-8.032-3.79-15.095-8.566-23.763-11.692c2.169-7.049,2.095-16.778-3.663-27.124
			c12.068,5.014,30.02,16.352,36.232,27.355c-0.543-2.504-1.137-5.084-2.116-7.276c-7.42-16.634-22.619-29.803-38.2-37.807
			c-4.609-2.37-9.692-3.748-14.07-6.928c0.99-2.48,3.945-2.348,5.132-4.551c-10.691-0.67-22.969,0.065-31.227,3.983
			c-0.18,2.046,2.83,0.837,2.373,3.167c-3.581,0.43-7.334-0.65-10.873-1.454c-3.647-0.836-7.346-1.549-10.455-2.945
			c0.026-2.309,2.418-2.378,3.754-3.133c1.438-0.815,2.881-1.947,4.37-2.726c17.485-9.132,46.267-10.676,64.791,0.82
			c-0.059-1.622-0.646-3.63-1.293-4.966c-2.11-4.374,3.207-12.948,1.579-17.649c10.396-2.966,10.051-3.003,20.237-8.083
			c-0.504,2.082-1.773,8.464-3.03,9.661c-1.391,1.328-3.358,2.13-4.146,4.239c13.178,0.668,22.201,5.959,28.436,14.246
			c4.351,5.79,6.842,13.543,10.947,20.265c4.444,7.271,11.617,18.281,20.974,14.88c0.071-3.563,0.171-7.16,0.039-10.518
			c1.846,0.645,2.353,3.016,3.24,4.721c0.909,1.732,1.798,3.561,2.9,5.079c1.904,0.094,3.348-0.422,5.187-0.419
			c0.031,2.068,0.432,3.752,0.6,5.679c-3.179,1.721-7.025,0.62-8.23-2.416c-0.72,1.077-0.41,3.521-0.659,5.221
			c-4.184,4.874-12.283,4.528-20.282,4.322c4.505,5.581,9.601,10.404,13.789,16.302c2.163,3.05,3.535,6.462,5.151,10.111
			c1.514,3.409,3.669,6.941,4.119,11.17c-1.832,0.272-3.934,0.184-6.133-0.024c0.348,4.788,5.893,8.783,4.147,15.673
			c-0.51,1.877-1.562-0.996-2.867-0.561c1.566,3.286,3.372,6.344,5.55,9.006c1.544,0.159,1.719-1.506,3.604-0.896
			C359.711,201.973,359.036,203.482,359.743,203.574z M291.569,95.414c1.685,0.746,3.402,1.863,4.974,2.957
			c1.474,1.02,3.988,1.733,3.908,4.386c-4,0.913-8.898,0.628-11.508,3.39c4.572,2.554,9.449,4.014,10.98,9.734
			c1.122,4.186,0.678,7.768,2.191,11.039c2.319,5.021,6.307,8.799,10.517,11.959c-0.016-1.342,0.398,0.019,0.319,0.014
			c1.863,0.021,4.662-2.071,6.989-3.301c2.479-1.307,4.745-3.063,7.013-3.679c4.657,5.243,16.869,10.014,22.441,2.208
			c-3.163,1.271-7.115,0.927-9.957-0.646c-6.795-3.758-11.122-13.457-15.2-19.407c-6.785-9.884-18.971-18.329-33.259-19.443
			C290.988,95.089,291.017,95.517,291.569,95.414z"/>
		<path fill="#FFFFFF" stroke="#000000" d="M341.66,94.151c0.163-9.252-2.817-18.319-6.113-25.204
			c2.257-0.047,6.008,1.278,8.92,1.707c2.448,3.91,4.267,8.453,6.964,12.104c-0.191-4.228-1.951-6.859-2.194-11.041
			c2.467,0.154,4.924,0.316,7.393,0.481c3.683,10.362,9.692,25.862,9.644,40.463c-0.023,7.083-2.703,10.224-4.874,15.473
			c-2.563-0.482-4.125,0.717-5.806,0.002c-2.661-1.135-3.498-8.009-5.823-9.78c-0.298,3.807,0.12,6.867-0.381,10.879
			c-9.636,3.164-16.254-7.509-20.378-14.1c-3.123-4.997-5.679-10.604-8.346-15.581c-6.398-11.915-15.931-18.746-31.608-20.09
			c1.895-15.286,21.962-25.264,21.962-25.264s14.541,14.195,15.732,16.056C331.831,78.19,337.138,86.257,341.66,94.151z"/>
		<path fill="#FFFFFF" stroke="#000000" d="M277.229,101.173c-10.475-7.509-21.421-11.515-36.103-12.115
			c-6.877-0.28-14.443,1.569-20.847,3.459c-8.896,2.637-12.345,6.235-17.148,7.887c11.487-9.616,26.787-20.932,43.411-20.262
			c11.745,0.471,21.05,6.465,29.794,12.496C276.259,95.917,277.541,97.627,277.229,101.173z"/>
		<path fill="#FFFFFF" stroke="#000000" d="M319.329,131.329c-1.435,2.918-2.765,5.947-4.801,8.149
			c-4.896-3.383-10.156-7.573-12.748-12.915c-0.658-1.359-1.606-3.68-1.982-5.365c-0.55-2.465-0.104-4.917-1.079-7.325
			c-1.809-4.468-6.169-6.154-10.333-8.331c-0.096-0.69,0.352-0.731,0.827-0.753c7.273,1.271,12.813,2.621,15.819,7.468
			c1.339,2.167,1.599,4.789,2.651,7.031C310.076,124.356,313.854,128.427,319.329,131.329z"/>
		<path fill="#FFFFFF" stroke="#000000" d="M382.413,192.261c-0.42,6.49-0.839,12.978-1.257,19.462
			c-6.771,3.745-15.291,7.305-24.307,6.697c0.612-2.045,1.674-4.28,2.038-6.631c0.545-3.484,0.009-7.848,0.134-12.024
			c0.07-2.317,0.925-4.515,0.734-6.342c-0.469-4.49-5.26-9.382-7.627-11.768c-1.02-1.03-2.911-1.872-2.65-3.93
			c1.718,0.307,4.537,0.515,6.105,0.396c-2.69-7.634-5.632-14.765-9.935-20.941c-2.044-2.931-4.139-6.223-6.536-8.695
			c-2.498-2.57-5.311-4.757-6.907-7.961c7.471-0.235,15.441,0.209,19.937-3.971c0.832-1.199,0.118-4.447,1.005-5.574
			c1.69,0.605,1.974,2.648,3.66,3.244c1.679-0.202,2.924-0.99,4.893-0.808c2.94,14.17,6.088,29.057,9.229,43.387
			c1.314,5.996,2.63,11.895,3.926,17.604c0.273,1.198,0.121,3.201,1.365,3.852c0.467-4.119,0.88-8.316,1.737-11.926
			C379.9,187.84,380.694,190.525,382.413,192.261z"/>
		<path fill="#FFFFFF" stroke="#FF0000" stroke-width="0.25" d="M343.945,218.34c-0.854-0.061-1.711-0.111-2.567-0.17
			c-0.152-8.176-2.923-14.812-5.837-19.552c-0.964-1.578-2.839-2.869-2.573-5.053c4.477,2.85,9.08,10.085,11.839,16.559
			c0.507,1.197,3.468,6.991,2.382,8.043C346.175,219.146,343.785,216.802,343.945,218.34z"/>
		<path fill="#FFFFFF" stroke="#000000" d="M326.845,213.469c-0.12,0.66,0.199,1.896-0.74,1.455
			c-13.679-21.544-20.107-36.202-47.278-43.941c-7.058-2.014-10.103-14.089-8.426-17.552c1.602,1.881,3.923,2.044,5.936,3.012
			c6.26,3.027,11.495,6.964,17.159,9.006c1.045,2.062,2.893,3.387,4.531,4.809C310.986,181.476,321.404,194.972,326.845,213.469z"/>
		<path fill="#BB2531" d="M323.786,126.071c-7.339,2.197-12.2-5.884-11.754-12.794C317.665,114.399,323.272,118.552,323.786,126.071
			z"/>
	</g>
</g>
</svg>
